STARTFONT 2.1
COMMENT
COMMENT Converted from OpenType font "RobotoMono-Bold.ttf" by "otf2bdf 3.0".
COMMENT
FONT -FreeType-Roboto Mono-Bold-R-Normal--62-620-72-72-P-306-ISO10646-1
SIZE 62 72 72
FONTBOUNDINGBOX 79 79 -31 -15
STARTPROPERTIES 19
FOUNDRY "FreeType"
FAMILY_NAME "Roboto Mono"
WEIGHT_NAME "Bold"
SLANT "R"
SETWIDTH_NAME "Normal"
ADD_STYLE_NAME ""
PIXEL_SIZE 62
POINT_SIZE 620
RESOLUTION_X 72
RESOLUTION_Y 72
SPACING "P"
AVERAGE_WIDTH 306
CHARSET_REGISTRY "ISO10646"
CHARSET_ENCODING "1"
FONT_ASCENT 64
FONT_DESCENT 16
COPYRIGHT "Copyright 2015 The Roboto Mono Project Authors (https://github.com/googlefonts/robotomono)"
_OTF_FONTFILE "RobotoMono-Bold.ttf"
_OTF_PSNAME "RobotoMono-Bold"
ENDPROPERTIES
CHARS 876
STARTCHAR 000D
ENCODING 13
SWIDTH 596 0
DWIDTH 37 0
BBX 0 0 0 0
BITMAP
ENDCHAR
STARTCHAR 0020
ENCODING 32
SWIDTH 596 0
DWIDTH 37 0
BBX 0 0 0 0
BITMAP
ENDCHAR
STARTCHAR 0021
ENCODING 33
SWIDTH 612 0
DWIDTH 38 0
BBX 10 45 14 -1
BITMAP
7F80
7F80
7F80
7F80
7F80
7F80
7F80
7F80
7F80
7F80
7F80
7F80
7F80
7F80
7F80
7F80
7F80
7F80
7F80
7F80
7F80
7F80
7F80
7F80
7F80
7F80
7F80
7F80
0000
0000
0000
0000
0000
0000
0000
0000
3F00
7F80
FFC0
FFC0
FFC0
FFC0
7F80
3F00
0800
ENDCHAR
STARTCHAR 0022
ENCODING 34
SWIDTH 580 0
DWIDTH 36 0
BBX 18 16 8 30
BITMAP
FC0FC0
FC0FC0
FC0FC0
FC0FC0
FC0FC0
FC0FC0
FC0FC0
FC0FC0
FC0FC0
FC0FC0
FC0FC0
FC0FC0
FC0FC0
FC0FC0
FC0FC0
FC0FC0
ENDCHAR
STARTCHAR 0023
ENCODING 35
SWIDTH 596 0
DWIDTH 37 0
BBX 34 44 1 0
BITMAP
000F80F800
000F81F800
000F81F800
000F81F000
001F81F000
001F81F000
001F03F000
001F03F000
001F03F000
001F03E000
003F03E000
003F03E000
003E07E000
3FFFFFFFC0
3FFFFFFFC0
3FFFFFFFC0
3FFFFFFFC0
3FFFFFFFC0
007C0FC000
007C0FC000
007C0F8000
00FC0F8000
00FC0F8000
00F80F8000
00F81F8000
00F81F8000
00F81F0000
FFFFFFFE00
FFFFFFFE00
FFFFFFFE00
FFFFFFFE00
FFFFFFFE00
03F03E0000
03F03E0000
03F03E0000
03E07E0000
03E07E0000
03E07C0000
07E07C0000
07E07C0000
07C0FC0000
07C0FC0000
07C0F80000
0FC0F80000
ENDCHAR
STARTCHAR 0024
ENCODING 36
SWIDTH 596 0
DWIDTH 37 0
BBX 30 57 4 -6
BITMAP
0003E000
0003E000
0003E000
0003E000
0003E000
0003E000
0007E000
007FFE00
01FFFF80
03FFFFC0
07FFFFE0
0FFFFFF0
1FFFFFF0
1FF83FF8
3FE00FF8
3FE007FC
3FC007FC
3FC003FC
3FC003FC
3FC003FC
3FC003FC
3FE00000
3FF00000
3FF80000
1FFE0000
0FFFC000
0FFFF000
07FFFC00
03FFFF00
00FFFFC0
003FFFE0
000FFFF0
0001FFF8
00007FF8
00001FFC
00000FFC
000007FC
FF0003FC
FF0003FC
FF8003FC
FF8003FC
FF8003FC
7FC007FC
7FE00FFC
3FF01FF8
3FFFFFF8
1FFFFFF0
0FFFFFE0
07FFFFC0
03FFFF80
007FFC00
0007C000
0007C000
0007C000
0007C000
0007C000
0007C000
ENDCHAR
STARTCHAR 0025
ENCODING 37
SWIDTH 596 0
DWIDTH 37 0
BBX 35 46 1 -1
BITMAP
0080000000
0FF8000000
1FFC000000
3FFE000000
7FFF000000
7FFF000000
FE3F800000
FC1F80E000
FC1F81F000
FC1F81F000
FC1F83E000
FC1F83C000
FC1F87C000
FC1F878000
FE3F8F8000
7FFF1F0000
7FFF1F0000
3FFE3E0000
1FFC3E0000
07F07C0000
0000780000
0000F80000
0000F00000
0001F00000
0003E00000
0003E00000
0007C1FC00
0007C7FF00
000F8FFF80
000F9FFFC0
001F1FFFC0
003E3F8FE0
003E3F07E0
007C3F07E0
007C3F07E0
00F83F07E0
00F83F07E0
00703F07E0
00103F07E0
00003F87E0
00001FFFC0
00001FFFC0
00000FFF80
000007FF00
000003FE00
0000002000
ENDCHAR
STARTCHAR 0026
ENCODING 38
SWIDTH 596 0
DWIDTH 37 0
BBX 35 45 2 0
BITMAP
003FF00000
007FFC0000
01FFFE0000
03FFFF0000
03FFFF8000
07FFFF8000
07FC7FC000
0FF83FC000
0FF01FC000
0FF01FC000
0FF01FC000
0FF01FC000
0FF01FC000
0FF03F8000
0FF87F8000
07F8FF0000
07FFFE0000
03FFFC0000
03FFF80000
01FFF00000
01FFE00000
01FFC00000
03FFC00000
07FFE01FC0
0FFFF01FC0
1FFFF81FC0
3FFFF81FC0
7FC7FC3FC0
7FC3FE3F80
FF83FF3F80
FF81FFFF80
FF00FFFF80
FF007FFF00
FF007FFF00
FF803FFE00
FF801FFC00
FFC01FFC00
7FF0FFFC00
7FFFFFFE00
3FFFFFFF00
1FFFFFFF00
0FFFFFFF80
07FFFCFFC0
01FFF07FE0
000C000000
ENDCHAR
STARTCHAR 0027
ENCODING 39
SWIDTH 596 0
DWIDTH 37 0
BBX 6 16 14 30
BITMAP
FC
FC
FC
FC
FC
FC
FC
FC
FC
FC
FC
FC
FC
FC
FC
FC
ENDCHAR
STARTCHAR 0028
ENCODING 40
SWIDTH 596 0
DWIDTH 37 0
BBX 16 62 10 -14
BITMAP
0006
000F
003F
007F
007F
00FE
01FC
03F8
03F0
07F0
0FE0
0FE0
0FC0
1FC0
1F80
3F80
3F80
3F00
7F00
7F00
7F00
7F00
7F00
FE00
FE00
FE00
FE00
FE00
FE00
FE00
FE00
FE00
FE00
FE00
FE00
FE00
FE00
FE00
7E00
7F00
7F00
7F00
7F00
3F00
3F80
3F80
1F80
1FC0
1FC0
0FE0
0FE0
07F0
07F0
03F8
01FC
00FE
00FF
007F
003F
001F
0006
0002
ENDCHAR
STARTCHAR 0029
ENCODING 41
SWIDTH 612 0
DWIDTH 38 0
BBX 17 62 10 -14
BITMAP
600000
F80000
FC0000
FE0000
FF0000
7F8000
3F8000
1FC000
0FE000
0FE000
07F000
07F800
03F800
03FC00
01FC00
01FC00
01FE00
01FE00
00FE00
00FF00
00FF00
00FF00
00FF00
007F00
007F80
007F80
007F80
007F80
007F80
007F80
007F80
007F80
007F80
007F80
007F80
007F80
007F80
007F80
00FF00
00FF00
00FF00
00FF00
00FE00
00FE00
01FE00
01FC00
01FC00
03FC00
03F800
07F800
07F000
0FF000
0FE000
1FC000
3FC000
7F8000
FF0000
FE0000
FC0000
F80000
600000
400000
ENDCHAR
STARTCHAR 002A
ENCODING 42
SWIDTH 596 0
DWIDTH 37 0
BBX 31 31 5 13
BITMAP
000FE000
000FC000
000FC000
000FC000
000FC000
000FC000
000FC000
0007C000
6007C008
7807C038
7F07C1F8
FFC7C7FC
FFF79FFC
FFFFFFFC
7FFFFFFE
03FFFFC0
003FFC00
001FE000
003FF000
007FF800
00FDF800
00FCFC00
01F87E00
03F87F00
07F03F80
0FE03FC0
1FE01FC0
0FC01FC0
03C00F00
01800600
00000400
ENDCHAR
STARTCHAR 002B
ENCODING 43
SWIDTH 596 0
DWIDTH 37 0
BBX 30 32 3 4
BITMAP
001FE000
001FE000
001FE000
001FE000
001FE000
001FE000
001FE000
001FE000
001FE000
001FE000
001FE000
001FE000
FFFFFFFC
FFFFFFFC
FFFFFFFC
FFFFFFFC
FFFFFFFC
FFFFFFFC
FFFFFFFC
FFFFFFFC
001FE000
001FE000
001FE000
001FE000
001FE000
001FE000
001FE000
001FE000
001FE000
001FE000
001FE000
001FE000
ENDCHAR
STARTCHAR 002C
ENCODING 44
SWIDTH 612 0
DWIDTH 38 0
BBX 10 19 12 -12
BITMAP
3FC0
3FC0
3FC0
3FC0
3FC0
3FC0
3FC0
3FC0
3FC0
3FC0
3FC0
3FC0
7F80
7F80
FF00
FE00
FE00
FC00
3800
ENDCHAR
STARTCHAR 002D
ENCODING 45
SWIDTH 596 0
DWIDTH 37 0
BBX 25 7 9 16
BITMAP
FFFFFF80
FFFFFF80
FFFFFF80
FFFFFF80
FFFFFF80
FFFFFF80
FFFFFF80
ENDCHAR
STARTCHAR 002E
ENCODING 46
SWIDTH 612 0
DWIDTH 38 0
BBX 12 11 13 0
BITMAP
3FC0
7FE0
7FE0
FFF0
FFF0
FFF0
FFF0
7FE0
7FE0
3FC0
0400
ENDCHAR
STARTCHAR 002F
ENCODING 47
SWIDTH 596 0
DWIDTH 37 0
BBX 24 48 7 -4
BITMAP
0000FF
0000FE
0001FE
0001FE
0001FC
0003FC
0003FC
0003F8
0007F8
0007F8
0007F0
000FF0
000FF0
001FE0
001FE0
001FE0
003FC0
003FC0
003FC0
007F80
007F80
007F80
00FF00
00FF00
00FE00
01FE00
01FE00
01FC00
03FC00
03FC00
03F800
07F800
07F800
07F000
0FF000
0FF000
1FE000
1FE000
1FE000
3FC000
3FC000
3FC000
7F8000
7F8000
7F8000
FF0000
FF0000
FF0000
ENDCHAR
STARTCHAR 0030
ENCODING 48
SWIDTH 596 0
DWIDTH 37 0
BBX 28 46 4 -1
BITMAP
00020000
007FF000
01FFFC00
07FFFE00
0FFFFF00
1FFFFF80
1FFFFFC0
3FF0FFC0
3FE03FE0
7FC01FE0
7F801FE0
7F801FF0
FF800FF0
FF800FF0
FF000FF0
FF000FF0
FF001FF0
FF003FF0
FF007FF0
FF01FFF0
FF03FFF0
FF07FFF0
FF1FEFF0
FF3F8FF0
FF7F0FF0
FFFE0FF0
FFF80FF0
FFF00FF0
FFE00FF0
FF800FF0
FF000FF0
FF000FF0
FF800FF0
FF800FF0
7F801FF0
7F801FF0
7FC01FE0
3FE03FE0
3FF0FFC0
1FFFFFC0
1FFFFF80
0FFFFF00
07FFFE00
01FFFC00
007FF000
00060000
ENDCHAR
STARTCHAR 0031
ENCODING 49
SWIDTH 596 0
DWIDTH 37 0
BBX 19 43 5 1
BITMAP
0000E0
0007E0
003FE0
00FFE0
07FFE0
3FFFE0
FFFFE0
FFFFE0
FFFFE0
FFFFE0
FF1FE0
FC1FE0
E01FE0
001FE0
001FE0
001FE0
001FE0
001FE0
001FE0
001FE0
001FE0
001FE0
001FE0
001FE0
001FE0
001FE0
001FE0
001FE0
001FE0
001FE0
001FE0
001FE0
001FE0
001FE0
001FE0
001FE0
001FE0
001FE0
001FE0
001FE0
001FE0
001FE0
001FE0
ENDCHAR
STARTCHAR 0032
ENCODING 50
SWIDTH 596 0
DWIDTH 37 0
BBX 31 44 2 1
BITMAP
003FFC00
01FFFF00
03FFFF80
0FFFFFC0
1FFFFFE0
1FFFFFF0
3FF87FF0
7FE01FF8
7FC00FF8
7F800FF8
FF8007F8
FF8007F8
FF0007F8
FF0007F8
000007F8
00000FF8
00000FF8
00001FF0
00001FF0
00003FE0
00007FE0
0000FFC0
0001FF80
0003FF80
0003FF00
0007FE00
000FFC00
001FF800
003FF000
007FE000
00FFC000
01FF8000
03FF0000
07FE0000
0FFC0000
0FF80000
1FF00000
3FFFFFFE
7FFFFFFE
7FFFFFFE
7FFFFFFE
7FFFFFFE
7FFFFFFE
7FFFFFFE
ENDCHAR
STARTCHAR 0033
ENCODING 51
SWIDTH 596 0
DWIDTH 37 0
BBX 30 45 3 0
BITMAP
007FF800
01FFFF00
07FFFF80
0FFFFFC0
1FFFFFE0
3FFFFFF0
3FF87FF0
7FE01FF8
7FC00FF8
7F8007F8
7F8007F8
000007F8
000007F8
000007F8
000007F8
00000FF8
00001FF0
00003FF0
003FFFE0
003FFFC0
003FFF80
003FFE00
003FFF80
003FFFE0
003FFFF0
00003FF8
00000FF8
000007FC
000007FC
000003FC
000003FC
000003FC
FF0003FC
FF8003FC
FF8007FC
FFC007FC
7FE00FFC
7FF87FF8
3FFFFFF0
1FFFFFF0
1FFFFFE0
07FFFFC0
03FFFF00
007FFC00
00030000
ENDCHAR
STARTCHAR 0034
ENCODING 52
SWIDTH 596 0
DWIDTH 37 0
BBX 32 44 2 0
BITMAP
00003FE0
00003FE0
00007FE0
0000FFE0
0000FFE0
0001FFE0
0003FFE0
0003FFE0
0007FFE0
0007FFE0
000FFFE0
001FFFE0
001FDFE0
003F9FE0
007F9FE0
007F1FE0
00FE1FE0
00FE1FE0
01FC1FE0
03FC1FE0
03F81FE0
07F01FE0
0FF01FE0
0FE01FE0
1FC01FE0
1FC01FE0
3F801FE0
7F001FE0
7FFFFFFF
FFFFFFFF
FFFFFFFF
FFFFFFFF
FFFFFFFF
FFFFFFFF
FFFFFFFF
00001FE0
00001FE0
00001FE0
00001FE0
00001FE0
00001FE0
00001FE0
00001FE0
00001FE0
ENDCHAR
STARTCHAR 0035
ENCODING 53
SWIDTH 596 0
DWIDTH 37 0
BBX 29 45 4 -1
BITMAP
0FFFFFF0
1FFFFFF0
1FFFFFF0
1FFFFFF0
1FFFFFF0
1FFFFFF0
1FFFFFF0
1FC00000
1FC00000
1FC00000
3FC00000
3FC00000
3FC00000
3FC00000
3FC00000
3FCFF000
3FBFFE00
3FFFFF00
3FFFFFC0
7FFFFFC0
7FFFFFE0
7FFFFFF0
7FC07FF0
07801FF0
00000FF8
00000FF8
000007F8
000007F8
000007F8
000007F8
000007F8
000007F8
FF0007F8
FF800FF8
FF800FF8
7FC00FF8
7FE01FF0
7FF87FF0
3FFFFFE0
1FFFFFC0
0FFFFFC0
07FFFF00
03FFFE00
007FF800
00020000
ENDCHAR
STARTCHAR 0036
ENCODING 54
SWIDTH 596 0
DWIDTH 37 0
BBX 30 46 3 -1
BITMAP
00000200
0001FE00
000FFE00
003FFE00
007FFE00
01FFFE00
03FFFE00
07FFF000
07FF0000
0FFC0000
1FF80000
1FF00000
3FE00000
3FE00000
3FC00000
7FC00000
7F83F800
7F8FFF00
7FBFFF80
FFFFFFC0
FFFFFFE0
FFFFFFF0
FFFFFFF0
FFF03FF8
FFC01FF8
FF800FF8
FF8007FC
FF0007FC
FF0007FC
FF0007FC
FF0003FC
FF8003FC
FF8007FC
7F8007FC
7F8007FC
7FC00FF8
3FC00FF8
3FE01FF8
1FF87FF0
1FFFFFE0
0FFFFFE0
07FFFFC0
03FFFF80
00FFFE00
003FF800
00030000
ENDCHAR
STARTCHAR 0037
ENCODING 55
SWIDTH 596 0
DWIDTH 37 0
BBX 31 44 2 0
BITMAP
FFFFFFFE
FFFFFFFE
FFFFFFFE
FFFFFFFE
FFFFFFFE
FFFFFFFE
FFFFFFFC
000003FC
000007F8
000007F8
00000FF0
00000FF0
00001FF0
00001FE0
00001FE0
00003FC0
00003FC0
00007F80
00007F80
0000FF80
0000FF00
0001FF00
0001FE00
0003FE00
0003FC00
0007FC00
0007F800
0007F800
000FF800
000FF000
001FF000
001FE000
003FE000
003FC000
007FC000
007FC000
00FF8000
00FF8000
01FF0000
01FF0000
01FE0000
03FE0000
03FC0000
07FC0000
ENDCHAR
STARTCHAR 0038
ENCODING 56
SWIDTH 596 0
DWIDTH 37 0
BBX 29 45 3 0
BITMAP
007FF800
03FFFE00
07FFFF00
0FFFFF80
1FFFFFC0
1FFFFFE0
3FF87FE0
3FE03FF0
7FC01FF0
7FC00FF0
7FC00FF0
7F800FF0
7F800FF0
7FC00FF0
7FC00FF0
3FC01FF0
3FE01FE0
1FF03FE0
1FFFFFC0
0FFFFF80
07FFFF00
01FFFE00
07FFFF00
0FFFFFC0
1FFFFFE0
3FF07FE0
7FC01FF0
7FC00FF0
7F800FF8
FF8007F8
FF0007F8
FF0007F8
FF0007F8
FF8007F8
FF800FF8
FFC00FF8
7FE01FF8
7FF87FF0
3FFFFFF0
3FFFFFE0
1FFFFFC0
0FFFFF80
03FFFE00
00FFF800
00030000
ENDCHAR
STARTCHAR 0039
ENCODING 57
SWIDTH 596 0
DWIDTH 37 0
BBX 29 45 3 0
BITMAP
007FF000
01FFFC00
03FFFE00
0FFFFF80
0FFFFF80
1FFFFFC0
3FF8FFE0
3FE03FE0
7FC01FF0
7FC00FF0
7F800FF0
FF800FF8
FF8007F8
FF0007F8
FF0007F8
FF0007F8
FF8007F8
FF8007F8
FF8007F8
FF8007F8
7FC00FF8
7FE01FF8
7FF03FF8
3FFFFFF8
3FFFFFF8
1FFFFFF8
0FFFFFF8
07FFF7F8
01FFE7F8
007F0FF0
00000FF0
00000FF0
00001FE0
00003FE0
00007FC0
0000FFC0
0003FF80
001FFF00
01FFFE00
01FFFC00
01FFF800
01FFF000
01FFC000
01FE0000
01000000
ENDCHAR
STARTCHAR 003A
ENCODING 58
SWIDTH 596 0
DWIDTH 37 0
BBX 12 36 13 -1
BITMAP
1F80
3FC0
7FE0
FFF0
FFF0
FFF0
FFF0
FFF0
7FE0
3FC0
1F80
0000
0000
0000
0000
0000
0000
0000
0000
0000
0000
0000
0000
0000
0000
3FC0
7FE0
7FE0
FFF0
FFF0
FFF0
FFF0
7FE0
7FE0
3FC0
0400
ENDCHAR
STARTCHAR 003B
ENCODING 59
SWIDTH 596 0
DWIDTH 37 0
BBX 13 47 13 -12
BITMAP
0FC0
1FE0
3FF0
7FF8
7FF8
7FF8
7FF8
7FF8
3FF0
1FE0
0FC0
0000
0000
0000
0000
0000
0000
0000
0000
0000
0000
0000
0000
0000
0000
0000
0000
0000
3FC0
3FC0
3FC0
3FC0
3FC0
3FC0
3FC0
3FC0
3FC0
7FC0
7F80
7F80
7F80
7F00
7F00
FE00
FC00
F800
3000
ENDCHAR
STARTCHAR 003C
ENCODING 60
SWIDTH 612 0
DWIDTH 38 0
BBX 27 28 5 4
BITMAP
00000020
000001E0
000007E0
00003FE0
0000FFE0
0007FFE0
001FFFE0
00FFFFE0
03FFFFC0
0FFFFE00
7FFFF000
FFFF8000
FFFC0000
FFE00000
FF800000
FFF00000
FFFE0000
FFFFC000
3FFFF800
0FFFFF00
01FFFFE0
007FFFE0
000FFFE0
0003FFE0
00007FE0
00001FE0
000003E0
000000E0
ENDCHAR
STARTCHAR 003D
ENCODING 61
SWIDTH 612 0
DWIDTH 38 0
BBX 29 20 5 9
BITMAP
FFFFFFF8
FFFFFFF8
FFFFFFF8
FFFFFFF8
FFFFFFF8
FFFFFFF8
FFFFFFF8
00000000
00000000
00000000
00000000
00000000
00000000
FFFFFFF8
FFFFFFF8
FFFFFFF8
FFFFFFF8
FFFFFFF8
FFFFFFF8
FFFFFFF8
ENDCHAR
STARTCHAR 003E
ENCODING 62
SWIDTH 612 0
DWIDTH 38 0
BBX 28 29 5 4
BITMAP
80000000
F0000000
FC000000
FF800000
FFE00000
FFFC0000
FFFF0000
FFFFE000
7FFFF800
07FFFF00
00FFFFC0
001FFFF0
0003FFF0
00007FF0
00001FF0
0000FFF0
0007FFF0
007FFFF0
03FFFFC0
1FFFFE00
FFFFF800
FFFFC000
FFFF0000
FFF80000
FFE00000
FF000000
FC000000
E0000000
80000000
ENDCHAR
STARTCHAR 003F
ENCODING 63
SWIDTH 596 0
DWIDTH 37 0
BBX 28 46 5 -1
BITMAP
00020000
00FFF800
03FFFE00
0FFFFF80
1FFFFFC0
3FFFFFC0
7FFFFFE0
7FF07FF0
7FC01FF0
FF801FF0
FF800FF0
FF000FF0
FF000FF0
00000FF0
00000FF0
00001FF0
00001FF0
00003FE0
00007FE0
0000FFC0
0001FF80
0003FF00
0007FE00
000FFC00
001FF800
001FF000
003FE000
003FE000
003FC000
003FC000
003FC000
003FC000
00000000
00000000
00000000
00000000
00000000
001F8000
003FC000
007FE000
007FE000
007FE000
007FE000
003FC000
001F8000
00040000
ENDCHAR
STARTCHAR 0040
ENCODING 64
SWIDTH 596 0
DWIDTH 37 0
BBX 34 44 1 0
BITMAP
0001FE0000
000FFFC000
003FFFE000
007FFFF800
01FFFFFC00
03FE03FC00
03F800FE00
07E0003F00
0FC0003F00
1F80FC1F80
1F03FF0F80
3F07FF8F80
3E0FFF8F80
3E1FFF8FC0
7C1F8F87C0
7C3F0F87C0
7C3E0F87C0
FC7E0F87C0
F87C0F87C0
F87C0F87C0
F87C0F87C0
F8FC0F07C0
F8FC0F07C0
F8FC0F07C0
F8FC0F0780
F8FC1F0F80
F8FC1F0F80
F8FC1F0F00
F87C1F1F00
FC7E3F1F00
7C7FFFFE00
7C3FFFFC00
7C1FE7F800
7E0F83F000
3E00000000
3F00000000
1F80000000
1FE0010000
0FF80F0000
07FFFF0000
03FFFF0000
01FFFF8000
007FFE0000
000FF00000
ENDCHAR
STARTCHAR 0041
ENCODING 65
SWIDTH 596 0
DWIDTH 37 0
BBX 36 44 1 0
BITMAP
0003FC0000
0003FE0000
0007FE0000
0007FE0000
0007FE0000
000FFF0000
000FFF0000
000FFF0000
001FFF8000
001FFF8000
001FFF8000
001FFFC000
003FFFC000
003FDFC000
003F9FE000
007F9FE000
007F9FE000
007F0FF000
00FF0FF000
00FF0FF000
00FF07F800
01FE07F800
01FE07F800
01FE07FC00
03FC03FC00
03FC03FC00
03FC03FE00
07FC03FE00
07FFFFFE00
07FFFFFF00
0FFFFFFF00
0FFFFFFF00
0FFFFFFF00
1FFFFFFF80
1FFFFFFF80
1FE0007F80
3FE0007FC0
3FE0007FC0
3FC0003FC0
7FC0003FE0
7FC0003FE0
7FC0001FE0
FF80001FF0
FF80001FF0
ENDCHAR
STARTCHAR 0042
ENCODING 66
SWIDTH 612 0
DWIDTH 38 0
BBX 32 44 4 0
BITMAP
FFFFF000
FFFFFE00
FFFFFF80
FFFFFFE0
FFFFFFF0
FFFFFFF8
FFFFFFF8
FF001FFC
FF0007FC
FF0007FC
FF0003FC
FF0003FC
FF0003FC
FF0003FC
FF0003FC
FF0007FC
FF000FFC
FF001FF8
FFFFFFF0
FFFFFFE0
FFFFFFC0
FFFFFF80
FFFFFFE0
FFFFFFF8
FFFFFFFC
FF000FFC
FF0003FE
FF0001FE
FF0001FF
FF0001FF
FF0000FF
FF0000FF
FF0001FF
FF0001FF
FF0001FF
FF0003FE
FF000FFE
FFFFFFFE
FFFFFFFC
FFFFFFF8
FFFFFFF0
FFFFFFE0
FFFFFF80
FFFFFC00
ENDCHAR
STARTCHAR 0043
ENCODING 67
SWIDTH 596 0
DWIDTH 37 0
BBX 32 46 2 -1
BITMAP
00008000
001FFE00
00FFFF80
01FFFFC0
03FFFFF0
07FFFFF8
0FFFFFF8
1FFC1FFC
1FF007FC
3FE003FE
3FC001FE
7FC001FF
7F8001FF
7F8001FF
FF8000FF
FF800000
FF800000
FF800000
FF000000
FF000000
FF000000
FF000000
FF000000
FF000000
FF000000
FF000000
FF000000
FF000000
FF000000
FF800000
FF800000
FF8000FF
7F8001FF
7F8001FF
7FC001FF
3FC001FE
3FE003FE
1FF007FE
1FFC1FFC
0FFFFFF8
07FFFFF8
03FFFFF0
01FFFFC0
00FFFF80
003FFE00
00018000
ENDCHAR
STARTCHAR 0044
ENCODING 68
SWIDTH 596 0
DWIDTH 37 0
BBX 30 44 4 0
BITMAP
FFFF0000
FFFFE000
FFFFF800
FFFFFE00
FFFFFF00
FFFFFF80
FFFFFFC0
FF01FFE0
FF007FE0
FF003FF0
FF001FF0
FF000FF8
FF0007F8
FF0007FC
FF0007FC
FF0007FC
FF0003FC
FF0003FC
FF0003FC
FF0003FC
FF0003FC
FF0003FC
FF0003FC
FF0003FC
FF0003FC
FF0003FC
FF0003FC
FF0003FC
FF0003FC
FF0007FC
FF0007FC
FF0007F8
FF000FF8
FF001FF0
FF001FF0
FF007FE0
FF00FFE0
FFFFFFC0
FFFFFF80
FFFFFF00
FFFFFE00
FFFFF800
FFFFE000
FFFF0000
ENDCHAR
STARTCHAR 0045
ENCODING 69
SWIDTH 596 0
DWIDTH 37 0
BBX 30 44 4 0
BITMAP
FFFFFFFC
FFFFFFFC
FFFFFFFC
FFFFFFFC
FFFFFFFC
FFFFFFFC
FFFFFFFC
FF000000
FF000000
FF000000
FF000000
FF000000
FF000000
FF000000
FF000000
FF000000
FF000000
FF000000
FFFFFFE0
FFFFFFE0
FFFFFFE0
FFFFFFE0
FFFFFFE0
FFFFFFE0
FFFFFFE0
FF000000
FF000000
FF000000
FF000000
FF000000
FF000000
FF000000
FF000000
FF000000
FF000000
FF000000
FF000000
FFFFFFFC
FFFFFFFC
FFFFFFFC
FFFFFFFC
FFFFFFFC
FFFFFFFC
FFFFFFFC
ENDCHAR
STARTCHAR 0046
ENCODING 70
SWIDTH 612 0
DWIDTH 38 0
BBX 30 44 5 0
BITMAP
FFFFFFFC
FFFFFFFC
FFFFFFFC
FFFFFFFC
FFFFFFFC
FFFFFFFC
FFFFFFFC
FF000000
FF000000
FF000000
FF000000
FF000000
FF000000
FF000000
FF000000
FF000000
FF000000
FF000000
FF000000
FFFFFFF0
FFFFFFF0
FFFFFFF0
FFFFFFF0
FFFFFFF0
FFFFFFF0
FFFFFFF0
FF000000
FF000000
FF000000
FF000000
FF000000
FF000000
FF000000
FF000000
FF000000
FF000000
FF000000
FF000000
FF000000
FF000000
FF000000
FF000000
FF000000
FF000000
ENDCHAR
STARTCHAR 0047
ENCODING 71
SWIDTH 596 0
DWIDTH 37 0
BBX 31 45 3 0
BITMAP
003FFE00
00FFFF80
01FFFFC0
03FFFFF0
07FFFFF0
0FFFFFF8
1FFC1FFC
1FF007FC
3FE003FC
3FE003FE
7FC001FE
7FC001FE
7F8001FE
FF800000
FF800000
FF800000
FF800000
FF000000
FF000000
FF000000
FF000000
FF00FFFE
FF00FFFE
FF00FFFE
FF00FFFE
FF00FFFE
FF00FFFE
FF80FFFE
FF8001FE
FF8001FE
FF8001FE
7F8001FE
7F8001FE
7FC001FE
3FC001FE
3FE001FE
3FF003FE
1FFC1FFE
0FFFFFFE
07FFFFFE
07FFFFFC
01FFFFF0
00FFFFC0
003FFF00
00018000
ENDCHAR
STARTCHAR 0048
ENCODING 72
SWIDTH 612 0
DWIDTH 38 0
BBX 29 44 4 0
BITMAP
FF0007F8
FF0007F8
FF0007F8
FF0007F8
FF0007F8
FF0007F8
FF0007F8
FF0007F8
FF0007F8
FF0007F8
FF0007F8
FF0007F8
FF0007F8
FF0007F8
FF0007F8
FF0007F8
FF0007F8
FF0007F8
FFFFFFF8
FFFFFFF8
FFFFFFF8
FFFFFFF8
FFFFFFF8
FFFFFFF8
FFFFFFF8
FF0007F8
FF0007F8
FF0007F8
FF0007F8
FF0007F8
FF0007F8
FF0007F8
FF0007F8
FF0007F8
FF0007F8
FF0007F8
FF0007F8
FF0007F8
FF0007F8
FF0007F8
FF0007F8
FF0007F8
FF0007F8
FF0007F8
ENDCHAR
STARTCHAR 0049
ENCODING 73
SWIDTH 596 0
DWIDTH 37 0
BBX 25 44 6 0
BITMAP
FFFFFF80
FFFFFF80
FFFFFF80
FFFFFF80
FFFFFF80
FFFFFF80
FFFFFF80
007F8000
007F8000
007F8000
007F8000
007F8000
007F8000
007F8000
007F8000
007F8000
007F8000
007F8000
007F8000
007F8000
007F8000
007F8000
007F8000
007F8000
007F8000
007F8000
007F8000
007F8000
007F8000
007F8000
007F8000
007F8000
007F8000
007F8000
007F8000
007F8000
007F8000
FFFFFF80
FFFFFF80
FFFFFF80
FFFFFF80
FFFFFF80
FFFFFF80
FFFFFF80
ENDCHAR
STARTCHAR 004A
ENCODING 74
SWIDTH 596 0
DWIDTH 37 0
BBX 30 45 3 -1
BITMAP
000003FC
000003FC
000003FC
000003FC
000003FC
000003FC
000003FC
000003FC
000003FC
000003FC
000003FC
000003FC
000003FC
000003FC
000003FC
000003FC
000003FC
000003FC
000003FC
000003FC
000003FC
000003FC
000003FC
000003FC
000003FC
000003FC
000003FC
000003FC
000003FC
000003FC
000003FC
FF0003FC
FF0007FC
FF8007FC
FF8007F8
7F800FF8
7FC01FF8
7FF07FF0
3FFFFFE0
1FFFFFE0
1FFFFFC0
07FFFF80
03FFFE00
00FFF800
00020000
ENDCHAR
STARTCHAR 004B
ENCODING 75
SWIDTH 596 0
DWIDTH 37 0
BBX 34 44 4 0
BITMAP
FF0001FF80
FF0003FF00
FF0007FF00
FF0007FE00
FF000FFC00
FF001FF800
FF003FF800
FF003FF000
FF007FE000
FF00FFC000
FF00FFC000
FF01FF8000
FF03FF0000
FF07FE0000
FF07FE0000
FF0FFC0000
FF1FF80000
FF3FF00000
FF3FE00000
FF7FE00000
FFFFE00000
FFFFF00000
FFFFF80000
FFFFF80000
FFFFFC0000
FFFFFE0000
FFFFFE0000
FFF3FF0000
FFE1FF0000
FFC1FF8000
FF80FFC000
FF00FFC000
FF007FE000
FF003FF000
FF003FF000
FF001FF800
FF001FF800
FF000FFC00
FF0007FE00
FF0007FE00
FF0003FF00
FF0003FF80
FF0001FF80
FF0000FFC0
ENDCHAR
STARTCHAR 004C
ENCODING 76
SWIDTH 596 0
DWIDTH 37 0
BBX 29 44 5 0
BITMAP
FF000000
FF000000
FF000000
FF000000
FF000000
FF000000
FF000000
FF000000
FF000000
FF000000
FF000000
FF000000
FF000000
FF000000
FF000000
FF000000
FF000000
FF000000
FF000000
FF000000
FF000000
FF000000
FF000000
FF000000
FF000000
FF000000
FF000000
FF000000
FF000000
FF000000
FF000000
FF000000
FF000000
FF000000
FF000000
FF000000
FF000000
FFFFFFF8
FFFFFFF8
FFFFFFF8
FFFFFFF8
FFFFFFF8
FFFFFFF8
FFFFFFF8
ENDCHAR
STARTCHAR 004D
ENCODING 77
SWIDTH 596 0
DWIDTH 37 0
BBX 30 44 4 0
BITMAP
FFE01FFC
FFE01FFC
FFE01FFC
FFF03FFC
FFF03FFC
FFF03FFC
FFF07FFC
FFF87FFC
FFF87FFC
FFF87FFC
FFF8FFFC
FFFCFFFC
FFFCFBFC
FF7CFBFC
FF7DFBFC
FF7FFBFC
FF7FF3FC
FF3FF3FC
FF3FF3FC
FF3FE3FC
FF3FE3FC
FF1FE3FC
FF1FE3FC
FF1FC3FC
FF1FC3FC
FF0FC3FC
FF0FC3FC
FF0F83FC
FF0F83FC
FF0783FC
FF0003FC
FF0003FC
FF0003FC
FF0003FC
FF0003FC
FF0003FC
FF0003FC
FF0003FC
FF0003FC
FF0003FC
FF0003FC
FF0003FC
FF0003FC
FF0003FC
ENDCHAR
STARTCHAR 004E
ENCODING 78
SWIDTH 612 0
DWIDTH 38 0
BBX 29 44 4 0
BITMAP
FF8007F8
FF8007F8
FFC007F8
FFC007F8
FFC007F8
FFE007F8
FFE007F8
FFF007F8
FFF007F8
FFF807F8
FFF807F8
FFFC07F8
FFFC07F8
FFFC07F8
FFFE07F8
FFFE07F8
FF7F07F8
FF7F07F8
FF3F87F8
FF3F87F8
FF1FC7F8
FF1FC7F8
FF1FC7F8
FF0FE7F8
FF0FE7F8
FF07F7F8
FF07F7F8
FF03FFF8
FF03FFF8
FF01FFF8
FF01FFF8
FF01FFF8
FF00FFF8
FF00FFF8
FF007FF8
FF007FF8
FF003FF8
FF003FF8
FF001FF8
FF001FF8
FF000FF8
FF000FF8
FF000FF8
FF0007F8
ENDCHAR
STARTCHAR 004F
ENCODING 79
SWIDTH 580 0
DWIDTH 36 0
BBX 32 45 2 0
BITMAP
003FFC00
00FFFF00
01FFFF80
07FFFFC0
0FFFFFE0
0FFFFFF0
1FFC3FF8
3FF00FF8
3FE007FC
3FC003FC
7FC003FE
7F8001FE
7F8001FE
FF8001FE
FF8001FF
FF8001FF
FF0001FF
FF0000FF
FF0000FF
FF0000FF
FF0000FF
FF0000FF
FF0000FF
FF0000FF
FF0000FF
FF0000FF
FF0000FF
FF0001FF
FF8001FF
FF8001FF
FF8001FF
7F8001FE
7F8003FE
7FC003FE
3FC003FC
3FE007FC
3FF00FF8
1FFC3FF8
0FFFFFF0
0FFFFFE0
07FFFFC0
03FFFF80
00FFFF00
003FFC00
00010000
ENDCHAR
STARTCHAR 0050
ENCODING 80
SWIDTH 612 0
DWIDTH 38 0
BBX 31 44 5 0
BITMAP
FFFFF000
FFFFFE00
FFFFFF80
FFFFFFC0
FFFFFFE0
FFFFFFF0
FFFFFFF8
FF001FF8
FF000FFC
FF0007FC
FF0003FE
FF0003FE
FF0003FE
FF0001FE
FF0001FE
FF0003FE
FF0003FE
FF0003FE
FF0007FC
FF000FFC
FF001FFC
FFFFFFF8
FFFFFFF0
FFFFFFE0
FFFFFFC0
FFFFFF80
FFFFFE00
FFFFF000
FF000000
FF000000
FF000000
FF000000
FF000000
FF000000
FF000000
FF000000
FF000000
FF000000
FF000000
FF000000
FF000000
FF000000
FF000000
FF000000
ENDCHAR
STARTCHAR 0051
ENCODING 81
SWIDTH 612 0
DWIDTH 38 0
BBX 34 51 3 -7
BITMAP
003FFC0000
00FFFF0000
01FFFF8000
07FFFFE000
07FFFFF000
0FFFFFF000
1FFC3FF800
3FF00FFC00
3FE007FC00
3FC003FE00
7FC003FE00
7F8001FE00
7F8001FF00
FF8001FF00
FF8000FF00
FF8000FF00
FF0000FF00
FF0000FF00
FF0000FF00
FF0000FF00
FF0000FF00
FF0000FF00
FF0000FF00
FF0000FF00
FF0000FF00
FF0000FF00
FF0000FF00
FF0000FF00
FF0000FF00
FF8000FF00
FF8000FF00
7F8001FF00
7F8001FF00
7FC001FE00
7FC003FE00
3FE007FE00
3FF00FFC00
1FFC3FF800
0FFFFFF800
0FFFFFF000
07FFFFE000
01FFFFF000
00FFFFFC00
003FFFFE00
000187FF00
000003FF80
000001FFC0
000000FFC0
0000007F00
0000001E00
0000000C00
ENDCHAR
STARTCHAR 0052
ENCODING 82
SWIDTH 596 0
DWIDTH 37 0
BBX 32 44 4 0
BITMAP
FFFFF000
FFFFFE00
FFFFFF80
FFFFFFE0
FFFFFFF0
FFFFFFF8
FFFFFFF8
FF001FFC
FF000FFC
FF0007FE
FF0003FE
FF0003FE
FF0003FE
FF0001FE
FF0001FE
FF0003FE
FF0003FE
FF0003FC
FF0007FC
FF000FFC
FF003FF8
FFFFFFF8
FFFFFFF0
FFFFFFE0
FFFFFF80
FFFFFE00
FFFFFF00
FFFFFF00
FF01FF80
FF00FF80
FF00FFC0
FF007FC0
FF003FE0
FF003FE0
FF001FF0
FF001FF0
FF000FF8
FF000FF8
FF0007FC
FF0007FC
FF0003FE
FF0003FE
FF0001FF
FF0001FF
ENDCHAR
STARTCHAR 0053
ENCODING 83
SWIDTH 596 0
DWIDTH 37 0
BBX 32 45 3 0
BITMAP
003FFE00
00FFFFC0
03FFFFE0
07FFFFF0
0FFFFFF8
1FFFFFFC
1FFC1FFE
3FF007FE
3FE001FF
3FC001FF
3FC000FF
3FC000FF
3FC000FF
3FC00000
3FE00000
3FF00000
1FFC0000
1FFF0000
0FFFE000
07FFFC00
03FFFF00
01FFFFC0
007FFFE0
003FFFF8
0007FFF8
0000FFFC
00001FFE
000007FE
000003FF
000001FF
FF0000FF
FF0000FF
FF8000FF
FF8000FF
7F8000FF
7FC001FF
7FE003FF
3FFC0FFE
1FFFFFFE
0FFFFFFC
07FFFFF8
03FFFFF0
00FFFFC0
003FFF00
0000C000
ENDCHAR
STARTCHAR 0054
ENCODING 84
SWIDTH 612 0
DWIDTH 38 0
BBX 36 44 1 0
BITMAP
FFFFFFFFF0
FFFFFFFFF0
FFFFFFFFF0
FFFFFFFFF0
FFFFFFFFF0
FFFFFFFFF0
FFFFFFFFF0
0003FC0000
0003FC0000
0003FC0000
0003FC0000
0003FC0000
0003FC0000
0003FC0000
0003FC0000
0003FC0000
0003FC0000
0003FC0000
0003FC0000
0003FC0000
0003FC0000
0003FC0000
0003FC0000
0003FC0000
0003FC0000
0003FC0000
0003FC0000
0003FC0000
0003FC0000
0003FC0000
0003FC0000
0003FC0000
0003FC0000
0003FC0000
0003FC0000
0003FC0000
0003FC0000
0003FC0000
0003FC0000
0003FC0000
0003FC0000
0003FC0000
0003FC0000
0003FC0000
ENDCHAR
STARTCHAR 0055
ENCODING 85
SWIDTH 596 0
DWIDTH 37 0
BBX 29 45 4 -1
BITMAP
FF0007F8
FF0007F8
FF0007F8
FF0007F8
FF0007F8
FF0007F8
FF0007F8
FF0007F8
FF0007F8
FF0007F8
FF0007F8
FF0007F8
FF0007F8
FF0007F8
FF0007F8
FF0007F8
FF0007F8
FF0007F8
FF0007F8
FF0007F8
FF0007F8
FF0007F8
FF0007F8
FF0007F8
FF0007F8
FF0007F8
FF0007F8
FF0007F8
FF0007F8
FF0007F8
FF0007F8
FF8007F8
FF8007F8
FF800FF8
7F800FF8
7FC01FF0
7FE03FF0
3FF87FF0
3FFFFFE0
1FFFFFC0
0FFFFF80
07FFFF00
01FFFE00
007FF800
00020000
ENDCHAR
STARTCHAR 0056
ENCODING 86
SWIDTH 596 0
DWIDTH 37 0
BBX 35 44 1 0
BITMAP
FF80003FE0
FFC0007FE0
7FC0007FE0
7FC0007FC0
7FE0007FC0
3FE000FFC0
3FE000FF80
3FE000FF80
3FF000FF80
1FF001FF00
1FF001FF00
1FF001FF00
0FF801FE00
0FF803FE00
0FF803FE00
07F803FE00
07FC03FC00
07FC07FC00
03FC07FC00
03FC07F800
03FE07F800
03FE0FF800
01FE0FF000
01FE0FF000
01FF1FF000
00FF1FF000
00FF1FE000
00FF1FE000
007FBFE000
007FBFC000
007FBFC000
007FFFC000
003FFF8000
003FFF8000
003FFF8000
001FFF8000
001FFF0000
001FFF0000
000FFF0000
000FFE0000
000FFE0000
000FFE0000
0007FC0000
0007FC0000
ENDCHAR
STARTCHAR 0057
ENCODING 87
SWIDTH 596 0
DWIDTH 37 0
BBX 35 44 1 0
BITMAP
FF03F80FE0
FF03F80FE0
FF03F81FE0
FF03F81FE0
FF03F81FE0
7F03F81FE0
7F03FC1FE0
7F07FC1FE0
7F87FC1FC0
7F87FC1FC0
7F87FC3FC0
7F87FC3FC0
7F87FC3FC0
3F87FE3FC0
3F8FFE3FC0
3F8FFE3F80
3FCFFE3F80
3FCFFE3F80
3FCFBE7F80
3FCFBE7F80
1FCFBF7F80
1FDFBF7F80
1FDFBF7F00
1FDFBF7F00
1FFF9F7F00
1FFF1F7F00
1FFF1FFF00
0FFF1FFF00
0FFF1FFF00
0FFF1FFE00
0FFF0FFE00
0FFE0FFE00
0FFE0FFE00
0FFE0FFE00
07FE0FFE00
07FE0FFE00
07FE07FC00
07FE07FC00
07FC07FC00
07FC07FC00
07FC07FC00
07FC07FC00
03FC07FC00
03FC03F800
ENDCHAR
STARTCHAR 0058
ENCODING 88
SWIDTH 596 0
DWIDTH 37 0
BBX 36 44 1 0
BITMAP
7FC0007FE0
7FE0007FE0
3FE000FFC0
3FF000FFC0
1FF001FF80
1FF801FF80
0FF803FF00
0FFC03FE00
07FC07FE00
03FE07FC00
03FE0FFC00
01FF0FF800
01FF1FF800
00FF9FF000
00FFBFE000
007FFFE000
003FFFC000
003FFFC000
001FFF8000
001FFF8000
000FFF0000
000FFE0000
000FFF0000
000FFF0000
001FFF8000
001FFF8000
003FFFC000
007FFFE000
007FFFE000
00FF9FF000
00FF9FF000
01FF0FF800
03FF0FF800
03FE07FC00
07FE07FE00
07FC03FE00
0FFC03FF00
0FF801FF00
1FF801FF80
3FF000FF80
3FF000FFC0
7FE0007FE0
7FE0007FE0
FFC0003FF0
ENDCHAR
STARTCHAR 0059
ENCODING 89
SWIDTH 596 0
DWIDTH 37 0
BBX 35 44 2 0
BITMAP
FF80003FE0
FF80007FE0
7FC0007FC0
7FC000FFC0
7FE000FF80
3FE000FF80
3FE001FF00
1FF001FF00
1FF003FE00
0FF803FE00
0FF807FC00
07FC07FC00
07FC07F800
03FC0FF800
03FE0FF000
01FE1FF000
01FF1FE000
00FF3FE000
00FFBFC000
007FBFC000
007FFF8000
003FFF8000
003FFF0000
001FFF0000
001FFE0000
000FFE0000
000FFE0000
0007FC0000
0007FC0000
0007F80000
0007F80000
0007F80000
0007F80000
0007F80000
0007F80000
0007F80000
0007F80000
0007F80000
0007F80000
0007F80000
0007F80000
0007F80000
0007F80000
0007F80000
ENDCHAR
STARTCHAR 005A
ENCODING 90
SWIDTH 596 0
DWIDTH 37 0
BBX 32 44 3 0
BITMAP
FFFFFFFF
FFFFFFFF
FFFFFFFF
FFFFFFFF
FFFFFFFF
FFFFFFFF
FFFFFFFE
000007FC
00000FFC
00000FF8
00001FF0
00003FF0
00003FE0
00007FC0
0000FFC0
0000FF80
0001FF00
0003FF00
0003FE00
0007FC00
000FFC00
000FF800
001FF000
003FF000
003FE000
007FC000
00FFC000
00FF8000
01FF0000
03FF0000
03FE0000
07FC0000
0FFC0000
0FF80000
1FF00000
3FF00000
3FE00000
7FFFFFFF
FFFFFFFF
FFFFFFFF
FFFFFFFF
FFFFFFFF
FFFFFFFF
FFFFFFFF
ENDCHAR
STARTCHAR 005B
ENCODING 91
SWIDTH 596 0
DWIDTH 37 0
BBX 14 61 12 -10
BITMAP
FFFC
FFFC
FFFC
FFFC
FFFC
FFFC
FFFC
FF00
FF00
FF00
FF00
FF00
FF00
FF00
FF00
FF00
FF00
FF00
FF00
FF00
FF00
FF00
FF00
FF00
FF00
FF00
FF00
FF00
FF00
FF00
FF00
FF00
FF00
FF00
FF00
FF00
FF00
FF00
FF00
FF00
FF00
FF00
FF00
FF00
FF00
FF00
FF00
FF00
FF00
FF00
FF00
FF00
FF00
FF00
FFFC
FFFC
FFFC
FFFC
FFFC
FFFC
FFFC
ENDCHAR
STARTCHAR 005C
ENCODING 92
SWIDTH 596 0
DWIDTH 37 0
BBX 25 48 7 -4
BITMAP
FF000000
7F800000
7F800000
7F800000
3FC00000
3FC00000
1FC00000
1FE00000
1FE00000
0FE00000
0FF00000
0FF00000
07F00000
07F80000
07F80000
03FC0000
03FC0000
03FC0000
01FE0000
01FE0000
01FE0000
00FF0000
00FF0000
00FF0000
007F8000
007F8000
007F8000
003FC000
003FC000
003FC000
001FE000
001FE000
000FE000
000FF000
000FF000
0007F000
0007F800
0007F800
0003FC00
0003FC00
0003FC00
0001FE00
0001FE00
0001FE00
0000FF00
0000FF00
0000FF00
00007F80
ENDCHAR
STARTCHAR 005D
ENCODING 93
SWIDTH 596 0
DWIDTH 37 0
BBX 13 61 12 -10
BITMAP
FFF8
FFF8
FFF8
FFF8
FFF8
FFF8
FFF8
07F8
07F8
07F8
07F8
07F8
07F8
07F8
07F8
07F8
07F8
07F8
07F8
07F8
07F8
07F8
07F8
07F8
07F8
07F8
07F8
07F8
07F8
07F8
07F8
07F8
07F8
07F8
07F8
07F8
07F8
07F8
07F8
07F8
07F8
07F8
07F8
07F8
07F8
07F8
07F8
07F8
07F8
07F8
07F8
07F8
07F8
07F8
FFF8
FFF8
FFF8
FFF8
FFF8
FFF8
FFF8
ENDCHAR
STARTCHAR 005E
ENCODING 94
SWIDTH 596 0
DWIDTH 37 0
BBX 25 23 7 21
BITMAP
007E0000
00FF0000
00FF0000
00FF8000
01FF8000
01FFC000
03FFC000
03FFC000
03FFE000
07E7E000
07E7F000
0FE3F000
0FC3F000
1FC3F800
1FC1F800
1F81FC00
3F81FC00
3F00FE00
7F00FE00
7F007E00
FE007F00
FE007F00
FC003F80
ENDCHAR
STARTCHAR 005F
ENCODING 95
SWIDTH 596 0
DWIDTH 37 0
BBX 28 7 4 -6
BITMAP
FFFFFFF0
FFFFFFF0
FFFFFFF0
FFFFFFF0
FFFFFFF0
FFFFFFF0
FFFFFFF0
ENDCHAR
STARTCHAR 0060
ENCODING 96
SWIDTH 596 0
DWIDTH 37 0
BBX 14 8 13 36
BITMAP
FF80
7FC0
3FC0
1FE0
0FF0
07F0
03F8
01FC
ENDCHAR
STARTCHAR 0061
ENCODING 97
SWIDTH 596 0
DWIDTH 37 0
BBX 30 34 3 -1
BITMAP
00020000
00FFF800
03FFFE00
0FFFFF80
1FFFFFC0
3FFFFFE0
3FFFFFE0
7FF0FFF0
7FC01FF0
7F800FF0
7F800FF0
00000FF0
00000FF0
003FFFF0
03FFFFF0
0FFFFFF0
1FFFFFF0
3FFFFFF0
7FF00FF0
7FC00FF0
FF800FF0
FF800FF0
FF000FF0
FF000FF0
FF801FF0
FF803FF0
FFE0FFF0
7FFFFFF0
7FFFFFF8
3FFFFFF8
1FFFFFF8
0FFFC7F8
03FF07FC
00300000
ENDCHAR
STARTCHAR 0062
ENCODING 98
SWIDTH 596 0
DWIDTH 37 0
BBX 29 47 4 -1
BITMAP
FF000000
FF000000
FF000000
FF000000
FF000000
FF000000
FF000000
FF000000
FF000000
FF000000
FF000000
FF000000
FF000000
FF000000
FF0FFC00
FF3FFF00
FF7FFF80
FFFFFFC0
FFFFFFE0
FFFFFFE0
FFF07FF0
FFC03FF0
FF801FF0
FF800FF8
FF000FF8
FF0007F8
FF0007F8
FF0007F8
FF0007F8
FF0007F8
FF0007F8
FF0007F8
FF0007F8
FF0007F8
FF0007F8
FF000FF8
FF800FF8
FF801FF0
FFC03FF0
FFF07FF0
FFFFFFE0
FFFFFFE0
FFFFFFC0
FF7FFF80
FF3FFF00
FF0FFC00
00008000
ENDCHAR
STARTCHAR 0063
ENCODING 99
SWIDTH 612 0
DWIDTH 38 0
BBX 29 34 4 -1
BITMAP
00010000
007FF800
01FFFE00
03FFFF80
07FFFFC0
0FFFFFE0
1FFFFFF0
3FF87FF0
3FE01FF8
7FC00FF8
7FC00FF8
7F8007F8
FF8007F8
FF800000
FF800000
FF000000
FF000000
FF000000
FF000000
FF800000
FF800000
FF800000
7F8007F8
7FC007F8
7FC00FF8
3FE01FF8
3FF87FF0
1FFFFFF0
0FFFFFE0
07FFFFC0
03FFFF80
01FFFE00
007FF800
00010000
ENDCHAR
STARTCHAR 0064
ENCODING 100
SWIDTH 596 0
DWIDTH 37 0
BBX 29 47 3 -1
BITMAP
000007F8
000007F8
000007F8
000007F8
000007F8
000007F8
000007F8
000007F8
000007F8
000007F8
000007F8
000007F8
000007F8
000007F8
00FFC7F8
03FFE7F8
07FFFFF8
0FFFFFF8
1FFFFFF8
3FFFFFF8
3FF87FF8
7FE01FF8
7FC00FF8
7FC007F8
FF8007F8
FF8007F8
FF8007F8
FF8007F8
FF0007F8
FF0007F8
FF0007F8
FF0007F8
FF8007F8
FF8007F8
FF8007F8
7F8007F8
7FC007F8
7FC00FF8
7FE01FF8
3FF87FF8
3FFFFFF8
1FFFFFF8
0FFFFFF8
07FFFBF8
03FFE3F8
00FFC3F8
00080000
ENDCHAR
STARTCHAR 0065
ENCODING 101
SWIDTH 596 0
DWIDTH 37 0
BBX 31 34 3 -1
BITMAP
00008000
001FFC00
00FFFF00
01FFFFC0
03FFFFE0
07FFFFF0
0FFFFFF8
1FFC1FF8
3FF007FC
3FE003FC
3FC003FE
7FC001FE
7FC001FE
7F8001FE
7FFFFFFE
7FFFFFFE
FFFFFFFE
FFFFFFFE
FFFFFFFE
7FFFFFFE
7F800000
7FC00000
7FC00000
7FE00020
3FE00070
3FF800F8
1FFE07FC
0FFFFFFE
07FFFFFC
03FFFFF8
01FFFFF0
007FFFC0
001FFF00
0000C000
ENDCHAR
STARTCHAR 0066
ENCODING 102
SWIDTH 612 0
DWIDTH 38 0
BBX 31 47 4 0
BITMAP
00003FF8
0001FFFE
0003FFFE
000FFFFE
001FFFFE
001FFFFE
003FFFFE
003FF000
007FE000
007FC000
007F8000
007F8000
007F8000
007F8000
007F8000
FFFFFFF8
FFFFFFF8
FFFFFFF8
FFFFFFF8
FFFFFFF8
FFFFFFF8
FFFFFFF8
007F8000
007F8000
007F8000
007F8000
007F8000
007F8000
007F8000
007F8000
007F8000
007F8000
007F8000
007F8000
007F8000
007F8000
007F8000
007F8000
007F8000
007F8000
007F8000
007F8000
007F8000
007F8000
007F8000
007F8000
007F8000
ENDCHAR
STARTCHAR 0067
ENCODING 103
SWIDTH 596 0
DWIDTH 37 0
BBX 30 45 3 -12
BITMAP
00040000
00FFE3FC
03FFF3FC
07FFFBFC
0FFFFFFC
1FFFFFFC
1FFFFFFC
3FF83FFC
3FF00FFC
7FE007FC
7FC003FC
7F8003FC
FF8003FC
FF8003FC
FF8003FC
FF0003FC
FF0003FC
FF0003FC
FF0003FC
FF8003FC
FF8003FC
FF8003FC
7F8003FC
7FC003FC
7FC007FC
3FE00FFC
3FF83FFC
1FFFFFFC
1FFFFFFC
0FFFFFFC
07FFFBFC
03FFF3FC
00FFC3FC
000407FC
000007FC
040007F8
06000FF8
0F803FF8
1FFFFFF0
3FFFFFF0
1FFFFFE0
0FFFFFC0
07FFFF00
01FFFC00
003FE000
ENDCHAR
STARTCHAR 0068
ENCODING 104
SWIDTH 596 0
DWIDTH 37 0
BBX 29 46 4 0
BITMAP
FF000000
FF000000
FF000000
FF000000
FF000000
FF000000
FF000000
FF000000
FF000000
FF000000
FF000000
FF000000
FF000000
FF000000
FF07FE00
FF1FFF80
FF3FFFC0
FF7FFFE0
FFFFFFF0
FFFFFFF0
FFF07FF0
FFC01FF8
FF800FF8
FF000FF8
FF0007F8
FF0007F8
FF0007F8
FF0007F8
FF0007F8
FF0007F8
FF0007F8
FF0007F8
FF0007F8
FF0007F8
FF0007F8
FF0007F8
FF0007F8
FF0007F8
FF0007F8
FF0007F8
FF0007F8
FF0007F8
FF0007F8
FF0007F8
FF0007F8
FF0007F8
ENDCHAR
STARTCHAR 0069
ENCODING 105
SWIDTH 612 0
DWIDTH 38 0
BBX 27 46 7 0
BITMAP
000F0000
003FC000
007FE000
007FE000
007FE000
007FE000
007FE000
003FC000
001F8000
00000000
00000000
00000000
00000000
00000000
FFFFC000
FFFFC000
FFFFC000
FFFFC000
FFFFC000
FFFFC000
FFFFC000
003FC000
003FC000
003FC000
003FC000
003FC000
003FC000
003FC000
003FC000
003FC000
003FC000
003FC000
003FC000
003FC000
003FC000
003FC000
003FC000
003FC000
003FC000
FFFFFFE0
FFFFFFE0
FFFFFFE0
FFFFFFE0
FFFFFFE0
FFFFFFE0
FFFFFFE0
ENDCHAR
STARTCHAR 006A
ENCODING 106
SWIDTH 612 0
DWIDTH 38 0
BBX 20 59 7 -13
BITMAP
000F80
001FE0
003FF0
003FF0
003FF0
003FF0
003FF0
001FE0
0007C0
000000
000000
000000
000000
000000
3FFFE0
3FFFE0
3FFFE0
3FFFE0
3FFFE0
3FFFE0
3FFFE0
001FE0
001FE0
001FE0
001FE0
001FE0
001FE0
001FE0
001FE0
001FE0
001FE0
001FE0
001FE0
001FE0
001FE0
001FE0
001FE0
001FE0
001FE0
001FE0
001FE0
001FE0
001FE0
001FE0
001FE0
001FE0
001FE0
003FE0
003FE0
003FE0
007FE0
01FFC0
FFFFC0
FFFF80
FFFF00
FFFF00
FFFC00
FFF000
1C0000
ENDCHAR
STARTCHAR 006B
ENCODING 107
SWIDTH 596 0
DWIDTH 37 0
BBX 31 46 4 0
BITMAP
FF000000
FF000000
FF000000
FF000000
FF000000
FF000000
FF000000
FF000000
FF000000
FF000000
FF000000
FF000000
FF000000
FF000000
FF000FFC
FF001FF8
FF003FF0
FF007FE0
FF00FFC0
FF01FF80
FF03FF00
FF07FE00
FF0FFC00
FF1FF800
FF3FF000
FF7FE000
FFFFE000
FFFFC000
FFFFE000
FFFFE000
FFFFF000
FFFFF800
FFFFFC00
FFE7FC00
FFC7FE00
FF83FF00
FF01FF80
FF00FF80
FF00FFC0
FF007FE0
FF003FF0
FF003FF0
FF001FF8
FF000FFC
FF000FFE
FF0007FE
ENDCHAR
STARTCHAR 006C
ENCODING 108
SWIDTH 596 0
DWIDTH 37 0
BBX 28 46 6 0
BITMAP
FFFFC000
FFFFC000
FFFFC000
FFFFC000
FFFFC000
FFFFC000
FFFFC000
003FC000
003FC000
003FC000
003FC000
003FC000
003FC000
003FC000
003FC000
003FC000
003FC000
003FC000
003FC000
003FC000
003FC000
003FC000
003FC000
003FC000
003FC000
003FC000
003FC000
003FC000
003FC000
003FC000
003FC000
003FC000
003FC000
003FC000
003FC000
003FC000
003FC000
003FC000
003FC000
FFFFFFF0
FFFFFFF0
FFFFFFF0
FFFFFFF0
FFFFFFF0
FFFFFFF0
FFFFFFF0
ENDCHAR
STARTCHAR 006D
ENCODING 109
SWIDTH 612 0
DWIDTH 38 0
BBX 33 33 2 0
BITMAP
0002000000
FF3FC3FC00
FF7FEFFE00
FFFFEFFE00
FFFFFFFF00
FFFFFFFF00
FFFFFFFF80
FF8FF8FF80
FF07F07F80
FF07F07F80
FF07F07F80
FF07F07F80
FF07F07F80
FF07F07F80
FF07F07F80
FF07F07F80
FF07F07F80
FF07F07F80
FF07F07F80
FF07F07F80
FF07F07F80
FF07F07F80
FF07F07F80
FF07F07F80
FF07F07F80
FF07F07F80
FF07F07F80
FF07F07F80
FF07F07F80
FF07F07F80
FF07F07F80
FF07F07F80
FF07F07F80
ENDCHAR
STARTCHAR 006E
ENCODING 110
SWIDTH 596 0
DWIDTH 37 0
BBX 29 32 4 1
BITMAP
FF07FE00
FF1FFF80
FF3FFFC0
FF7FFFE0
FFFFFFF0
FFFFFFF0
FFF03FF8
FFC01FF8
FF800FF8
FF0007F8
FF0007F8
FF0007F8
FF0007F8
FF0007F8
FF0007F8
FF0007F8
FF0007F8
FF0007F8
FF0007F8
FF0007F8
FF0007F8
FF0007F8
FF0007F8
FF0007F8
FF0007F8
FF0007F8
FF0007F8
FF0007F8
FF0007F8
FF0007F8
FF0007F8
FF0007F8
ENDCHAR
STARTCHAR 006F
ENCODING 111
SWIDTH 596 0
DWIDTH 37 0
BBX 31 34 3 -1
BITMAP
00010000
007FFC00
01FFFF00
03FFFF80
07FFFFC0
0FFFFFE0
1FFFFFF0
3FF83FF8
3FE00FF8
7FC007FC
7FC007FC
7F8003FC
FF8003FE
FF8003FE
FF8003FE
FF0001FE
FF0001FE
FF0001FE
FF0001FE
FF8003FE
FF8003FE
FF8003FE
7F8003FC
7FC007FC
7FC007FC
3FE00FF8
3FF83FF8
1FFFFFF0
0FFFFFE0
07FFFFC0
03FFFF80
01FFFF00
007FFC00
00010000
ENDCHAR
STARTCHAR 0070
ENCODING 112
SWIDTH 596 0
DWIDTH 37 0
BBX 29 44 4 -11
BITMAP
FF0FFC00
FF3FFE00
FF7FFF80
FFFFFFC0
FFFFFFE0
FFFFFFE0
FFF0FFF0
FFC03FF0
FF801FF0
FF000FF8
FF000FF8
FF000FF8
FF0007F8
FF0007F8
FF0007F8
FF0007F8
FF0007F8
FF0007F8
FF0007F8
FF0007F8
FF000FF8
FF000FF8
FF000FF8
FF801FF0
FFC03FF0
FFF0FFF0
FFFFFFE0
FFFFFFC0
FFFFFFC0
FF7FFF80
FF3FFE00
FF0FFC00
FF008000
FF000000
FF000000
FF000000
FF000000
FF000000
FF000000
FF000000
FF000000
FF000000
FF000000
FF000000
ENDCHAR
STARTCHAR 0071
ENCODING 113
SWIDTH 596 0
DWIDTH 37 0
BBX 29 44 3 -11
BITMAP
00FFC3F8
03FFF3F8
07FFFBF8
0FFFFFF8
1FFFFFF8
3FFFFFF8
3FF83FF8
7FE01FF8
7FC00FF8
7FC007F8
FF8007F8
FF8007F8
FF8007F8
FF8007F8
FF0007F8
FF0007F8
FF0007F8
FF0007F8
FF8007F8
FF8007F8
FF8007F8
7F8007F8
7FC007F8
7FC00FF8
7FE01FF8
3FF87FF8
3FFFFFF8
1FFFFFF8
0FFFFFF8
07FFFFF8
03FFF7F8
00FFC7F8
000807F8
000007F8
000007F8
000007F8
000007F8
000007F8
000007F8
000007F8
000007F8
000007F8
000007F8
000007F8
ENDCHAR
STARTCHAR 0072
ENCODING 114
SWIDTH 612 0
DWIDTH 38 0
BBX 25 33 9 0
BITMAP
00001000
FF03FF80
FF0FFF80
FF1FFF80
FF3FFF80
FF7FFF80
FFFFFF00
FFFFFF00
FFFFFF00
FFF00000
FFE00000
FFC00000
FF800000
FF800000
FF000000
FF000000
FF000000
FF000000
FF000000
FF000000
FF000000
FF000000
FF000000
FF000000
FF000000
FF000000
FF000000
FF000000
FF000000
FF000000
FF000000
FF000000
FF000000
ENDCHAR
STARTCHAR 0073
ENCODING 115
SWIDTH 612 0
DWIDTH 38 0
BBX 30 34 4 -1
BITMAP
00010000
007FFC00
03FFFF80
07FFFFC0
0FFFFFE0
1FFFFFF0
3FFFFFF8
7FE00FF8
7FC007FC
7F8007FC
7F8003FC
7FC00000
7FE00000
3FFC0000
3FFFE000
1FFFFE00
0FFFFF80
03FFFFE0
00FFFFF0
001FFFF8
0000FFF8
00000FFC
000007FC
FF0003FC
FF8003FC
FFC007FC
7FE00FFC
7FFFFFF8
3FFFFFF0
1FFFFFF0
0FFFFFC0
03FFFF80
00FFFC00
00030000
ENDCHAR
STARTCHAR 0074
ENCODING 116
SWIDTH 596 0
DWIDTH 37 0
BBX 29 42 4 -1
BITMAP
00FF0000
00FF0000
00FF0000
00FF0000
00FF0000
00FF0000
00FF0000
00FF0000
00FF0000
FFFFFFF0
FFFFFFF0
FFFFFFF0
FFFFFFF0
FFFFFFF0
FFFFFFF0
FFFFFFF0
00FF0000
00FF0000
00FF0000
00FF0000
00FF0000
00FF0000
00FF0000
00FF0000
00FF0000
00FF0000
00FF0000
00FF0000
00FF0000
00FF0000
00FF0000
00FF0000
00FF8000
00FF8000
00FFE078
007FFFF8
007FFFF8
003FFFF8
001FFFF8
000FFFF8
0003FFE0
00003000
ENDCHAR
STARTCHAR 0075
ENCODING 117
SWIDTH 612 0
DWIDTH 38 0
BBX 29 33 5 -1
BITMAP
FF0007F8
FF0007F8
FF0007F8
FF0007F8
FF0007F8
FF0007F8
FF0007F8
FF0007F8
FF0007F8
FF0007F8
FF0007F8
FF0007F8
FF0007F8
FF0007F8
FF0007F8
FF0007F8
FF0007F8
FF0007F8
FF0007F8
FF0007F8
FF0007F8
FF8007F8
FF800FF8
FF800FF8
7FC01FF8
7FF07FF8
7FFFFFF8
3FFFFFF8
1FFFF7F8
1FFFE7F8
07FFC7F8
03FF07F8
00100000
ENDCHAR
STARTCHAR 0076
ENCODING 118
SWIDTH 596 0
DWIDTH 37 0
BBX 33 32 2 0
BITMAP
FF8000FF80
7F8000FF00
7FC001FF00
3FC001FF00
3FC001FE00
3FE003FE00
1FE003FE00
1FE003FC00
1FF003FC00
0FF007F800
0FF007F800
07F807F800
07F80FF000
07F80FF000
03FC0FE000
03FC1FE000
01FC1FE000
01FE1FC000
01FE3FC000
00FE3F8000
00FF3F8000
007F7F8000
007F7F0000
007F7F0000
003FFF0000
003FFE0000
001FFE0000
001FFC0000
001FFC0000
000FFC0000
000FF80000
000FF80000
ENDCHAR
STARTCHAR 0077
ENCODING 119
SWIDTH 596 0
DWIDTH 37 0
BBX 35 32 1 0
BITMAP
FF03F01FE0
FF03F01FE0
FF03F81FC0
FF03F81FC0
7F03F83FC0
7F07F83FC0
7F07F83FC0
7F07FC3F80
7F87FC3F80
3F87FC3F80
3F87FC3F80
3F8FFC3F80
3F8FFC7F00
3F8FBE7F00
3F8FBE7F00
1FCF3E7F00
1FDF3E7F00
1FDF3E7F00
1FDF1F7E00
1FDF1F7E00
0FDE1FFE00
0FFE1FFE00
0FFE0FFE00
0FFE0FFC00
0FFE0FFC00
0FFC0FFC00
07FC0FFC00
07FC07FC00
07FC07FC00
07FC07F800
07F807F800
03F807F800
ENDCHAR
STARTCHAR 0078
ENCODING 120
SWIDTH 596 0
DWIDTH 37 0
BBX 33 32 3 0
BITMAP
FFC001FF00
7FC003FE00
3FE003FE00
1FF007FC00
1FF00FF800
0FF80FF800
07FC1FF000
07FC3FE000
03FE7FE000
01FF7FC000
01FFFF8000
00FFFF0000
007FFF0000
003FFE0000
003FFC0000
001FFC0000
001FFC0000
003FFE0000
007FFE0000
00FFFF0000
00FFFF8000
01FFFFC000
03FF7FC000
03FE3FE000
07FC3FF000
0FF81FF000
0FF80FF800
1FF007FC00
3FE007FC00
7FE003FE00
7FC001FF00
FF8001FF80
ENDCHAR
STARTCHAR 0079
ENCODING 121
SWIDTH 596 0
DWIDTH 37 0
BBX 35 45 2 -13
BITMAP
FF80003FE0
FF80007FE0
7FC0007FC0
7FC000FFC0
3FE000FF80
3FE000FF80
1FE001FF00
1FF001FF00
1FF003FE00
0FF803FE00
0FF803FC00
07F807FC00
07FC07FC00
03FC0FF800
03FE0FF800
01FE0FF000
01FE1FF000
00FF1FE000
00FF3FE000
00FFBFC000
007FBFC000
007FFF8000
003FFF8000
003FFF0000
001FFF0000
001FFF0000
000FFE0000
000FFE0000
0007FC0000
0007FC0000
0007F80000
0007F80000
000FF00000
000FF00000
001FE00000
003FE00000
003FE00000
00FFC00000
0FFFC00000
0FFF800000
0FFF000000
0FFE000000
0FFC000000
1FF0000000
0100000000
ENDCHAR
STARTCHAR 007A
ENCODING 122
SWIDTH 612 0
DWIDTH 38 0
BBX 31 32 4 0
BITMAP
FFFFFFFC
FFFFFFFC
FFFFFFFC
FFFFFFFC
FFFFFFFC
FFFFFFFC
FFFFFFF8
00007FF0
00007FE0
0000FFC0
0001FF80
0003FF00
0007FE00
000FFC00
001FF800
003FF000
007FE000
00FFC000
01FFC000
01FF8000
03FF0000
07FE0000
0FFC0000
1FF80000
3FF00000
7FFFFFFE
FFFFFFFE
FFFFFFFE
FFFFFFFE
FFFFFFFE
FFFFFFFE
FFFFFFFE
ENDCHAR
STARTCHAR 007B
ENCODING 123
SWIDTH 612 0
DWIDTH 38 0
BBX 21 59 9 -11
BITMAP
0000F0
0003F0
0007F0
000FF8
001FF8
003FE0
003F80
007F80
007F00
007F00
00FF00
00FF00
00FF00
00FF00
00FF00
00FF00
00FF00
00FF00
00FF00
00FF00
00FF00
00FF00
00FF00
01FE00
01FE00
03FC00
0FFC00
FFF800
FFE000
FFC000
FFC000
FFE000
FFF800
0FFC00
03FC00
01FE00
01FE00
00FF00
00FF00
00FF00
00FF00
00FF00
00FF00
00FF00
00FF00
00FF00
00FF00
00FF00
00FF00
007F00
007F80
007F80
003FC0
003FE0
001FF8
000FF8
0007F0
0003F0
0000F0
ENDCHAR
STARTCHAR 007C
ENCODING 124
SWIDTH 596 0
DWIDTH 37 0
BBX 5 56 16 -12
BITMAP
F8
F8
F8
F8
F8
F8
F8
F8
F8
F8
F8
F8
F8
F8
F8
F8
F8
F8
F8
F8
F8
F8
F8
F8
F8
F8
F8
F8
F8
F8
F8
F8
F8
F8
F8
F8
F8
F8
F8
F8
F8
F8
F8
F8
F8
F8
F8
F8
F8
F8
F8
F8
F8
F8
F8
F8
ENDCHAR
STARTCHAR 007D
ENCODING 125
SWIDTH 612 0
DWIDTH 38 0
BBX 21 59 10 -11
BITMAP
780000
7E0000
7F0000
FF8000
FFC000
1FE000
0FE000
0FF000
07F000
07F000
07F800
07F800
07F800
07F800
07F800
07F800
07F800
07F800
07F800
07F800
07F800
07F800
07F800
03FC00
03FC00
01FE00
01FF80
00FFF8
007FF8
001FF8
001FF8
007FF8
00FFF8
01FF80
03FE00
03FC00
03FC00
07F800
07F800
07F800
07F800
07F800
07F800
07F800
07F800
07F800
07F800
07F800
07F800
07F000
0FF000
0FF000
1FE000
3FE000
FFC000
FF8000
7F0000
7E0000
780000
ENDCHAR
STARTCHAR 007E
ENCODING 126
SWIDTH 612 0
DWIDTH 38 0
BBX 34 13 1 11
BITMAP
03F8000000
0FFE000000
1FFF800FC0
3FFFC00FC0
7FFFE01FC0
7FFFF83FC0
7FFFFFFF80
FE07FFFF80
FC03FFFF00
F801FFFF00
F8007FFE00
00003FFC00
000007F000
ENDCHAR
STARTCHAR 00A0
ENCODING 160
SWIDTH 596 0
DWIDTH 37 0
BBX 0 0 0 0
BITMAP
ENDCHAR
STARTCHAR 00A1
ENCODING 161
SWIDTH 612 0
DWIDTH 38 0
BBX 10 44 15 -11
BITMAP
3F00
7F80
FFC0
FFC0
FFC0
FFC0
7F80
3F00
0800
0000
0000
0000
0000
0000
0000
0000
7F80
7F80
7F80
7F80
7F80
7F80
7F80
7F80
7F80
7F80
7F80
7F80
7F80
7F80
7F80
7F80
7F80
7F80
7F80
7F80
7F80
7F80
7F80
7F80
7F80
7F80
7F80
7F80
ENDCHAR
STARTCHAR 00A2
ENCODING 162
SWIDTH 596 0
DWIDTH 37 0
BBX 29 47 4 -7
BITMAP
000FC000
000FC000
000FC000
000FC000
000FC000
000FC000
000FC000
007FF800
01FFFF00
03FFFF80
0FFFFFC0
0FFFFFE0
1FFFFFF0
3FF07FF0
3FE01FF8
7FC00FF8
7FC00FF8
7F8007F8
FF8007F8
FF800000
FF800000
FF000000
FF000000
FF000000
FF000000
FF000000
FF800000
FF800000
FF800000
7F8007F8
7FC007F8
7FC00FF8
3FE01FF8
3FF03FF0
1FFFFFF0
0FFFFFE0
07FFFFC0
03FFFF80
01FFFE00
007FF800
000FC000
000FC000
000FC000
000FC000
000FC000
000FC000
000FC000
ENDCHAR
STARTCHAR 00A3
ENCODING 163
SWIDTH 596 0
DWIDTH 37 0
BBX 32 45 3 0
BITMAP
00002000
0007FF00
003FFFE0
007FFFF0
00FFFFF8
01FFFFFC
03FFFFFC
03FF0FFE
07FE03FE
07FC01FF
07FC01FF
07F801FF
07F800FF
07F80000
07F80000
07F80000
07F80000
07F80000
07F80000
07F80000
07F80000
FFFFFE00
FFFFFE00
FFFFFE00
FFFFFE00
FFFFFE00
FFFFFE00
FFFFFE00
07F80000
07F80000
07F80000
07F80000
07F80000
07F80000
07F80000
07F80000
0FF80000
0FF00000
FFFFFFFF
FFFFFFFF
FFFFFFFF
FFFFFFFF
FFFFFFFF
FFFFFFFF
FFFFFFFF
ENDCHAR
STARTCHAR 00A4
ENCODING 164
SWIDTH 612 0
DWIDTH 38 0
BBX 32 33 3 -1
BITMAP
08000010
1C0FF038
3E3FFC7C
7FFFFFFE
FFFFFFFF
7FFFFFFE
3FFFFFFC
1FF81FF8
1FE007F8
1FC003F8
3F8001FC
3F0000FC
3F0000FC
7E00007E
7E00007E
7E00007E
7E00007E
7E00007E
7E00007E
7E00007E
7F0000FE
3F0000FC
3F8001FC
1F8003F8
1FC007F8
1FF00FFC
3FFFFFFE
7FFFFFFF
FFFFFFFF
7FFFFFFE
3E7FFE3C
1C1FF818
08018010
ENDCHAR
STARTCHAR 00A5
ENCODING 165
SWIDTH 596 0
DWIDTH 37 0
BBX 36 44 1 0
BITMAP
FF80003FF0
FFC0003FE0
7FC0003FE0
7FE0007FC0
3FE0007FC0
3FF000FF80
1FF000FF80
0FF801FF00
0FF801FF00
07F803FE00
07FC03FE00
03FC07FC00
03FE07F800
01FE0FF800
01FF0FF000
00FF0FF000
00FF9FE000
007F9FE000
007FFFC000
003FFFC000
003FFF8000
001FFF8000
1FFFFFFF00
1FFFFFFF00
1FFFFFFF00
1FFFFFFF00
1FFFFFFF00
0003FC0000
0003FC0000
0003FC0000
1FFFFFFF00
1FFFFFFF00
1FFFFFFF00
1FFFFFFF00
1FFFFFFF00
0003FC0000
0003FC0000
0003FC0000
0003FC0000
0003FC0000
0003FC0000
0003FC0000
0003FC0000
0003FC0000
ENDCHAR
STARTCHAR 00A6
ENCODING 166
SWIDTH 612 0
DWIDTH 38 0
BBX 8 52 15 -8
BITMAP
FF
FF
FF
FF
FF
FF
FF
FF
FF
FF
FF
FF
FF
FF
FF
FF
FF
FF
FF
FF
FF
FF
FF
00
00
00
00
00
FF
FF
FF
FF
FF
FF
FF
FF
FF
FF
FF
FF
FF
FF
FF
FF
FF
FF
FF
FF
FF
FF
FF
FF
ENDCHAR
STARTCHAR 00A7
ENCODING 167
SWIDTH 612 0
DWIDTH 38 0
BBX 33 59 3 -14
BITMAP
0000800000
007FFE0000
01FFFFC000
07FFFFE000
0FFFFFF800
1FFFFFFC00
3FFFFFFC00
3FFC1FFE00
3FE007FE00
7FC003FE00
7FC001FF00
7F8001FF00
7F8000FF00
7FC0000000
7FC0000000
7FF0000000
3FFC000000
3FFF800000
1FFFF80000
0FFFFF0000
07FFFFC000
0FFFFFF000
3FFFFFF800
3FFFFFFC00
7FC3FFFE00
7F807FFF00
FF800FFF00
FF0003FF80
FF0001FF80
FF8000FF80
FF8000FF80
FFC0007F80
7FE000FF80
7FFC00FF80
3FFF81FF00
3FFFFBFF00
1FFFFFFE00
0FFFFFFC00
03FFFFF800
00FFFFF800
001FFFFC00
0003FFFC00
00007FFE00
00000FFE00
000003FF00
000001FF00
FF0001FF00
FF8000FF00
FF8001FF00
FF8001FF00
7FC003FF00
7FF80FFE00
3FFFFFFE00
3FFFFFFC00
1FFFFFF800
0FFFFFF000
03FFFFE000
00FFFF0000
0007F00000
ENDCHAR
STARTCHAR 00A8
ENCODING 168
SWIDTH 596 0
DWIDTH 37 0
BBX 23 7 8 37
BITMAP
3C00F8
7F01FC
FF01FE
FF01FE
FF01FE
7F01FC
3C00F8
ENDCHAR
STARTCHAR 00A9
ENCODING 169
SWIDTH 596 0
DWIDTH 37 0
BBX 32 34 3 -1
BITMAP
0007E000
003FFC00
00FFFF00
03F80FC0
07C003E0
0F0001F0
1E000078
1C07F038
381FFC1C
383FFE1C
707C3E0E
70781F0E
70F80F0E
E0F00F07
E0F00007
E0F00007
E0F00007
E0F00007
E0F00007
E0F00007
E0F00F07
60F80F0E
70781F0E
707C3E0E
383FFE1C
381FFC1C
1C07F038
1E000078
0F0000F0
07C003E0
03F00FC0
00FFFF00
007FFE00
000FF000
ENDCHAR
STARTCHAR 00AA
ENCODING 170
SWIDTH 596 0
DWIDTH 37 0
BBX 20 24 8 20
BITMAP
01FC00
07FF00
1FFF80
3FFFC0
3FDFE0
7E07E0
7E03E0
0003E0
0003E0
0003E0
07FFE0
1FFFE0
3FFFE0
7FFFE0
FE03E0
FC03E0
F803E0
F807E0
FC0FE0
FE3FE0
7FFFE0
7FFFF0
3FF3F0
0FC1F0
ENDCHAR
STARTCHAR 00AB
ENCODING 171
SWIDTH 596 0
DWIDTH 37 0
BBX 25 24 6 3
BITMAP
00F81F80
01F81F00
03F03F00
03F07E00
07E0FC00
0FC0FC00
1FC1F800
1F83F800
3F87F000
7F07E000
7E0FE000
FE1FC000
FE1FC000
7E0FE000
7F07E000
3F87F000
1F83F800
1FC1F800
0FC0FC00
07E0FC00
03F07E00
03F03F00
01F81F00
00F81F80
ENDCHAR
STARTCHAR 00AC
ENCODING 172
SWIDTH 596 0
DWIDTH 37 0
BBX 25 13 6 11
BITMAP
FFFFFF80
FFFFFF80
FFFFFF80
FFFFFF80
FFFFFF80
00001F80
00001F80
00001F80
00001F80
00001F80
00001F80
00001F80
00001F80
ENDCHAR
STARTCHAR 00AD
ENCODING 173
SWIDTH 596 0
DWIDTH 37 0
BBX 25 7 9 16
BITMAP
FFFFFF80
FFFFFF80
FFFFFF80
FFFFFF80
FFFFFF80
FFFFFF80
FFFFFF80
ENDCHAR
STARTCHAR 00AE
ENCODING 174
SWIDTH 596 0
DWIDTH 37 0
BBX 32 34 3 -1
BITMAP
0007E000
003FFC00
00FFFF00
03F80FC0
07C003E0
0F0000F0
1E000078
1C3FE038
3C3FF81C
383FFC1C
70381E0E
70380E0E
70380E0E
E0380E07
E0380E07
E0383C07
E03FFC07
E03FF007
E03FF007
E0387007
E0387807
6038380E
7038380E
70381C0E
38381C1C
38380E1C
1C000038
1E000078
0F0000F0
07C003E0
03F00FC0
00FFFF00
007FFE00
000FF000
ENDCHAR
STARTCHAR 00AF
ENCODING 175
SWIDTH 596 0
DWIDTH 37 0
BBX 22 5 8 39
BITMAP
FFFFFC
FFFFFC
FFFFFC
FFFFFC
FFFFFC
ENDCHAR
STARTCHAR 00B0
ENCODING 176
SWIDTH 596 0
DWIDTH 37 0
BBX 16 16 11 28
BITMAP
07E0
1FF8
3FFC
7FFE
7C3E
F81F
F00F
F00F
F00F
F00F
F81F
7C3E
7FFE
3FFC
1FF8
07E0
ENDCHAR
STARTCHAR 00B1
ENCODING 177
SWIDTH 596 0
DWIDTH 37 0
BBX 28 39 4 0
BITMAP
001FC000
001FC000
001FC000
001FC000
001FC000
001FC000
001FC000
001FC000
001FC000
001FC000
001FC000
FFFFFFF0
FFFFFFF0
FFFFFFF0
FFFFFFF0
FFFFFFF0
FFFFFFF0
FFFFFFF0
001FC000
001FC000
001FC000
001FC000
001FC000
001FC000
001FC000
001FC000
001FC000
001FC000
001FC000
00000000
00000000
00000000
7FFFFFE0
7FFFFFE0
7FFFFFE0
7FFFFFE0
7FFFFFE0
7FFFFFE0
7FFFFFE0
ENDCHAR
STARTCHAR 00B2
ENCODING 178
SWIDTH 596 0
DWIDTH 37 0
BBX 19 24 9 20
BITMAP
03FC00
0FFF00
3FFF80
3FFFC0
7FFFC0
FE0FE0
FE07E0
FC07E0
0007E0
000FE0
001FC0
003FC0
007F80
00FF00
01FE00
03F800
0FF000
1FE000
3FC000
7FFFE0
FFFFE0
FFFFE0
FFFFE0
FFFFE0
ENDCHAR
STARTCHAR 00B3
ENCODING 179
SWIDTH 596 0
DWIDTH 37 0
BBX 19 24 9 20
BITMAP
03FC00
1FFF00
3FFF80
7FFFC0
7FFFE0
FE0FE0
FE07E0
0007E0
0007E0
000FC0
01FF80
01FF00
01FF00
01FFC0
000FC0
0007E0
0007E0
FC07E0
FE0FE0
7FFFE0
7FFFC0
3FFF80
1FFF00
07F800
ENDCHAR
STARTCHAR 00B4
ENCODING 180
SWIDTH 596 0
DWIDTH 37 0
BBX 14 8 12 36
BITMAP
07FC
0FF8
1FF0
1FE0
3FC0
7F80
7F00
FE00
ENDCHAR
STARTCHAR 00B5
ENCODING 181
SWIDTH 596 0
DWIDTH 37 0
BBX 29 44 5 -12
BITMAP
FF0007F8
FF0007F8
FF0007F8
FF0007F8
FF0007F8
FF0007F8
FF0007F8
FF0007F8
FF0007F8
FF0007F8
FF0007F8
FF0007F8
FF0007F8
FF0007F8
FF0007F8
FF0007F8
FF0007F8
FF0007F8
FF0007F8
FF0007F8
FF8007F8
FF8007F8
FF8007F8
FF800FF8
FFC01FF8
FFF07FF8
FFFFFFF8
FFFFFFF8
FFFFFFF8
FFFFFFF8
FFFFF7F8
FF7FE7F8
FF040000
FF000000
FF000000
FF000000
FF000000
FF000000
FF000000
FF000000
FF000000
FF000000
FF000000
FF000000
ENDCHAR
STARTCHAR 00B6
ENCODING 182
SWIDTH 612 0
DWIDTH 38 0
BBX 25 44 6 0
BITMAP
001FFF80
00FFFF80
03FFFF80
07FFFF80
0FFFFF80
1FFFFF80
3FFFFF80
3FFFFF80
7FFFFF80
7FFFFF80
7FFFFF80
7FFFFF80
7FFFFF80
FFFFFF80
FFFFFF80
7FFFFF80
7FFFFF80
7FFFFF80
7FFFFF80
7FFFFF80
3FFFFF80
3FFFFF80
1FFFFF80
0FFFFF80
07FFFF80
03FFFF80
00FFFF80
001FFF80
00003F80
00003F80
00003F80
00003F80
00003F80
00003F80
00003F80
00003F80
00003F80
00003F80
00003F80
00003F80
00003F80
00003F80
00003F80
00003F80
ENDCHAR
STARTCHAR 00B7
ENCODING 183
SWIDTH 612 0
DWIDTH 38 0
BBX 10 9 15 17
BITMAP
3E00
7F80
FFC0
FFC0
FFC0
FFC0
FFC0
7F80
1F00
ENDCHAR
STARTCHAR 00B8
ENCODING 184
SWIDTH 612 0
DWIDTH 38 0
BBX 11 14 14 -14
BITMAP
FE00
FE00
FF80
FFC0
3FE0
0FE0
0FE0
0FE0
1FE0
FFC0
FFC0
FF80
FF00
F800
ENDCHAR
STARTCHAR 00B9
ENCODING 185
SWIDTH 612 0
DWIDTH 38 0
BBX 12 24 12 20
BITMAP
0030
01F0
0FF0
7FF0
FFF0
FFF0
FFF0
FBF0
03F0
03F0
03F0
03F0
03F0
03F0
03F0
03F0
03F0
03F0
03F0
03F0
03F0
03F0
03F0
03F0
ENDCHAR
STARTCHAR 00BA
ENCODING 186
SWIDTH 596 0
DWIDTH 37 0
BBX 21 24 8 20
BITMAP
01FC00
07FF00
1FFFC0
3FFFE0
3FDFE0
7E03F0
7C01F0
FC01F8
F801F8
F800F8
F800F8
F800F8
F800F8
F800F8
F800F8
F801F8
FC01F8
7C01F0
7E03F0
3FDFF0
3FFFE0
1FFFC0
07FF00
01FC00
ENDCHAR
STARTCHAR 00BB
ENCODING 187
SWIDTH 596 0
DWIDTH 37 0
BBX 25 24 7 4
BITMAP
FC0F8000
7C0FC000
7E07E000
3F07E000
1F83F000
1F81F800
0FC1FC00
0FE0FC00
07F0FE00
03F07F00
03F83F00
01FC3F80
01FC3F80
03F83F00
03F07F00
07F0FE00
0FE0FC00
0FC1FC00
1F81F800
1F83F000
3F07E000
7E07E000
7C0FC000
FC0F8000
ENDCHAR
STARTCHAR 00BC
ENCODING 188
SWIDTH 596 0
DWIDTH 37 0
BBX 34 44 2 0
BITMAP
0040000000
03C0000000
1FC0000000
FFC0000000
FFC0000000
FFC0000000
FFC0000000
87C0020000
07C0078000
07C00FC000
07C00F8000
07C01F8000
07C01F0000
07C03E0000
07C03E0000
07C07C0000
07C07C0000
07C0F80000
07C1F80000
07C1F00000
07C3F00000
07C3E00000
0007C00000
0007C07E00
000F80FE00
000F81FE00
001F03FE00
001F03FE00
003E07FE00
007E0FFE00
007C1F7E00
00F83E7E00
00F83E7E00
01F07C7E00
01F0F87E00
00E1FFFFC0
0021FFFFC0
0001FFFFC0
0001FFFFC0
0000007E00
0000007E00
0000007E00
0000007E00
0000007E00
ENDCHAR
STARTCHAR 00BD
ENCODING 189
SWIDTH 612 0
DWIDTH 38 0
BBX 36 44 1 0
BITMAP
0040000000
03C0000000
1FC0000000
FFC0000000
FFC0000000
FFC0000000
FFC0000000
87C0060000
07C0070000
07C00F8000
07C01F0000
07C01F0000
07C03E0000
07C03E0000
07C07C0000
07C07C0000
07C0F80000
07C0F00000
07C1F00000
07C3E00000
07C3E00000
07C7C00000
0007C00000
000F81FE00
000F87FF80
001F0FFFC0
001F1FFFC0
003E1F8FE0
003C1F07E0
007C3F07E0
00F80007E0
00F8000FE0
01F0001FC0
01F0003FC0
03E0007F80
03E000FF00
00C001FC00
000003F800
000007F000
00000FC000
00001FFFF0
00001FFFF0
00001FFFF0
00001FFFF0
ENDCHAR
STARTCHAR 00BE
ENCODING 190
SWIDTH 596 0
DWIDTH 37 0
BBX 36 44 1 0
BITMAP
0FE0000000
3FFC000000
7FFE000000
FFFE000000
FC3F000000
F81F000000
001F000000
001F006000
003E00F800
07FE00F800
07F801F000
07FC03F000
07FF03E000
003F07E000
001F87C000
001F8F8000
F81F8F8000
FC3F9F0000
FFFF1F0000
7FFF3E0000
3FFC3E0000
0FF07C0000
0000FC0000
0000F81F80
0001F83F80
0001F07F80
0003E0FF80
0003E0FF80
0007C1FF80
0007C3FF80
000F87DF80
000F879F80
001F0F9F80
003F1F1F80
003E3E1F80
001C3FFFF0
00043FFFF0
00003FFFF0
00003FFFF0
0000001F80
0000001F80
0000001F80
0000001F80
0000001F80
ENDCHAR
STARTCHAR 00BF
ENCODING 191
SWIDTH 596 0
DWIDTH 37 0
BBX 27 44 6 -12
BITMAP
0007C000
000FE000
001FE000
001FE000
001FE000
001FE000
000FE000
0007C000
00000000
00000000
00000000
00000000
00000000
001FC000
001FC000
001FC000
001FC000
003FC000
003FC000
007FC000
00FF8000
03FF0000
07FE0000
0FFC0000
1FF80000
1FF00000
3FE00000
7FC00000
7FC00000
FF800000
FF800000
FF000000
FF001FE0
FF001FE0
FF801FE0
FF803FE0
7FC07FC0
7FFFFFC0
7FFFFF80
3FFFFF80
1FFFFF00
0FFFFE00
03FFF800
007FC000
ENDCHAR
STARTCHAR 00C0
ENCODING 192
SWIDTH 596 0
DWIDTH 37 0
BBX 36 55 1 0
BITMAP
01FF800000
00FF800000
007FC00000
003FE00000
001FE00000
000FF00000
0007F80000
0003F80000
0000000000
0000000000
0000000000
0003FC0000
0003FE0000
0007FE0000
0007FE0000
0007FE0000
000FFF0000
000FFF0000
000FFF0000
001FFF8000
001FFF8000
001FFF8000
001FFFC000
003FFFC000
003FDFC000
003F9FE000
007F9FE000
007F9FE000
007F0FF000
00FF0FF000
00FF0FF000
00FF07F800
01FE07F800
01FE07F800
01FE07FC00
03FC03FC00
03FC03FC00
03FC03FE00
07FC03FE00
07FFFFFE00
07FFFFFF00
0FFFFFFF00
0FFFFFFF00
0FFFFFFF00
1FFFFFFF80
1FFFFFFF80
1FE0007F80
3FE0007FC0
3FE0007FC0
3FC0003FC0
7FC0003FE0
7FC0003FE0
7FC0001FE0
FF80001FF0
FF80001FF0
ENDCHAR
STARTCHAR 00C1
ENCODING 193
SWIDTH 596 0
DWIDTH 37 0
BBX 36 54 1 0
BITMAP
00000FF800
00001FF000
00001FE000
00003FC000
00007F8000
0000FF0000
0000FE0000
0001FC0000
0000000000
0000000000
0003FC0000
0003FE0000
0007FE0000
0007FE0000
0007FE0000
000FFF0000
000FFF0000
000FFF0000
001FFF8000
001FFF8000
001FFF8000
001FFFC000
003FFFC000
003FDFC000
003F9FE000
007F9FE000
007F9FE000
007F0FF000
00FF0FF000
00FF0FF000
00FF07F800
01FE07F800
01FE07F800
01FE07FC00
03FC03FC00
03FC03FC00
03FC03FE00
07FC03FE00
07FFFFFE00
07FFFFFF00
0FFFFFFF00
0FFFFFFF00
0FFFFFFF00
1FFFFFFF80
1FFFFFFF80
1FE0007F80
3FE0007FC0
3FE0007FC0
3FC0003FC0
7FC0003FE0
7FC0003FE0
7FC0001FE0
FF80001FF0
FF80001FF0
ENDCHAR
STARTCHAR 00C2
ENCODING 194
SWIDTH 612 0
DWIDTH 38 0
BBX 37 56 1 0
BITMAP
0001FC0000
0003FE0000
0007FF0000
000FFF8000
001FFFC000
007F8FE000
00FF07F800
01FE03FC00
01FC01FC00
0000000000
0000000000
0000000000
0003FE0000
0003FE0000
0003FE0000
0007FE0000
0007FF0000
0007FF0000
000FFF0000
000FFF8000
000FFF8000
001FFF8000
001FFFC000
001FFFC000
003FDFC000
003FDFE000
003FDFE000
007F9FE000
007F8FF000
007F8FF000
00FF0FF000
00FF07F800
00FF07F800
01FF07F800
01FE07FC00
01FE03FC00
03FE03FC00
03FC03FE00
03FC01FE00
07FC01FE00
07FFFFFF00
07FFFFFF00
0FFFFFFF00
0FFFFFFF80
0FFFFFFF80
1FFFFFFF80
1FFFFFFFC0
1FE0007FC0
3FE0003FC0
3FE0003FE0
3FC0003FE0
7FC0003FE0
7FC0001FF0
7FC0001FF0
FF80001FF0
FF80001FF8
ENDCHAR
STARTCHAR 00C3
ENCODING 195
SWIDTH 596 0
DWIDTH 37 0
BBX 36 56 1 1
BITMAP
001F807800
007FE0F800
00FFFFF800
00FFFFF000
01FFFFF000
01F0FFE000
01E03FC000
0060070000
0000000000
0000000000
0000000000
0000000000
0003FC0000
0003FC0000
0007FE0000
0007FE0000
0007FE0000
000FFF0000
000FFF0000
000FFF0000
001FFF8000
001FFF8000
001FFF8000
003FFFC000
003FFFC000
003F9FC000
007F9FE000
007F9FE000
007F9FE000
00FF0FF000
00FF0FF000
00FF0FF000
01FE0FF800
01FE07F800
01FE07F800
03FE07F800
03FC03FC00
03FC03FC00
07FC03FC00
07F803FE00
07FFFFFE00
0FFFFFFE00
0FFFFFFF00
0FFFFFFF00
1FFFFFFF00
1FFFFFFF80
1FFFFFFF80
3FE0007F80
3FE0007FC0
3FC0007FC0
7FC0003FC0
7FC0003FE0
7FC0003FE0
7F80003FE0
FF80001FF0
FF80001FF0
ENDCHAR
STARTCHAR 00C4
ENCODING 196
SWIDTH 612 0
DWIDTH 38 0
BBX 37 55 1 0
BITMAP
007801F000
00FE03F800
01FE03FC00
01FE03FC00
01FE03FC00
00FE03F800
007801F000
0000000000
0000000000
0000000000
0000000000
0001FE0000
0003FE0000
0003FE0000
0003FF0000
0007FF0000
0007FF0000
0007FF8000
000FFF8000
000FFF8000
000FFFC000
001FFFC000
001FFFC000
001FDFE000
003FDFE000
003FDFE000
003FCFF000
007F8FF000
007F8FF000
007F8FF000
00FF07F800
00FF07F800
00FF07F800
01FF03FC00
01FE03FC00
01FE03FC00
03FE03FE00
03FC01FE00
03FC01FE00
07FFFFFF00
07FFFFFF00
07FFFFFF00
0FFFFFFF80
0FFFFFFF80
0FFFFFFF80
1FFFFFFFC0
1FF0007FC0
1FE0003FC0
3FE0003FE0
3FE0003FE0
3FE0003FE0
7FC0001FF0
7FC0001FF0
7FC0001FF0
FF80000FF8
ENDCHAR
STARTCHAR 00C5
ENCODING 197
SWIDTH 612 0
DWIDTH 38 0
BBX 37 58 1 0
BITMAP
0000F80000
0003FE0000
0007FF0000
0007070000
000E038000
000E038000
000E038000
000E038000
0007870000
0007FF0000
0003FE0000
0000F80000
0000000000
0000000000
0003FE0000
0003FE0000
0007FF0000
0007FF0000
0007FF0000
000FFF8000
000FFF8000
000FFF8000
001FFFC000
001FFFC000
001FFFC000
001FFFC000
003FDFE000
003FDFE000
003FDFE000
007F8FF000
007F8FF000
007F8FF000
00FF07F800
00FF07F800
00FF07F800
01FF07FC00
01FE03FC00
01FE03FC00
03FE03FE00
03FC01FE00
03FC01FE00
07FC01FF00
07FFFFFF00
07FFFFFF00
0FFFFFFF00
0FFFFFFF80
0FFFFFFF80
1FFFFFFF80
1FFFFFFFC0
1FE0007FC0
3FE0003FC0
3FE0003FE0
3FE0003FE0
3FC0003FE0
7FC0001FF0
7FC0001FF0
7F80001FF0
FF80000FF8
ENDCHAR
STARTCHAR 00C6
ENCODING 198
SWIDTH 596 0
DWIDTH 37 0
BBX 34 44 1 0
BITMAP
0003FFFFC0
0003FFFFC0
0003FFFFC0
0007FFFFC0
0007FFFFC0
0007FFFFC0
000FFFFFC0
000FFFC000
000FFFC000
001FFFC000
001FFFC000
001FFFC000
003FBFC000
003FBFC000
003FBFC000
007FBFC000
007F3FC000
007F3FC000
00FF3FFF80
00FF3FFF80
00FE3FFF80
01FE3FFF80
01FE3FFF80
01FC3FFF80
03FC3FFF80
03FC3FC000
03FC3FC000
07FFFFC000
07FFFFC000
07FFFFC000
0FFFFFC000
0FFFFFC000
0FFFFFC000
0FFFFFC000
1FE03FC000
1FE03FC000
1FE03FC000
3FC03FFFC0
3FC03FFFC0
3FC03FFFC0
7FC03FFFC0
7F803FFFC0
7F803FFFC0
FF803FFFC0
ENDCHAR
STARTCHAR 00C7
ENCODING 199
SWIDTH 596 0
DWIDTH 37 0
BBX 32 59 2 -14
BITMAP
00008000
001FFE00
00FFFF80
01FFFFE0
03FFFFF0
07FFFFF8
0FFFFFF8
1FFC1FFC
1FF007FC
3FE003FE
3FC001FE
7FC001FF
7F8001FF
7F8001FF
FF8000FF
FF800000
FF800000
FF800000
FF000000
FF000000
FF000000
FF000000
FF000000
FF000000
FF000000
FF000000
FF000000
FF000000
FF000000
FF800000
FF800000
FF8000FF
7F8001FF
7F8001FF
7FC001FF
3FC001FE
3FE003FE
1FF007FE
1FFE3FFC
0FFFFFF8
07FFFFF8
03FFFFF0
01FFFFC0
00FFFF80
003FFE00
0007F000
0007F000
0007FC00
0007FE00
0000FF00
00007F00
00007F00
00007F00
0000FF00
0007FE00
0007FE00
0007FC00
0007F000
0007C000
ENDCHAR
STARTCHAR 00C8
ENCODING 200
SWIDTH 596 0
DWIDTH 37 0
BBX 30 54 4 0
BITMAP
0FF80000
07FC0000
03FE0000
01FE0000
00FF0000
007F8000
003F8000
001FC000
00000000
00000000
FFFFFFFC
FFFFFFFC
FFFFFFFC
FFFFFFFC
FFFFFFFC
FFFFFFFC
FFFFFFFC
FF000000
FF000000
FF000000
FF000000
FF000000
FF000000
FF000000
FF000000
FF000000
FF000000
FF000000
FFFFFFE0
FFFFFFE0
FFFFFFE0
FFFFFFE0
FFFFFFE0
FFFFFFE0
FFFFFFE0
FF000000
FF000000
FF000000
FF000000
FF000000
FF000000
FF000000
FF000000
FF000000
FF000000
FF000000
FF000000
FFFFFFFC
FFFFFFFC
FFFFFFFC
FFFFFFFC
FFFFFFFC
FFFFFFFC
FFFFFFFC
ENDCHAR
STARTCHAR 00C9
ENCODING 201
SWIDTH 596 0
DWIDTH 37 0
BBX 30 54 4 0
BITMAP
00007FC0
0000FF80
0001FF00
0003FE00
0003FC00
0007F000
000FE000
000FC000
00000000
00000000
FFFFFFFC
FFFFFFFC
FFFFFFFC
FFFFFFFC
FFFFFFFC
FFFFFFFC
FFFFFFFC
FF000000
FF000000
FF000000
FF000000
FF000000
FF000000
FF000000
FF000000
FF000000
FF000000
FF000000
FFFFFFE0
FFFFFFE0
FFFFFFE0
FFFFFFE0
FFFFFFE0
FFFFFFE0
FFFFFFE0
FF000000
FF000000
FF000000
FF000000
FF000000
FF000000
FF000000
FF000000
FF000000
FF000000
FF000000
FF000000
FFFFFFFC
FFFFFFFC
FFFFFFFC
FFFFFFFC
FFFFFFFC
FFFFFFFC
FFFFFFFC
ENDCHAR
STARTCHAR 00CA
ENCODING 202
SWIDTH 596 0
DWIDTH 37 0
BBX 30 56 4 0
BITMAP
0007C000
001FE000
003FF000
007FFC00
00FFFE00
01FCFF00
07F87F80
0FF01FE0
0FC00FE0
00000000
00000000
00000000
FFFFFFFC
FFFFFFFC
FFFFFFFC
FFFFFFFC
FFFFFFFC
FFFFFFFC
FFFFFFFC
FF000000
FF000000
FF000000
FF000000
FF000000
FF000000
FF000000
FF000000
FF000000
FF000000
FF000000
FFFFFFE0
FFFFFFE0
FFFFFFE0
FFFFFFE0
FFFFFFE0
FFFFFFE0
FFFFFFE0
FF000000
FF000000
FF000000
FF000000
FF000000
FF000000
FF000000
FF000000
FF000000
FF000000
FF000000
FF000000
FFFFFFFC
FFFFFFFC
FFFFFFFC
FFFFFFFC
FFFFFFFC
FFFFFFFC
FFFFFFFC
ENDCHAR
STARTCHAR 00CB
ENCODING 203
SWIDTH 596 0
DWIDTH 37 0
BBX 30 55 4 0
BITMAP
03C00F00
0FE01FC0
0FF03FC0
0FF03FC0
0FF03FC0
0FE01FC0
07C00F00
00000000
00000000
00000000
00000000
FFFFFFFC
FFFFFFFC
FFFFFFFC
FFFFFFFC
FFFFFFFC
FFFFFFFC
FFFFFFFC
FF000000
FF000000
FF000000
FF000000
FF000000
FF000000
FF000000
FF000000
FF000000
FF000000
FF000000
FFFFFFE0
FFFFFFE0
FFFFFFE0
FFFFFFE0
FFFFFFE0
FFFFFFE0
FFFFFFE0
FF000000
FF000000
FF000000
FF000000
FF000000
FF000000
FF000000
FF000000
FF000000
FF000000
FF000000
FF000000
FFFFFFFC
FFFFFFFC
FFFFFFFC
FFFFFFFC
FFFFFFFC
FFFFFFFC
FFFFFFFC
ENDCHAR
STARTCHAR 00CC
ENCODING 204
SWIDTH 596 0
DWIDTH 37 0
BBX 25 55 6 0
BITMAP
3FE00000
1FF00000
0FF00000
07F80000
03FC0000
01FC0000
00FE0000
007F0000
00000000
00000000
00000000
FFFFFF80
FFFFFF80
FFFFFF80
FFFFFF80
FFFFFF80
FFFFFF80
FFFFFF80
007F8000
007F8000
007F8000
007F8000
007F8000
007F8000
007F8000
007F8000
007F8000
007F8000
007F8000
007F8000
007F8000
007F8000
007F8000
007F8000
007F8000
007F8000
007F8000
007F8000
007F8000
007F8000
007F8000
007F8000
007F8000
007F8000
007F8000
007F8000
007F8000
007F8000
FFFFFF80
FFFFFF80
FFFFFF80
FFFFFF80
FFFFFF80
FFFFFF80
FFFFFF80
ENDCHAR
STARTCHAR 00CD
ENCODING 205
SWIDTH 596 0
DWIDTH 37 0
BBX 25 54 6 0
BITMAP
0003FE00
0003FC00
0007F800
000FF000
001FE000
001FC000
003F8000
007F0000
00000000
00000000
FFFFFF80
FFFFFF80
FFFFFF80
FFFFFF80
FFFFFF80
FFFFFF80
FFFFFF80
007F8000
007F8000
007F8000
007F8000
007F8000
007F8000
007F8000
007F8000
007F8000
007F8000
007F8000
007F8000
007F8000
007F8000
007F8000
007F8000
007F8000
007F8000
007F8000
007F8000
007F8000
007F8000
007F8000
007F8000
007F8000
007F8000
007F8000
007F8000
007F8000
007F8000
FFFFFF80
FFFFFF80
FFFFFF80
FFFFFF80
FFFFFF80
FFFFFF80
FFFFFF80
ENDCHAR
STARTCHAR 00CE
ENCODING 206
SWIDTH 596 0
DWIDTH 37 0
BBX 25 56 6 0
BITMAP
007F0000
00FF8000
01FFC000
03FFE000
07FFF000
1FE3F800
3FC1FE00
7F80FF00
7F007F00
00000000
00000000
00000000
FFFFFF80
FFFFFF80
FFFFFF80
FFFFFF80
FFFFFF80
FFFFFF80
FFFFFF80
007F8000
007F8000
007F8000
007F8000
007F8000
007F8000
007F8000
007F8000
007F8000
007F8000
007F8000
007F8000
007F8000
007F8000
007F8000
007F8000
007F8000
007F8000
007F8000
007F8000
007F8000
007F8000
007F8000
007F8000
007F8000
007F8000
007F8000
007F8000
007F8000
007F8000
FFFFFF80
FFFFFF80
FFFFFF80
FFFFFF80
FFFFFF80
FFFFFF80
FFFFFF80
ENDCHAR
STARTCHAR 00CF
ENCODING 207
SWIDTH 596 0
DWIDTH 37 0
BBX 25 55 6 0
BITMAP
1E007800
7F00FE00
7F81FE00
7F81FE00
7F81FE00
7F00FE00
3E007800
00000000
00000000
00000000
00000000
FFFFFF80
FFFFFF80
FFFFFF80
FFFFFF80
FFFFFF80
FFFFFF80
FFFFFF80
007F8000
007F8000
007F8000
007F8000
007F8000
007F8000
007F8000
007F8000
007F8000
007F8000
007F8000
007F8000
007F8000
007F8000
007F8000
007F8000
007F8000
007F8000
007F8000
007F8000
007F8000
007F8000
007F8000
007F8000
007F8000
007F8000
007F8000
007F8000
007F8000
007F8000
FFFFFF80
FFFFFF80
FFFFFF80
FFFFFF80
FFFFFF80
FFFFFF80
FFFFFF80
ENDCHAR
STARTCHAR 00D0
ENCODING 208
SWIDTH 596 0
DWIDTH 37 0
BBX 36 44 -1 0
BITMAP
03FFFC0000
03FFFF8000
03FFFFE000
03FFFFF000
03FFFFFC00
03FFFFFE00
03FFFFFE00
03FC07FF00
03FC01FF80
03FC00FF80
03FC007FC0
03FC003FC0
03FC003FE0
03FC001FE0
03FC001FE0
03FC001FF0
03FC001FF0
03FC001FF0
03FC000FF0
03FC000FF0
FFFFF80FF0
FFFFF80FF0
FFFFF80FF0
FFFFF80FF0
FFFFF80FF0
03FC000FF0
03FC001FF0
03FC001FF0
03FC001FF0
03FC001FE0
03FC001FE0
03FC003FE0
03FC003FC0
03FC007FC0
03FC00FFC0
03FC01FF80
03FC07FF00
03FFFFFF00
03FFFFFE00
03FFFFFC00
03FFFFF000
03FFFFE000
03FFFF8000
03FFFC0000
ENDCHAR
STARTCHAR 00D1
ENCODING 209
SWIDTH 612 0
DWIDTH 38 0
BBX 29 56 4 1
BITMAP
01FC03C0
03FF07C0
07FFFFC0
07FFFF80
0FFFFF80
0F87FF00
0F01FE00
03007800
00000000
00000000
00000000
00000000
FF8007F8
FF8007F8
FFC007F8
FFC007F8
FFC007F8
FFE007F8
FFE007F8
FFF007F8
FFF007F8
FFF807F8
FFF807F8
FFFC07F8
FFFC07F8
FFFC07F8
FFFE07F8
FFFE07F8
FF7F07F8
FF7F07F8
FF3F87F8
FF3F87F8
FF1FC7F8
FF1FC7F8
FF1FC7F8
FF0FE7F8
FF0FE7F8
FF07F7F8
FF07F7F8
FF03FFF8
FF03FFF8
FF01FFF8
FF01FFF8
FF01FFF8
FF00FFF8
FF00FFF8
FF007FF8
FF007FF8
FF003FF8
FF003FF8
FF001FF8
FF001FF8
FF000FF8
FF000FF8
FF000FF8
FF0007F8
ENDCHAR
STARTCHAR 00D2
ENCODING 210
SWIDTH 580 0
DWIDTH 36 0
BBX 32 56 2 -1
BITMAP
07FC0000
03FE0000
01FF0000
00FF0000
007F8000
003FC000
001FC000
000FE000
00000000
00000000
00000000
003FFC00
00FFFF00
01FFFF80
07FFFFC0
0FFFFFE0
0FFFFFF0
1FFC3FF8
3FF00FF8
3FE007FC
3FC003FC
7FC003FE
7F8001FE
7F8001FE
FF8001FE
FF8001FF
FF8001FF
FF0001FF
FF0000FF
FF0000FF
FF0000FF
FF0000FF
FF0000FF
FF0000FF
FF0000FF
FF0000FF
FF0000FF
FF0000FF
FF0001FF
FF8001FF
FF8001FF
FF8001FF
7F8001FE
7F8003FE
7FC003FE
3FC003FC
3FE007FC
3FF00FF8
1FFC3FF8
0FFFFFF0
0FFFFFE0
07FFFFC0
03FFFF80
00FFFF00
003FFC00
00010000
ENDCHAR
STARTCHAR 00D3
ENCODING 211
SWIDTH 580 0
DWIDTH 36 0
BBX 32 56 2 -1
BITMAP
00003FE0
00007FC0
0000FF80
0000FF00
0001FE00
0003FC00
0003F800
0007F000
00000000
00000000
00000000
003FFC00
00FFFF00
01FFFF80
07FFFFC0
0FFFFFE0
0FFFFFF0
1FFC3FF8
3FF00FF8
3FE007FC
3FC003FC
7FC003FE
7F8001FE
7F8001FE
FF8001FE
FF8001FF
FF8001FF
FF0001FF
FF0000FF
FF0000FF
FF0000FF
FF0000FF
FF0000FF
FF0000FF
FF0000FF
FF0000FF
FF0000FF
FF0000FF
FF0001FF
FF8001FF
FF8001FF
FF8001FF
7F8001FE
7F8003FE
7FC003FE
3FC003FC
3FE007FC
3FF00FF8
1FFC3FF8
0FFFFFF0
0FFFFFE0
07FFFFC0
03FFFF80
00FFFF00
003FFC00
00010000
ENDCHAR
STARTCHAR 00D4
ENCODING 212
SWIDTH 580 0
DWIDTH 36 0
BBX 32 58 2 -1
BITMAP
0003E000
000FF000
001FF800
003FFC00
007FFF00
00FE7F80
03FC3FC0
07F81FF0
07E007F0
00000000
00000000
00000000
00000000
003FFC00
00FFFF00
01FFFF80
07FFFFC0
0FFFFFE0
0FFFFFF0
1FFC3FF8
3FF00FF8
3FE007FC
3FC003FC
7FC003FE
7F8001FE
7F8001FE
FF8001FE
FF8001FF
FF8001FF
FF0001FF
FF0000FF
FF0000FF
FF0000FF
FF0000FF
FF0000FF
FF0000FF
FF0000FF
FF0000FF
FF0000FF
FF0000FF
FF0001FF
FF8001FF
FF8001FF
FF8001FF
7F8001FE
7F8003FE
7FC003FE
3FC003FC
3FE007FC
3FF00FF8
1FFC3FF8
0FFFFFF0
0FFFFFE0
07FFFFC0
03FFFF80
00FFFF00
003FFC00
00010000
ENDCHAR
STARTCHAR 00D5
ENCODING 213
SWIDTH 580 0
DWIDTH 36 0
BBX 32 58 2 0
BITMAP
007E01E0
01FF83E0
03FFFFE0
03FFFFC0
07FFFFC0
07C3FF80
07C0FF00
01801C00
00000000
00000000
00000000
00000000
00000000
003FFC00
00FFFF00
01FFFF80
07FFFFC0
0FFFFFE0
0FFFFFF0
1FFC3FF8
3FF00FF8
3FE007FC
3FC003FC
7FC003FE
7F8001FE
7F8001FE
FF8001FE
FF8001FF
FF8001FF
FF0001FF
FF0000FF
FF0000FF
FF0000FF
FF0000FF
FF0000FF
FF0000FF
FF0000FF
FF0000FF
FF0000FF
FF0000FF
FF0001FF
FF8001FF
FF8001FF
FF8001FF
7F8001FE
7F8003FE
7FC003FE
3FC003FC
3FE007FC
3FF00FF8
1FFC3FF8
0FFFFFF0
0FFFFFE0
07FFFFC0
03FFFF80
00FFFF00
003FFC00
00010000
ENDCHAR
STARTCHAR 00D6
ENCODING 214
SWIDTH 580 0
DWIDTH 36 0
BBX 32 57 2 -1
BITMAP
01E00780
07F00FE0
07F81FE0
07F81FE0
07F81FE0
07F00FE0
03E00780
00000000
00000000
00000000
00000000
00000000
003FFC00
00FFFF00
01FFFF80
07FFFFC0
0FFFFFE0
0FFFFFF0
1FFC3FF8
3FF00FF8
3FE007FC
3FC003FC
7FC003FE
7F8001FE
7F8001FE
FF8001FE
FF8001FF
FF8001FF
FF0001FF
FF0000FF
FF0000FF
FF0000FF
FF0000FF
FF0000FF
FF0000FF
FF0000FF
FF0000FF
FF0000FF
FF0000FF
FF0001FF
FF8001FF
FF8001FF
FF8001FF
7F8001FE
7F8003FE
7FC003FE
3FC003FC
3FE007FC
3FF00FF8
1FFC3FF8
0FFFFFF0
0FFFFFE0
07FFFFC0
03FFFF80
00FFFF00
003FFC00
00010000
ENDCHAR
STARTCHAR 00D7
ENCODING 215
SWIDTH 596 0
DWIDTH 37 0
BBX 28 29 5 6
BITMAP
08000100
1C000380
3E0007C0
7F000FE0
FF801FF0
FFC03FF0
7FE07FE0
3FF0FFC0
1FF9FF80
0FFFFF00
07FFFE00
03FFFC00
01FFF800
00FFF000
007FE000
00FFF000
01FFF800
03FFFC00
07FFFE00
0FFFFF00
1FF9FF80
3FF0FFC0
7FE07FE0
FFC03FF0
FF801FF0
7F000FE0
3E0007C0
1C000380
08000100
ENDCHAR
STARTCHAR 00D8
ENCODING 216
SWIDTH 596 0
DWIDTH 37 0
BBX 33 49 2 -3
BITMAP
0000001F00
0000003F00
001FFE3E00
007FFFFE00
00FFFFFC00
03FFFFFC00
07FFFFF800
07FFFFF800
0FFE1FFC00
1FF807FE00
1FF007FE00
1FE007FE00
3FE00FFF00
3FC00FFF00
3FC01FFF00
7FC01FFF80
7FC03FFF80
7FC07EFF80
7F807CFF80
7F80FC7F80
7F80F87F80
7F81F87F80
7F81F07F80
7F83F07F80
7F87E07F80
7F87E07F80
7F8FC07F80
7F8F807F80
7F9F807F80
7F9F00FF80
7FFF00FF80
7FFE00FF80
7FFE00FF00
3FFC00FF00
3FF801FF00
3FF801FF00
3FF001FE00
1FF003FE00
1FF807FC00
0FFE1FFC00
0FFFFFF800
0FFFFFF000
1FFFFFE000
1FFFFFC000
3F7FFF8000
3E1FFE0000
7E00800000
FC00000000
F800000000
ENDCHAR
STARTCHAR 00D9
ENCODING 217
SWIDTH 596 0
DWIDTH 37 0
BBX 29 56 4 -1
BITMAP
0FF80000
07FC0000
03FE0000
01FE0000
00FF0000
007F8000
003F8000
001FC000
00000000
00000000
00000000
FF0007F8
FF0007F8
FF0007F8
FF0007F8
FF0007F8
FF0007F8
FF0007F8
FF0007F8
FF0007F8
FF0007F8
FF0007F8
FF0007F8
FF0007F8
FF0007F8
FF0007F8
FF0007F8
FF0007F8
FF0007F8
FF0007F8
FF0007F8
FF0007F8
FF0007F8
FF0007F8
FF0007F8
FF0007F8
FF0007F8
FF0007F8
FF0007F8
FF0007F8
FF0007F8
FF0007F8
FF8007F8
FF8007F8
FF800FF8
7F800FF8
7FC01FF0
7FE03FF0
3FF87FF0
3FFFFFE0
1FFFFFC0
0FFFFF80
07FFFF00
01FFFE00
007FF800
00020000
ENDCHAR
STARTCHAR 00DA
ENCODING 218
SWIDTH 596 0
DWIDTH 37 0
BBX 29 55 4 -1
BITMAP
00007FC0
0000FF80
0001FF00
0001FE00
0003FC00
0007F800
000FF000
000FE000
00000000
00000000
FF0007F8
FF0007F8
FF0007F8
FF0007F8
FF0007F8
FF0007F8
FF0007F8
FF0007F8
FF0007F8
FF0007F8
FF0007F8
FF0007F8
FF0007F8
FF0007F8
FF0007F8
FF0007F8
FF0007F8
FF0007F8
FF0007F8
FF0007F8
FF0007F8
FF0007F8
FF0007F8
FF0007F8
FF0007F8
FF0007F8
FF0007F8
FF0007F8
FF0007F8
FF0007F8
FF0007F8
FF8007F8
FF8007F8
FF800FF8
7F800FF8
7FC01FF0
7FE03FF0
3FF87FF0
3FFFFFE0
1FFFFFC0
0FFFFF80
07FFFF00
01FFFE00
007FF800
00020000
ENDCHAR
STARTCHAR 00DB
ENCODING 219
SWIDTH 596 0
DWIDTH 37 0
BBX 29 57 4 -1
BITMAP
000FC000
001FE000
003FF800
007FFC00
01FFFE00
03FCFF00
07F87FC0
0FE03FE0
0FC00FE0
00000000
00000000
00000000
FF0007F8
FF0007F8
FF0007F8
FF0007F8
FF0007F8
FF0007F8
FF0007F8
FF0007F8
FF0007F8
FF0007F8
FF0007F8
FF0007F8
FF0007F8
FF0007F8
FF0007F8
FF0007F8
FF0007F8
FF0007F8
FF0007F8
FF0007F8
FF0007F8
FF0007F8
FF0007F8
FF0007F8
FF0007F8
FF0007F8
FF0007F8
FF0007F8
FF0007F8
FF0007F8
FF0007F8
FF8007F8
FF8007F8
FF800FF8
7F800FF8
7FC01FF0
7FE03FF0
3FF87FF0
3FFFFFE0
1FFFFFC0
0FFFFF80
07FFFF00
01FFFE00
007FF800
00020000
ENDCHAR
STARTCHAR 00DC
ENCODING 220
SWIDTH 596 0
DWIDTH 37 0
BBX 29 56 4 -1
BITMAP
03C00F00
0FE01FC0
0FF03FC0
0FF03FC0
0FF03FC0
0FE01FC0
07C00F00
00000000
00000000
00000000
00000000
FF0007F8
FF0007F8
FF0007F8
FF0007F8
FF0007F8
FF0007F8
FF0007F8
FF0007F8
FF0007F8
FF0007F8
FF0007F8
FF0007F8
FF0007F8
FF0007F8
FF0007F8
FF0007F8
FF0007F8
FF0007F8
FF0007F8
FF0007F8
FF0007F8
FF0007F8
FF0007F8
FF0007F8
FF0007F8
FF0007F8
FF0007F8
FF0007F8
FF0007F8
FF0007F8
FF0007F8
FF8007F8
FF8007F8
FF800FF8
7F800FF8
7FC01FF0
7FE03FF0
3FF87FF0
3FFFFFE0
1FFFFFC0
0FFFFF80
07FFFF00
01FFFE00
007FF800
00020000
ENDCHAR
STARTCHAR 00DD
ENCODING 221
SWIDTH 596 0
DWIDTH 37 0
BBX 35 54 2 0
BITMAP
00001FF000
00003FE000
00003FC000
00007F8000
0000FF0000
0000FE0000
0001FC0000
0003F80000
0000000000
0000000000
FF80003FE0
FF80007FE0
7FC0007FC0
7FC000FFC0
7FE000FF80
3FE000FF80
3FE001FF00
1FF001FF00
1FF003FE00
0FF803FE00
0FF807FC00
07FC07FC00
07FC07F800
03FC0FF800
03FE0FF000
01FE1FF000
01FF1FE000
00FF3FE000
00FFBFC000
007FBFC000
007FFF8000
003FFF8000
003FFF0000
001FFF0000
001FFE0000
000FFE0000
000FFE0000
0007FC0000
0007FC0000
0007F80000
0007F80000
0007F80000
0007F80000
0007F80000
0007F80000
0007F80000
0007F80000
0007F80000
0007F80000
0007F80000
0007F80000
0007F80000
0007F80000
0007F80000
ENDCHAR
STARTCHAR 00DE
ENCODING 222
SWIDTH 596 0
DWIDTH 37 0
BBX 31 44 4 0
BITMAP
FF000000
FF000000
FF000000
FF000000
FF000000
FF000000
FF000000
FF000000
FFFFE000
FFFFFE00
FFFFFF80
FFFFFFE0
FFFFFFF0
FFFFFFF8
FFFFFFF8
FF001FFC
FF0007FC
FF0003FE
FF0003FE
FF0001FE
FF0001FE
FF0001FE
FF0001FE
FF0001FE
FF0003FE
FF0003FE
FF0007FE
FF001FFC
FFFFFFFC
FFFFFFF8
FFFFFFF0
FFFFFFE0
FFFFFFC0
FFFFFF00
FFFFF000
FF000000
FF000000
FF000000
FF000000
FF000000
FF000000
FF000000
FF000000
FF000000
ENDCHAR
STARTCHAR 00DF
ENCODING 223
SWIDTH 596 0
DWIDTH 37 0
BBX 31 48 5 -1
BITMAP
003FC000
01FFF800
07FFFC00
0FFFFE00
1FFFFF00
3FFFFF80
3FFFFF80
7FE0FFC0
7FC07FC0
7F807FC0
FF807FC0
FF803FC0
FF803FC0
FF007FC0
FF007FC0
FF007F80
FF00FF80
FF00FF00
FF01FF00
FF01FE00
FF01FE00
FF01FE00
FF01FE00
FF01FE00
FF01FF00
FF01FF80
FF00FFC0
FF00FFE0
FF007FF0
FF003FF0
FF001FF8
FF000FFC
FF0007FC
FF0007FE
FF0003FE
FF0003FE
FF0001FE
FF0003FE
FF0003FE
FF0803FE
FF0F0FFC
FF1FFFFC
FF1FFFFC
FF1FFFF8
FF1FFFF0
FF3FFFE0
FF0FFF80
00003000
ENDCHAR
STARTCHAR 00E0
ENCODING 224
SWIDTH 596 0
DWIDTH 37 0
BBX 30 46 3 -1
BITMAP
0FF80000
07FC0000
03FC0000
01FE0000
00FF0000
007F0000
003F8000
001FC000
00000000
00000000
00000000
00000000
00020000
00FFF800
03FFFE00
0FFFFF80
1FFFFFC0
3FFFFFE0
3FFFFFE0
7FF0FFF0
7FC01FF0
7F800FF0
7F800FF0
00000FF0
00000FF0
003FFFF0
03FFFFF0
0FFFFFF0
1FFFFFF0
3FFFFFF0
7FF00FF0
7FC00FF0
FF800FF0
FF800FF0
FF000FF0
FF000FF0
FF801FF0
FF803FF0
FFE0FFF0
7FFFFFF0
7FFFFFF8
3FFFFFF8
1FFFFFF8
0FFFC7F8
03FF07FC
00300000
ENDCHAR
STARTCHAR 00E1
ENCODING 225
SWIDTH 596 0
DWIDTH 37 0
BBX 30 46 3 -1
BITMAP
0000FF80
0000FF00
0001FE00
0003FC00
0007F800
0007F000
000FE000
001FC000
00000000
00000000
00000000
00000000
00020000
00FFF800
03FFFE00
0FFFFF80
1FFFFFC0
3FFFFFE0
3FFFFFE0
7FF0FFF0
7FC01FF0
7F800FF0
7F800FF0
00000FF0
00000FF0
003FFFF0
03FFFFF0
0FFFFFF0
1FFFFFF0
3FFFFFF0
7FF00FF0
7FC00FF0
FF800FF0
FF800FF0
FF000FF0
FF000FF0
FF801FF0
FF803FF0
FFE0FFF0
7FFFFFF0
7FFFFFF8
3FFFFFF8
1FFFFFF8
0FFFC7F8
03FF07FC
00300000
ENDCHAR
STARTCHAR 00E2
ENCODING 226
SWIDTH 596 0
DWIDTH 37 0
BBX 30 48 3 -1
BITMAP
000F8000
001FC000
003FE000
00FFF800
01FFFC00
03FDFE00
07F8FF00
0FF07F80
1FC01FC0
00000000
00000000
00000000
00000000
00000000
00020000
00FFF800
03FFFE00
0FFFFF80
1FFFFFC0
3FFFFFE0
3FFFFFE0
7FF0FFF0
7FC01FF0
7F800FF0
7F800FF0
00000FF0
00000FF0
003FFFF0
03FFFFF0
0FFFFFF0
1FFFFFF0
3FFFFFF0
7FF00FF0
7FC00FF0
FF800FF0
FF800FF0
FF000FF0
FF000FF0
FF801FF0
FF803FF0
FFE0FFF0
7FFFFFF0
7FFFFFF8
3FFFFFF8
1FFFFFF8
0FFFC7F8
03FF87FC
00300000
ENDCHAR
STARTCHAR 00E3
ENCODING 227
SWIDTH 596 0
DWIDTH 37 0
BBX 30 48 3 -1
BITMAP
00000400
01F807C0
03FE0F80
07FFFF80
0FFFFF80
0FFFFF00
0F87FF00
1F01FE00
07007000
00000000
00000000
00000000
00000000
00000000
00020000
00FFF800
03FFFE00
0FFFFF80
1FFFFFC0
3FFFFFE0
3FFFFFE0
7FF0FFF0
7FC01FF0
7F800FF0
7F800FF0
00000FF0
00000FF0
003FFFF0
03FFFFF0
0FFFFFF0
1FFFFFF0
3FFFFFF0
7FF00FF0
7FC00FF0
FF800FF0
FF800FF0
FF000FF0
FF000FF0
FF801FF0
FF803FF0
FFE0FFF0
7FFFFFF0
7FFFFFF8
3FFFFFF8
1FFFFFF8
0FFFC7F8
03FF87FC
00300000
ENDCHAR
STARTCHAR 00E4
ENCODING 228
SWIDTH 596 0
DWIDTH 37 0
BBX 30 47 3 -1
BITMAP
07801F00
0FE03F80
1FE03FC0
1FE03FC0
1FE03FC0
0FE03F80
07801F00
00000000
00000000
00000000
00000000
00000000
00000000
00020000
00FFF800
03FFFE00
0FFFFF80
1FFFFFC0
3FFFFFE0
3FFFFFE0
7FF0FFF0
7FC01FF0
7F800FF0
7F800FF0
00000FF0
00000FF0
003FFFF0
03FFFFF0
0FFFFFF0
1FFFFFF0
3FFFFFF0
7FF00FF0
7FC00FF0
FF800FF0
FF800FF0
FF000FF0
FF000FF0
FF801FF0
FF803FF0
FFE0FFF0
7FFFFFF0
7FFFFFF8
3FFFFFF8
1FFFFFF8
0FFFC7F8
03FF87FC
00300000
ENDCHAR
STARTCHAR 00E5
ENCODING 229
SWIDTH 596 0
DWIDTH 37 0
BBX 30 49 3 -1
BITMAP
000F8000
003FE000
007FF000
00707000
00E03800
00E03800
00E03800
00E03800
00787000
007FF000
003FE000
000F8000
00000000
00000000
00000000
00020000
00FFF800
03FFFE00
0FFFFF80
1FFFFFC0
3FFFFFE0
3FFFFFE0
7FF0FFF0
7FC01FF0
7F800FF0
7F800FF0
00000FF0
00000FF0
003FFFF0
03FFFFF0
0FFFFFF0
1FFFFFF0
3FFFFFF0
7FF00FF0
7FC00FF0
FF800FF0
FF800FF0
FF000FF0
FF000FF0
FF801FF0
FF803FF0
FFE0FFF0
7FFFFFF0
7FFFFFF8
3FFFFFF8
1FFFFFF8
0FFFC7F8
03FF87FC
00300000
ENDCHAR
STARTCHAR 00E6
ENCODING 230
SWIDTH 596 0
DWIDTH 37 0
BBX 35 33 1 0
BITMAP
03FF0FFC00
0FFFFFFE00
1FFFFFFF00
3FFFFFFF80
7FFFFFFFC0
7FFFFFFFC0
7FC7FE3FC0
7F83F81FE0
7F83F81FE0
0003F81FE0
0003F81FE0
0003F81FE0
007FFFFFE0
03FFFFFFE0
0FFFFFFFE0
1FFFFFFFE0
3FFFFFFFE0
7FFFFFFFE0
7FF3F80000
FFC3F80000
FFC3F80000
FF83F80000
FF83F80000
FF83FC0000
FF83FC0000
FFC3FF0780
7FFFFFFF80
7FFFFFFF80
7FFFFFFFC0
3FFF7FFFC0
1FFE3FFFC0
07FC0FFE00
004000C000
ENDCHAR
STARTCHAR 00E7
ENCODING 231
SWIDTH 612 0
DWIDTH 38 0
BBX 29 47 4 -14
BITMAP
00010000
007FF800
01FFFE00
03FFFF80
07FFFFC0
0FFFFFE0
1FFFFFF0
3FF87FF0
3FE01FF8
7FC00FF8
7FC00FF8
7F8007F8
FF8007F8
FF800000
FF800000
FF000000
FF000000
FF000000
FF000000
FF000000
FF800000
FF800000
7F8007F8
7F8007F8
7FC00FF8
3FE01FF8
3FF03FF0
1FFFFFF0
0FFFFFE0
07FFFFC0
03FFFF80
01FFFE00
007FF800
000FC000
000FE000
000FF800
000FFC00
0001FE00
0000FE00
0000FE00
0000FE00
0001FE00
000FFC00
000FFC00
000FF800
000FE000
000F8000
ENDCHAR
STARTCHAR 00E8
ENCODING 232
SWIDTH 596 0
DWIDTH 37 0
BBX 31 47 3 -1
BITMAP
07FC0000
03FC0000
01FE0000
00FF0000
007F0000
003F8000
001FC000
000FC000
00000000
00000000
00000000
00000000
00000000
00008000
001FFC00
00FFFF00
01FFFFC0
03FFFFE0
07FFFFF0
0FFFFFF8
1FFC1FF8
3FF007FC
3FE003FC
3FC003FE
7FC001FE
7FC001FE
7F8001FE
7FFFFFFE
7FFFFFFE
FFFFFFFE
FFFFFFFE
FFFFFFFE
7FFFFFFE
7F800000
7FC00000
7FC00000
7FE00020
3FE00070
3FF800F8
1FFE07FC
0FFFFFFE
07FFFFFC
03FFFFF8
01FFFFF0
007FFFC0
001FFF00
0000C000
ENDCHAR
STARTCHAR 00E9
ENCODING 233
SWIDTH 596 0
DWIDTH 37 0
BBX 31 46 3 -1
BITMAP
00007FC0
0000FF80
0000FF00
0001FE00
0003FC00
0003F800
0007F000
000FE000
00000000
00000000
00000000
00000000
00008000
001FFC00
00FFFF00
01FFFFC0
03FFFFE0
07FFFFF0
0FFFFFF8
1FFC1FF8
3FF007FC
3FE003FC
3FC003FE
7FC001FE
7FC001FE
7F8001FE
7FFFFFFE
7FFFFFFE
FFFFFFFE
FFFFFFFE
FFFFFFFE
7FFFFFFE
7F800000
7FC00000
7FC00000
7FE00020
3FE00070
3FF800F8
1FFE07FC
0FFFFFFE
07FFFFFC
03FFFFF8
01FFFFF0
007FFFC0
001FFF00
0000C000
ENDCHAR
STARTCHAR 00EA
ENCODING 234
SWIDTH 596 0
DWIDTH 37 0
BBX 31 48 3 -1
BITMAP
0007C000
000FE000
003FF000
007FF800
00FFFE00
01FEFF00
03FC7F80
07F03FC0
0FE01FE0
00000000
00000000
00000000
00000000
00000000
00008000
001FFC00
00FFFF00
01FFFFC0
03FFFFE0
07FFFFF0
0FFFFFF8
1FFC1FF8
3FF007FC
3FE003FC
3FC003FE
7FC001FE
7FC001FE
7F8001FE
7FFFFFFE
7FFFFFFE
FFFFFFFE
FFFFFFFE
FFFFFFFE
7FFFFFFE
7F800000
7F800000
7FC00000
7FC00000
3FE00070
3FF800F8
1FFE07FC
0FFFFFFE
07FFFFFC
03FFFFF8
01FFFFF0
007FFFC0
001FFF00
0000C000
ENDCHAR
STARTCHAR 00EB
ENCODING 235
SWIDTH 596 0
DWIDTH 37 0
BBX 31 47 3 -1
BITMAP
03C00F80
07F01FC0
0FF01FE0
0FF01FE0
0FF01FE0
07F01FC0
03C00F80
00000000
00000000
00000000
00000000
00000000
00000000
00008000
001FFC00
00FFFF00
01FFFFC0
03FFFFE0
07FFFFF0
0FFFFFF8
1FFC1FF8
3FF807FC
3FF003FC
3FE003FE
7FC001FE
7FC001FE
7FC001FE
7FFFFFFE
7FFFFFFE
FFFFFFFE
FFFFFFFE
FFFFFFFE
7FFFFFFE
7FC00000
7FC00000
7FC00000
7FE00000
3FF00030
3FF800F8
1FFF07FC
0FFFFFFE
07FFFFFC
03FFFFF8
01FFFFF0
007FFFC0
001FFF00
0000C000
ENDCHAR
STARTCHAR 00EC
ENCODING 236
SWIDTH 596 0
DWIDTH 37 0
BBX 28 44 6 0
BITMAP
0FF80000
07F80000
03FC0000
01FE0000
00FE0000
007F0000
003F8000
001F8000
00000000
00000000
00000000
00000000
FFFFC000
FFFFC000
FFFFC000
FFFFC000
FFFFC000
FFFFC000
FFFFC000
003FC000
003FC000
003FC000
003FC000
003FC000
003FC000
003FC000
003FC000
003FC000
003FC000
003FC000
003FC000
003FC000
003FC000
003FC000
003FC000
003FC000
003FC000
FFFFFFF0
FFFFFFF0
FFFFFFF0
FFFFFFF0
FFFFFFF0
FFFFFFF0
FFFFFFF0
ENDCHAR
STARTCHAR 00ED
ENCODING 237
SWIDTH 596 0
DWIDTH 37 0
BBX 28 44 6 0
BITMAP
0000FF80
0001FF00
0001FE00
0003FC00
0007F800
0007F000
000FE000
001FC000
00000000
00000000
00000000
00000000
FFFFC000
FFFFC000
FFFFC000
FFFFC000
FFFFC000
FFFFC000
FFFFC000
003FC000
003FC000
003FC000
003FC000
003FC000
003FC000
003FC000
003FC000
003FC000
003FC000
003FC000
003FC000
003FC000
003FC000
003FC000
003FC000
003FC000
003FC000
FFFFFFF0
FFFFFFF0
FFFFFFF0
FFFFFFF0
FFFFFFF0
FFFFFFF0
FFFFFFF0
ENDCHAR
STARTCHAR 00EE
ENCODING 238
SWIDTH 596 0
DWIDTH 37 0
BBX 28 46 6 0
BITMAP
001F8000
003FE000
007FF000
00FFF800
01FFFC00
03F9FE00
0FF0FF00
1FE03FC0
1FC01FC0
00000000
00000000
00000000
00000000
00000000
FFFFC000
FFFFC000
FFFFC000
FFFFC000
FFFFC000
FFFFC000
FFFFC000
003FC000
003FC000
003FC000
003FC000
003FC000
003FC000
003FC000
003FC000
003FC000
003FC000
003FC000
003FC000
003FC000
003FC000
003FC000
003FC000
003FC000
003FC000
FFFFFFF0
FFFFFFF0
FFFFFFF0
FFFFFFF0
FFFFFFF0
FFFFFFF0
FFFFFFF0
ENDCHAR
STARTCHAR 00EF
ENCODING 239
SWIDTH 596 0
DWIDTH 37 0
BBX 28 44 6 1
BITMAP
0FC03F00
1FE07F80
1FE07F80
1FE07F80
1FE07F80
0FC03F00
02000000
00000000
00000000
00000000
00000000
00000000
FFFFC000
FFFFC000
FFFFC000
FFFFC000
FFFFC000
FFFFC000
FFFFC000
003FC000
003FC000
003FC000
003FC000
003FC000
003FC000
003FC000
003FC000
003FC000
003FC000
003FC000
003FC000
003FC000
003FC000
003FC000
003FC000
003FC000
003FC000
FFFFFFF0
FFFFFFF0
FFFFFFF0
FFFFFFF0
FFFFFFF0
FFFFFFF0
FFFFFFF0
ENDCHAR
STARTCHAR 00F0
ENCODING 240
SWIDTH 596 0
DWIDTH 37 0
BBX 32 46 1 -1
BITMAP
00038000
0007E008
0007F83C
000FFCFE
000FFFFE
000FFFF8
000FFFE0
0003FFC0
0001FFE0
0007FFF0
001FFFF0
007FDFF8
003F0FF8
003C07FC
001007FC
000003FC
003FC3FE
00FFFBFE
03FFFDFE
07FFFFFE
0FFFFFFF
1FFFFFFF
3FFFFFFF
3FF00FFF
7FE003FF
7FC000FF
FF8000FF
FF8000FF
FF8000FF
FF8000FF
FF0001FF
FF0001FF
FF8001FE
FF8001FE
FF8003FE
7FC003FE
7FC007FC
3FF00FFC
3FFC3FF8
1FFFFFF0
0FFFFFE0
07FFFFC0
03FFFF80
01FFFF00
003FF800
00010000
ENDCHAR
STARTCHAR 00F1
ENCODING 241
SWIDTH 596 0
DWIDTH 37 0
BBX 29 46 4 1
BITMAP
01F80780
07FE0F80
07FFFF80
0FFFFF80
0FFFFF00
1F8FFE00
1F03FC00
06007000
00000000
00000000
00000000
00000000
00000000
00000000
FF07FE00
FF1FFF80
FF3FFFC0
FF7FFFE0
FFFFFFF0
FFFFFFF0
FFF03FF8
FFC01FF8
FF800FF8
FF0007F8
FF0007F8
FF0007F8
FF0007F8
FF0007F8
FF0007F8
FF0007F8
FF0007F8
FF0007F8
FF0007F8
FF0007F8
FF0007F8
FF0007F8
FF0007F8
FF0007F8
FF0007F8
FF0007F8
FF0007F8
FF0007F8
FF0007F8
FF0007F8
FF0007F8
FF0007F8
ENDCHAR
STARTCHAR 00F2
ENCODING 242
SWIDTH 596 0
DWIDTH 37 0
BBX 31 46 3 -1
BITMAP
07FC0000
03FE0000
01FE0000
00FF0000
007F8000
003F8000
001FC000
000FE000
00000000
00000000
00000000
00000000
00010000
007FFC00
01FFFF00
03FFFF80
07FFFFC0
0FFFFFE0
1FFFFFF0
3FF83FF8
3FE00FF8
7FC007FC
7FC007FC
7F8003FC
FF8003FE
FF8003FE
FF8003FE
FF0001FE
FF0001FE
FF0001FE
FF0001FE
FF8003FE
FF8003FE
FF8003FE
7F8003FC
7FC007FC
7FC007FC
3FE00FF8
3FF83FF8
1FFFFFF0
0FFFFFE0
07FFFFC0
03FFFF80
01FFFF00
007FFC00
00010000
ENDCHAR
STARTCHAR 00F3
ENCODING 243
SWIDTH 596 0
DWIDTH 37 0
BBX 31 46 3 -1
BITMAP
00007FE0
00007FC0
0000FF80
0001FE00
0001FC00
0003F800
0007F000
000FE000
00000000
00000000
00000000
00000000
00010000
007FFC00
01FFFF00
03FFFF80
07FFFFC0
0FFFFFE0
1FFFFFF0
3FF83FF8
3FE00FF8
7FC007FC
7FC007FC
7F8003FC
FF8003FE
FF8003FE
FF8003FE
FF0001FE
FF0001FE
FF0001FE
FF0001FE
FF8003FE
FF8003FE
FF8003FE
7F8003FC
7FC007FC
7FC007FC
3FE00FF8
3FF83FF8
1FFFFFF0
0FFFFFE0
07FFFFC0
03FFFF80
01FFFF00
007FFC00
00010000
ENDCHAR
STARTCHAR 00F4
ENCODING 244
SWIDTH 596 0
DWIDTH 37 0
BBX 31 48 3 -1
BITMAP
0007C000
000FE000
001FF800
003FFC00
00FFFE00
01FEFF00
03FC7F80
07F81FC0
0FF00FE0
00000000
00000000
00000000
00000000
00000000
00010000
007FFC00
01FFFF00
03FFFF80
07FFFFC0
0FFFFFE0
1FFFFFF0
3FF83FF8
3FE00FF8
7FC007FC
7FC007FC
7F8003FC
FF8003FE
FF8003FE
FF8003FE
FF0001FE
FF0001FE
FF0001FE
FF0001FE
FF8003FE
FF8003FE
FF8003FE
7F8003FC
7FC007FC
7FC007FC
3FE00FF8
3FF83FF8
1FFFFFF0
0FFFFFE0
07FFFFC0
03FFFF80
01FFFF00
007FFC00
00010000
ENDCHAR
STARTCHAR 00F5
ENCODING 245
SWIDTH 596 0
DWIDTH 37 0
BBX 31 47 3 0
BITMAP
00FC03E0
01FF83E0
03FFFFC0
07FFFFC0
07FFFFC0
07C3FF80
0780FF00
03803C00
00000000
00000000
00000000
00000000
00000000
00010000
007FFC00
01FFFF00
03FFFF80
07FFFFC0
0FFFFFE0
1FFFFFF0
3FF83FF8
3FE00FF8
7FC007FC
7FC007FC
7F8003FC
FF8003FE
FF8003FE
FF8003FE
FF0001FE
FF0001FE
FF0001FE
FF0001FE
FF8003FE
FF8003FE
FF8003FE
7F8003FC
7FC007FC
7FC007FC
3FE00FF8
3FF83FF8
1FFFFFF0
0FFFFFE0
07FFFFC0
03FFFF80
01FFFF00
007FFC00
00010000
ENDCHAR
STARTCHAR 00F6
ENCODING 246
SWIDTH 596 0
DWIDTH 37 0
BBX 31 47 3 -1
BITMAP
03C00F80
07F01FC0
0FF01FE0
0FF01FE0
0FF01FE0
07F01FC0
03E00F80
00000000
00000000
00000000
00000000
00000000
00000000
00010000
007FFC00
01FFFF00
03FFFF80
07FFFFC0
0FFFFFE0
1FFFFFF0
3FF83FF8
3FE00FF8
7FC007FC
7FC007FC
7F8003FC
FF8003FE
FF8003FE
FF8003FE
FF0001FE
FF0001FE
FF0001FE
FF0001FE
FF8003FE
FF8003FE
FF8003FE
7F8003FC
7FC007FC
7FC007FC
3FE00FF8
3FF83FF8
1FFFFFF0
0FFFFFE0
07FFFFC0
03FFFF80
01FFFF00
007FFC00
00010000
ENDCHAR
STARTCHAR 00F7
ENCODING 247
SWIDTH 596 0
DWIDTH 37 0
BBX 31 33 3 4
BITMAP
0007C000
000FE000
001FF000
001FF000
001FF000
001FF000
000FE000
0007C000
00000000
00000000
00000000
00000000
00000000
FFFFFFFE
FFFFFFFE
FFFFFFFE
FFFFFFFE
FFFFFFFE
FFFFFFFE
FFFFFFFE
00000000
00000000
00000000
00000000
00000000
0007C000
000FE000
001FF000
001FF000
001FF000
001FF000
000FE000
0007C000
ENDCHAR
STARTCHAR 00F8
ENCODING 248
SWIDTH 596 0
DWIDTH 37 0
BBX 31 41 3 -4
BITMAP
000001F0
000001F0
000001E0
000003E0
000003C0
007FFFC0
01FFFFC0
03FFFF80
07FFFFC0
0FFFFFE0
1FFFFFF0
3FF83FF8
3FE03FF8
7FC07FFC
7FC07FFC
7F80FBFC
FF80FBFE
FF81F3FE
FF81E3FE
FF03E1FE
FF03C1FE
FF07C1FE
FF0781FE
FF8F83FE
FF8F03FE
FF9F03FE
7F9E03FC
7FFE07FC
7FFC07FC
3FFC0FF8
3FF83FF8
1FFFFFF0
0FFFFFE0
07FFFFC0
03FFFF80
03FFFF00
03FFFC00
07C30000
07800000
0F800000
0F000000
ENDCHAR
STARTCHAR 00F9
ENCODING 249
SWIDTH 612 0
DWIDTH 38 0
BBX 29 45 5 -1
BITMAP
0FF80000
07F80000
03FC0000
01FE0000
00FF0000
007F0000
003F8000
001FC000
00000000
00000000
00000000
00000000
FF0007F8
FF0007F8
FF0007F8
FF0007F8
FF0007F8
FF0007F8
FF0007F8
FF0007F8
FF0007F8
FF0007F8
FF0007F8
FF0007F8
FF0007F8
FF0007F8
FF0007F8
FF0007F8
FF0007F8
FF0007F8
FF0007F8
FF0007F8
FF0007F8
FF8007F8
FF800FF8
FF800FF8
7FC01FF8
7FF07FF8
7FFFFFF8
3FFFFFF8
1FFFF7F8
1FFFE7F8
07FFC7F8
03FF07F8
00100000
ENDCHAR
STARTCHAR 00FA
ENCODING 250
SWIDTH 612 0
DWIDTH 38 0
BBX 29 45 5 -1
BITMAP
0000FF80
0000FF00
0001FE00
0003FC00
0007F800
0007F000
000FE000
001FC000
00000000
00000000
00000000
00000000
FF0007F8
FF0007F8
FF0007F8
FF0007F8
FF0007F8
FF0007F8
FF0007F8
FF0007F8
FF0007F8
FF0007F8
FF0007F8
FF0007F8
FF0007F8
FF0007F8
FF0007F8
FF0007F8
FF0007F8
FF0007F8
FF0007F8
FF0007F8
FF0007F8
FF8007F8
FF800FF8
FF800FF8
7FC01FF8
7FF07FF8
7FFFFFF8
3FFFFFF8
1FFFF7F8
1FFFE7F8
07FFC7F8
03FF07F8
00100000
ENDCHAR
STARTCHAR 00FB
ENCODING 251
SWIDTH 612 0
DWIDTH 38 0
BBX 29 47 5 -1
BITMAP
001FC000
003FE000
007FF000
00FFF800
01FFFC00
03F8FE00
0FF07F80
1FE03FC0
1FC01FC0
00000000
00000000
00000000
00000000
00000000
FF0007F8
FF0007F8
FF0007F8
FF0007F8
FF0007F8
FF0007F8
FF0007F8
FF0007F8
FF0007F8
FF0007F8
FF0007F8
FF0007F8
FF0007F8
FF0007F8
FF0007F8
FF0007F8
FF0007F8
FF0007F8
FF0007F8
FF0007F8
FF0007F8
FF8007F8
FF800FF8
FF800FF8
7FC01FF8
7FF07FF8
7FFFFFF8
3FFFFFF8
1FFFF7F8
1FFFE7F8
07FFC7F8
03FF07F8
00100000
ENDCHAR
STARTCHAR 00FC
ENCODING 252
SWIDTH 612 0
DWIDTH 38 0
BBX 29 46 5 -1
BITMAP
07801E00
1FC03F80
1FE07F80
1FE07F80
1FE07F80
1FC03F80
0F801E00
00000000
00000000
00000000
00000000
00000000
00000000
FF0007F8
FF0007F8
FF0007F8
FF0007F8
FF0007F8
FF0007F8
FF0007F8
FF0007F8
FF0007F8
FF0007F8
FF0007F8
FF0007F8
FF0007F8
FF0007F8
FF0007F8
FF0007F8
FF0007F8
FF0007F8
FF0007F8
FF0007F8
FF0007F8
FF8007F8
FF800FF8
FF800FF8
7FC01FF8
7FF07FF8
7FFFFFF8
3FFFFFF8
1FFFF7F8
1FFFE7F8
07FFC7F8
03FF07F8
00100000
ENDCHAR
STARTCHAR 00FD
ENCODING 253
SWIDTH 596 0
DWIDTH 37 0
BBX 35 58 2 -13
BITMAP
00001FF000
00001FE000
00003FC000
00007F8000
0000FF0000
0000FE0000
0001FC0000
0003F80000
0000000000
0000000000
0000000000
0000000000
0000000000
FF80003FE0
FF80007FE0
7FC0007FC0
7FC000FFC0
3FE000FF80
3FE000FF80
1FE001FF00
1FF001FF00
1FF003FE00
0FF803FE00
0FF803FC00
07F807FC00
07FC07FC00
03FC0FF800
03FE0FF800
01FE0FF000
01FE1FF000
00FF1FE000
00FF3FE000
00FFBFC000
007FBFC000
007FFF8000
003FFF8000
003FFF0000
001FFF0000
001FFF0000
000FFE0000
000FFE0000
0007FC0000
0007FC0000
0007F80000
0007F80000
000FF00000
000FF00000
001FE00000
003FE00000
003FE00000
00FFC00000
0FFFC00000
0FFF800000
0FFF000000
0FFE000000
0FFC000000
1FF0000000
0100000000
ENDCHAR
STARTCHAR 00FE
ENCODING 254
SWIDTH 596 0
DWIDTH 37 0
BBX 29 59 4 -12
BITMAP
FF000000
FF000000
FF000000
FF000000
FF000000
FF000000
FF000000
FF000000
FF000000
FF000000
FF000000
FF000000
FF000000
FF000000
FF000000
FF0FFC00
FF3FFF00
FF7FFF80
FFFFFFC0
FFFFFFE0
FFFFFFE0
FFF0FFF0
FFC03FF0
FF801FF0
FF000FF8
FF000FF8
FF000FF8
FF0007F8
FF0007F8
FF0007F8
FF0007F8
FF0007F8
FF0007F8
FF0007F8
FF0007F8
FF000FF8
FF000FF8
FF000FF8
FF801FF0
FFC03FF0
FFF0FFF0
FFFFFFE0
FFFFFFC0
FFFFFFC0
FF7FFF80
FF3FFE00
FF0FFC00
FF008000
FF000000
FF000000
FF000000
FF000000
FF000000
FF000000
FF000000
FF000000
FF000000
FF000000
FF000000
ENDCHAR
STARTCHAR 00FF
ENCODING 255
SWIDTH 596 0
DWIDTH 37 0
BBX 35 58 2 -13
BITMAP
00F003E000
01FC07F000
03FC07F800
03FC07F800
03FC07F800
01FC07F000
00F003E000
0000000000
0000000000
0000000000
0000000000
0000000000
0000000000
FF80003FE0
FF80007FE0
7FC0007FC0
7FC0007FC0
3FE000FF80
3FE000FF80
1FE001FF00
1FF001FF00
1FF001FF00
0FF803FE00
0FF803FE00
07FC07FC00
07FC07FC00
03FC07F800
03FE0FF800
01FE0FF000
01FF1FF000
00FF1FE000
00FF1FE000
007FBFC000
007FBFC000
007FFFC000
003FFF8000
003FFF8000
001FFF0000
001FFF0000
000FFE0000
000FFE0000
0007FC0000
0007FC0000
0007F80000
0007F80000
000FF80000
000FF00000
001FF00000
003FE00000
003FE00000
00FFC00000
0FFFC00000
0FFF800000
0FFF000000
0FFE000000
0FFC000000
1FF0000000
0100000000
ENDCHAR
STARTCHAR 0100
ENCODING 256
SWIDTH 596 0
DWIDTH 37 0
BBX 36 53 1 0
BITMAP
01FFFFF800
01FFFFF800
01FFFFF800
01FFFFF800
01FFFFF800
0000000000
0000000000
0000000000
0000000000
0003FC0000
0003FC0000
0007FE0000
0007FE0000
0007FE0000
000FFF0000
000FFF0000
000FFF0000
001FFF0000
001FFF8000
001FFF8000
003FFF8000
003FFFC000
003FBFC000
007F9FC000
007F9FE000
007F1FE000
00FF1FE000
00FF0FF000
00FF0FF000
01FE0FF000
01FE07F800
01FE07F800
03FE07F800
03FC07FC00
03FC03FC00
07FC03FC00
07F803FE00
07FFFFFE00
0FFFFFFE00
0FFFFFFF00
0FFFFFFF00
1FFFFFFF00
1FFFFFFF80
1FFFFFFF80
3FE0007F80
3FE0007F80
3FC0007FC0
7FC0007FC0
7FC0003FC0
7FC0003FE0
FF80003FE0
FF80003FE0
FF80001FF0
ENDCHAR
STARTCHAR 0101
ENCODING 257
SWIDTH 596 0
DWIDTH 37 0
BBX 30 45 3 -1
BITMAP
0FFFFFC0
0FFFFFC0
0FFFFFC0
0FFFFFC0
0FFFFFC0
00000000
00000000
00000000
00000000
00000000
00000000
00020000
00FFF800
03FFFE00
0FFFFF80
1FFFFFC0
3FFFFFE0
3FFFFFE0
7FF0FFF0
7FC01FF0
7F800FF0
7F800FF0
00000FF0
00000FF0
003FFFF0
03FFFFF0
0FFFFFF0
1FFFFFF0
3FFFFFF0
7FF00FF0
7FC00FF0
FF800FF0
FF800FF0
FF000FF0
FF000FF0
FF801FF0
FF803FF0
FFE0FFF0
7FFFFFF0
7FFFFFF8
3FFFFFF8
1FFFFFF8
0FFFC7F8
03FF87FC
00300000
ENDCHAR
STARTCHAR 0102
ENCODING 258
SWIDTH 612 0
DWIDTH 38 0
BBX 37 56 1 0
BITMAP
00FC01F800
00FC01F800
00FE03F800
007F07F000
007FFFF000
003FFFE000
001FFFC000
000FFF8000
0003FC0000
0000000000
0000000000
0000000000
0003FE0000
0003FE0000
0003FE0000
0007FF0000
0007FF0000
0007FF0000
000FFF8000
000FFF8000
000FFF8000
001FFFC000
001FFFC000
001FFFC000
003FDFE000
003FDFE000
003FDFE000
007F8FF000
007F8FF000
007F8FF000
00FF0FF800
00FF07F800
00FF07F800
01FF07F800
01FE03FC00
01FE03FC00
03FE03FC00
03FC03FE00
03FC01FE00
07FC01FE00
07FFFFFF00
07FFFFFF00
0FFFFFFF00
0FFFFFFF80
0FFFFFFF80
1FFFFFFF80
1FFFFFFFC0
1FE0007FC0
3FE0003FC0
3FE0003FE0
3FC0003FE0
7FC0001FE0
7FC0001FF0
7FC0001FF0
FF80001FF0
FF80000FF8
ENDCHAR
STARTCHAR 0103
ENCODING 259
SWIDTH 596 0
DWIDTH 37 0
BBX 30 47 3 -1
BITMAP
0FC01F80
0FC01F80
0FE03F80
07F07F00
07FFFF00
03FFFE00
01FFFC00
00FFF800
001FC000
00000000
00000000
00000000
00000000
00020000
00FFF800
07FFFE00
0FFFFF80
1FFFFFC0
3FFFFFE0
7FFFFFE0
7FE0FFF0
7FC01FF0
7F800FF0
00000FF0
00000FF0
00000FF0
003FFFF0
03FFFFF0
0FFFFFF0
1FFFFFF0
3FFFFFF0
7FF00FF0
7FC00FF0
FF800FF0
FF800FF0
FF000FF0
FF000FF0
FF801FF0
FF803FF0
FFE0FFF0
7FFFFFF0
7FFFFFF8
3FFFFFF8
1FFFFFF8
0FFFC7F8
03FF87FC
00300000
ENDCHAR
STARTCHAR 0104
ENCODING 260
SWIDTH 596 0
DWIDTH 37 0
BBX 36 57 1 -13
BITMAP
0003FC0000
0003FE0000
0007FE0000
0007FE0000
0007FE0000
000FFF0000
000FFF0000
000FFF0000
000FFF8000
001FFF8000
001FFF8000
001FFFC000
003FFFC000
003FDFC000
003F9FE000
007F9FE000
007F9FE000
007F0FF000
00FF0FF000
00FF0FF000
00FF07F000
01FE07F800
01FE07F800
01FE07F800
03FE03FC00
03FC03FC00
03FC03FC00
07FC01FE00
07FFFFFE00
07FFFFFE00
0FFFFFFF00
0FFFFFFF00
0FFFFFFF00
1FFFFFFF80
1FFFFFFF80
1FE0007F80
3FE0007F80
3FE0007FC0
3FC0003FC0
7FC0003FC0
7FC0003FE0
7FC0003FE0
FF80001FE0
FF80001FF0
0000003F80
0000007E00
000000FC00
000000F800
000001F800
000001F800
000001F800
000001FC40
000001FFC0
000000FFC0
000000FFE0
0000007FE0
0000001F80
ENDCHAR
STARTCHAR 0105
ENCODING 261
SWIDTH 596 0
DWIDTH 37 0
BBX 30 45 3 -12
BITMAP
00020000
00FFF800
03FFFE00
0FFFFF80
1FFFFFC0
3FFFFFE0
3FFFFFE0
7FF07FF0
7FC01FF0
7F800FF0
7F800FF0
00000FF0
00000FF0
003FFFF0
03FFFFF0
0FFFFFF0
1FFFFFF0
3FFFFFF0
7FF00FF0
7FC00FF0
FF800FF0
FF800FF0
FF000FF0
FF000FF0
FF801FF0
FF803FF0
FFE0FFF0
7FFFFFF0
7FFFFFF8
3FFFFFF8
1FFFFFF8
0FFFC7F8
03FF07FC
00300FE0
00001F80
00003F00
00007E00
00007E00
00007E00
00007F00
00007FF0
00007FF8
00003FF8
00001FF8
000007F0
ENDCHAR
STARTCHAR 0106
ENCODING 262
SWIDTH 596 0
DWIDTH 37 0
BBX 32 56 2 -1
BITMAP
00000FF8
00001FF0
00001FE0
00003FC0
00007F80
0000FF00
0000FE00
0001FC00
00000000
00000000
00008000
001FFE00
00FFFF80
01FFFFC0
03FFFFF0
07FFFFF8
0FFFFFF8
1FFC1FFC
1FF007FC
3FE003FE
3FC001FE
7FC001FF
7F8001FF
7F8001FF
FF8000FF
FF800000
FF800000
FF800000
FF000000
FF000000
FF000000
FF000000
FF000000
FF000000
FF000000
FF000000
FF000000
FF000000
FF000000
FF800000
FF800000
FF8000FF
7F8001FF
7F8001FF
7FC001FF
3FC001FE
3FE003FE
1FF007FE
1FFC1FFC
0FFFFFF8
07FFFFF8
03FFFFF0
01FFFFC0
00FFFF80
003FFE00
00018000
ENDCHAR
STARTCHAR 0107
ENCODING 263
SWIDTH 612 0
DWIDTH 38 0
BBX 29 46 4 -1
BITMAP
00007FC0
0000FF80
0000FF00
0001FE00
0003FC00
0003F800
0007F000
000FE000
00000000
00000000
00000000
00000000
00010000
007FF800
01FFFE00
03FFFF80
07FFFFC0
0FFFFFE0
1FFFFFF0
3FF87FF0
3FE01FF8
7FC00FF8
7FC00FF8
7F8007F8
FF8007F8
FF800000
FF800000
FF000000
FF000000
FF000000
FF000000
FF800000
FF800000
FF800000
7F8007F8
7FC007F8
7FC00FF8
3FE01FF8
3FF87FF0
1FFFFFF0
0FFFFFE0
07FFFFC0
03FFFF80
01FFFE00
007FF800
00010000
ENDCHAR
STARTCHAR 0108
ENCODING 264
SWIDTH 596 0
DWIDTH 37 0
BBX 32 57 2 -1
BITMAP
0001F800
0003FE00
0007FF00
001FFF80
003FFFE0
007F8FF0
00FE07F8
01FC03FC
00000000
00000000
00000000
00008000
001FFE00
00FFFF80
01FFFFC0
03FFFFF0
07FFFFF8
0FFFFFF8
1FFC1FFC
1FF007FC
3FE003FE
3FC001FE
7FC001FF
7F8001FF
7F8001FF
FF8000FF
FF800000
FF800000
FF800000
FF000000
FF000000
FF000000
FF000000
FF000000
FF000000
FF000000
FF000000
FF000000
FF000000
FF000000
FF800000
FF800000
FF8000FF
7F8001FF
7F8001FF
7FC001FF
3FC001FE
3FE003FE
1FF007FE
1FFC1FFC
0FFFFFF8
07FFFFF8
03FFFFF0
01FFFFC0
00FFFF80
003FFE00
00018000
ENDCHAR
STARTCHAR 0109
ENCODING 265
SWIDTH 612 0
DWIDTH 38 0
BBX 29 48 4 -1
BITMAP
0007C000
000FE000
001FF000
007FF800
00FFFE00
01FEFF00
03FC7F80
07F03FC0
0FE01FE0
00000000
00000000
00000000
00000000
00000000
00010000
007FF800
01FFFE00
03FFFF80
07FFFFC0
0FFFFFE0
1FFFFFF0
3FF87FF0
3FE01FF8
7FC00FF8
7FC00FF8
7F8007F8
FF8007F8
FF800000
FF800000
FF000000
FF000000
FF000000
FF000000
FF800000
FF800000
FF800000
7F8007F8
7FC007F8
7FC00FF8
3FE01FF8
3FF87FF0
1FFFFFF0
0FFFFFE0
07FFFFC0
03FFFF80
01FFFE00
007FF800
00010000
ENDCHAR
STARTCHAR 010A
ENCODING 266
SWIDTH 596 0
DWIDTH 37 0
BBX 32 57 2 -1
BITMAP
0000F800
0001FC00
0003FE00
0003FE00
0003FE00
0003FE00
0001FC00
0000F800
00000000
00000000
00000000
00008000
001FFE00
00FFFF80
01FFFFC0
03FFFFF0
07FFFFF8
0FFFFFF8
1FFC1FFC
1FF007FC
3FE003FE
3FC001FE
7FC001FF
7F8001FF
7F8001FF
FF8000FF
FF800000
FF800000
FF800000
FF000000
FF000000
FF000000
FF000000
FF000000
FF000000
FF000000
FF000000
FF000000
FF000000
FF000000
FF800000
FF800000
FF8000FF
7F8001FF
7F8001FF
7FC001FF
3FC001FE
3FE003FE
1FF007FE
1FFC1FFC
0FFFFFF8
07FFFFF8
03FFFFF0
01FFFFC0
00FFFF80
003FFE00
00018000
ENDCHAR
STARTCHAR 010B
ENCODING 267
SWIDTH 612 0
DWIDTH 38 0
BBX 29 47 4 -1
BITMAP
0007C000
000FE000
001FF000
001FF000
001FF000
001FF000
000FE000
0007C000
00000000
00000000
00000000
00000000
00000000
00010000
007FF800
01FFFE00
03FFFF80
07FFFFC0
0FFFFFE0
1FFFFFF0
3FF87FF0
3FE01FF8
7FC00FF8
7FC00FF8
7F8007F8
FF8007F8
FF800000
FF800000
FF000000
FF000000
FF000000
FF000000
FF800000
FF800000
FF800000
7F8007F8
7FC007F8
7FC00FF8
3FE01FF8
3FF87FF0
1FFFFFF0
0FFFFFE0
07FFFFC0
03FFFF80
01FFFE00
007FF800
00010000
ENDCHAR
STARTCHAR 010C
ENCODING 268
SWIDTH 596 0
DWIDTH 37 0
BBX 32 57 2 -1
BITMAP
03FC03FC
00FE07F8
007F8FF0
003FFFC0
001FFF80
000FFF00
0003FE00
0001F800
00000000
00000000
00000000
00008000
001FFE00
00FFFF80
01FFFFC0
03FFFFF0
07FFFFF8
0FFFFFF8
1FFC1FFC
1FF007FC
3FE003FE
3FC001FE
7FC001FF
7F8001FF
7F8001FF
FF8000FF
FF800000
FF800000
FF800000
FF000000
FF000000
FF000000
FF000000
FF000000
FF000000
FF000000
FF000000
FF000000
FF000000
FF000000
FF800000
FF800000
FF8000FF
7F8001FF
7F8001FF
7FC001FF
3FC001FE
3FE003FE
1FF007FE
1FFC1FFC
0FFFFFF8
07FFFFF8
03FFFFF0
01FFFFC0
00FFFF80
003FFE00
00018000
ENDCHAR
STARTCHAR 010D
ENCODING 269
SWIDTH 612 0
DWIDTH 38 0
BBX 29 48 4 -1
BITMAP
0FE00FE0
0FF01FE0
07F83FC0
01FEFF00
00FFFE00
007FFC00
003FF800
001FF000
000FE000
00000000
00000000
00000000
00000000
00000000
00010000
007FF800
01FFFE00
03FFFF80
07FFFFC0
0FFFFFE0
1FFFFFF0
3FF87FF0
3FE01FF8
7FC00FF8
7FC00FF8
7F8007F8
FF8007F8
FF800000
FF800000
FF000000
FF000000
FF000000
FF000000
FF800000
FF800000
FF800000
7F8007F8
7FC007F8
7FC00FF8
3FE01FF8
3FF87FF0
1FFFFFF0
0FFFFFE0
07FFFFC0
03FFFF80
01FFFE00
007FF800
00010000
ENDCHAR
STARTCHAR 010E
ENCODING 270
SWIDTH 596 0
DWIDTH 37 0
BBX 30 56 4 0
BITMAP
7F007F00
7F80FF00
1FC3FC00
0FE7F800
07FFF000
03FFE000
01FFC000
007F0000
003E0000
00000000
00000000
00000000
FFFF0000
FFFFE000
FFFFF800
FFFFFE00
FFFFFF00
FFFFFF80
FFFFFFC0
FF01FFE0
FF007FE0
FF003FF0
FF001FF0
FF000FF8
FF0007F8
FF0007FC
FF0007FC
FF0007FC
FF0003FC
FF0003FC
FF0003FC
FF0003FC
FF0003FC
FF0003FC
FF0003FC
FF0003FC
FF0003FC
FF0003FC
FF0003FC
FF0003FC
FF0003FC
FF0007FC
FF0007FC
FF0007F8
FF000FF8
FF001FF0
FF001FF0
FF007FE0
FF00FFE0
FFFFFFC0
FFFFFF80
FFFFFF00
FFFFFE00
FFFFF800
FFFFE000
FFFF0000
ENDCHAR
STARTCHAR 010F
ENCODING 271
SWIDTH 596 0
DWIDTH 37 0
BBX 41 48 1 -1
BITMAP
000000003F80
000007F83F80
000007F83F80
000007F83F80
000007F83F80
000007F83F80
000007F83F80
000007F83F80
000007F83F80
000007F83F00
000007F87F00
000007F87F00
000007F87E00
000007F8FE00
000007F8FC00
00FFC7F8F800
03FFE7F87000
07FFFFF80000
0FFFFFF80000
1FFFFFF80000
3FFFFFF80000
3FF87FF80000
7FE01FF80000
7FC00FF80000
7FC007F80000
FF8007F80000
FF8007F80000
FF8007F80000
FF8007F80000
FF0007F80000
FF0007F80000
FF0007F80000
FF0007F80000
FF8007F80000
FF8007F80000
FF8007F80000
7F8007F80000
7FC007F80000
7FC00FF80000
7FE01FF80000
3FF87FF80000
3FFFFFF80000
1FFFFFF80000
0FFFFFF80000
07FFFBF80000
03FFE3F80000
00FFC3F80000
000800000000
ENDCHAR
STARTCHAR 0110
ENCODING 272
SWIDTH 596 0
DWIDTH 37 0
BBX 36 44 -1 0
BITMAP
03FFFC0000
03FFFF8000
03FFFFE000
03FFFFF000
03FFFFFC00
03FFFFFE00
03FFFFFE00
03FC07FF00
03FC01FF80
03FC00FF80
03FC007FC0
03FC003FC0
03FC003FE0
03FC001FE0
03FC001FE0
03FC001FF0
03FC001FF0
03FC001FF0
03FC000FF0
03FC000FF0
FFFFF80FF0
FFFFF80FF0
FFFFF80FF0
FFFFF80FF0
FFFFF80FF0
03FC000FF0
03FC001FF0
03FC001FF0
03FC001FF0
03FC001FE0
03FC001FE0
03FC003FE0
03FC003FC0
03FC007FC0
03FC00FFC0
03FC01FF80
03FC07FF00
03FFFFFF00
03FFFFFE00
03FFFFFC00
03FFFFF000
03FFFFE000
03FFFF8000
03FFFC0000
ENDCHAR
STARTCHAR 0111
ENCODING 273
SWIDTH 596 0
DWIDTH 37 0
BBX 34 47 3 -1
BITMAP
000007F800
000007F800
000007F800
000007F800
0007FFFFC0
0007FFFFC0
0007FFFFC0
0007FFFFC0
0007FFFFC0
000007F800
000007F800
000007F800
000007F800
000007F800
00FFC7F800
03FFE7F800
07FFFFF800
0FFFFFF800
1FFFFFF800
3FFFFFF800
3FF87FF800
7FE01FF800
7FC00FF800
7FC007F800
FF8007F800
FF8007F800
FF8007F800
FF8007F800
FF0007F800
FF0007F800
FF0007F800
FF0007F800
FF8007F800
FF8007F800
FF8007F800
7F8007F800
7FC007F800
7FC00FF800
7FE01FF800
3FF87FF800
3FFFFFF800
1FFFFFF800
0FFFFFF800
07FFFBF800
03FFE3F800
00FFC3F800
0008000000
ENDCHAR
STARTCHAR 0112
ENCODING 274
SWIDTH 596 0
DWIDTH 37 0
BBX 30 53 4 0
BITMAP
0FFFFFC0
0FFFFFC0
0FFFFFC0
0FFFFFC0
0FFFFFC0
00000000
00000000
00000000
00000000
FFFFFFFC
FFFFFFFC
FFFFFFFC
FFFFFFFC
FFFFFFFC
FFFFFFFC
FFFFFFFC
FF000000
FF000000
FF000000
FF000000
FF000000
FF000000
FF000000
FF000000
FF000000
FF000000
FF000000
FFFFFFE0
FFFFFFE0
FFFFFFE0
FFFFFFE0
FFFFFFE0
FFFFFFE0
FFFFFFE0
FF000000
FF000000
FF000000
FF000000
FF000000
FF000000
FF000000
FF000000
FF000000
FF000000
FF000000
FF000000
FFFFFFFC
FFFFFFFC
FFFFFFFC
FFFFFFFC
FFFFFFFC
FFFFFFFC
FFFFFFFC
ENDCHAR
STARTCHAR 0113
ENCODING 275
SWIDTH 596 0
DWIDTH 37 0
BBX 31 45 3 -1
BITMAP
0FFFFFC0
0FFFFFC0
0FFFFFC0
0FFFFFC0
0FFFFFC0
00000000
00000000
00000000
00000000
00000000
00000000
00000000
003FFC00
00FFFF00
03FFFFC0
07FFFFE0
0FFFFFF0
1FFFFFF0
1FFC3FF8
3FF00FF8
7FE007FC
7FC003FC
7FC003FC
FF8001FE
FF8001FE
FFFFFFFE
FFFFFFFE
FFFFFFFE
FFFFFFFE
FFFFFFFE
FFFFFFFE
FF800000
FF800000
7FC00000
7FC00000
7FE00060
3FF001F0
3FFE0FF8
1FFFFFFC
0FFFFFFC
07FFFFF8
01FFFFE0
00FFFFC0
001FFE00
0000C000
ENDCHAR
STARTCHAR 0114
ENCODING 276
SWIDTH 596 0
DWIDTH 37 0
BBX 30 56 4 0
BITMAP
07E01F80
07E01F80
07E01F80
07F03F80
03F87F00
03FFFF00
01FFFE00
00FFFC00
007FF800
001FE000
00000000
00000000
FFFFFFFC
FFFFFFFC
FFFFFFFC
FFFFFFFC
FFFFFFFC
FFFFFFFC
FFFFFFFC
FF000000
FF000000
FF000000
FF000000
FF000000
FF000000
FF000000
FF000000
FF000000
FF000000
FF000000
FFFFFFE0
FFFFFFE0
FFFFFFE0
FFFFFFE0
FFFFFFE0
FFFFFFE0
FFFFFFE0
FF000000
FF000000
FF000000
FF000000
FF000000
FF000000
FF000000
FF000000
FF000000
FF000000
FF000000
FF000000
FFFFFFFC
FFFFFFFC
FFFFFFFC
FFFFFFFC
FFFFFFFC
FFFFFFFC
FFFFFFFC
ENDCHAR
STARTCHAR 0115
ENCODING 277
SWIDTH 596 0
DWIDTH 37 0
BBX 31 47 3 -1
BITMAP
07E00FC0
07E00FC0
07F01FC0
03F83F80
03FFFF80
01FFFF00
00FFFE00
007FFC00
000FE000
00000000
00000000
00000000
00000000
00008000
001FFC00
00FFFF00
01FFFFC0
03FFFFE0
07FFFFF0
0FFFFFF8
1FFC1FF8
3FF007FC
3FE003FC
3FC003FE
7FC001FE
7FC001FE
7F8001FE
7FFFFFFE
7FFFFFFE
FFFFFFFE
FFFFFFFE
FFFFFFFE
7FFFFFFE
7F800000
7F800000
7FC00000
7FE00000
3FE00070
3FF800F8
1FFE07FC
0FFFFFFE
07FFFFFC
03FFFFF8
01FFFFF0
007FFFC0
001FFF00
0000C000
ENDCHAR
STARTCHAR 0116
ENCODING 278
SWIDTH 596 0
DWIDTH 37 0
BBX 30 55 4 0
BITMAP
000F8000
001FC000
003FE000
003FE000
003FE000
003FE000
001FC000
000F8000
00000000
00000000
00000000
FFFFFFFC
FFFFFFFC
FFFFFFFC
FFFFFFFC
FFFFFFFC
FFFFFFFC
FFFFFFFC
FF000000
FF000000
FF000000
FF000000
FF000000
FF000000
FF000000
FF000000
FF000000
FF000000
FF000000
FFFFFFE0
FFFFFFE0
FFFFFFE0
FFFFFFE0
FFFFFFE0
FFFFFFE0
FFFFFFE0
FF000000
FF000000
FF000000
FF000000
FF000000
FF000000
FF000000
FF000000
FF000000
FF000000
FF000000
FF000000
FFFFFFFC
FFFFFFFC
FFFFFFFC
FFFFFFFC
FFFFFFFC
FFFFFFFC
FFFFFFFC
ENDCHAR
STARTCHAR 0117
ENCODING 279
SWIDTH 580 0
DWIDTH 36 0
BBX 30 47 3 -1
BITMAP
000F8000
001FC000
003FE000
003FE000
003FE000
003FE000
001FC000
000F8000
00000000
00000000
00000000
00000000
00000000
00000000
003FFC00
00FFFF00
03FFFF80
07FFFFC0
0FFFFFE0
1FFFFFF0
1FF83FF0
3FE00FF8
7FC007F8
7FC007FC
7F8003FC
FF8003FC
FF8003FC
FFFFFFFC
FFFFFFFC
FFFFFFFC
FFFFFFFC
FFFFFFFC
FFFFFFFC
FF000000
FF800000
7F800000
7FC00040
7FE000E0
3FF001F0
3FFE0FF8
1FFFFFFC
0FFFFFF8
07FFFFF0
03FFFFE0
00FFFF80
003FFE00
00008000
ENDCHAR
STARTCHAR 0118
ENCODING 280
SWIDTH 596 0
DWIDTH 37 0
BBX 30 57 4 -13
BITMAP
FFFFFFFC
FFFFFFFC
FFFFFFFC
FFFFFFFC
FFFFFFFC
FFFFFFFC
FFFFFFFC
FF000000
FF000000
FF000000
FF000000
FF000000
FF000000
FF000000
FF000000
FF000000
FF000000
FF000000
FFFFFFE0
FFFFFFE0
FFFFFFE0
FFFFFFE0
FFFFFFE0
FFFFFFE0
FFFFFFE0
FF000000
FF000000
FF000000
FF000000
FF000000
FF000000
FF000000
FF000000
FF000000
FF000000
FF000000
FF000000
FFFFFFFC
FFFFFFFC
FFFFFFFC
FFFFFFFC
FFFFFFFC
FFFFFFFC
FFFFFFFC
00003F80
00007E00
0000FC00
0000F800
0001F800
0001F800
0001F800
0001FC40
0001FFC0
0000FFC0
0000FFE0
00007FE0
00001F80
ENDCHAR
STARTCHAR 0119
ENCODING 281
SWIDTH 596 0
DWIDTH 37 0
BBX 31 45 3 -12
BITMAP
00008000
003FFC00
00FFFF00
01FFFFC0
03FFFFE0
07FFFFF0
0FFFFFF0
1FFC3FF8
1FF00FF8
3FE007FC
3FC003FC
7FC003FC
7F8001FE
7F8001FE
7FFFFFFE
7FFFFFFE
FFFFFFFE
FFFFFFFE
FFFFFFFE
7FFFFFFE
7F800000
7F800000
7FC00000
7FC00000
3FE00060
3FF000F0
1FFC03F8
1FFFFFFC
0FFFFFFC
07FFFFF8
03FFFFF0
00FFFFC0
003FFF00
0007FC00
0001F800
0003F000
0007E000
0007E000
0007E000
0007F100
0007FF00
0007FF00
0003FF80
0001FF80
00007E00
ENDCHAR
STARTCHAR 011A
ENCODING 282
SWIDTH 596 0
DWIDTH 37 0
BBX 30 56 4 0
BITMAP
1FC01FC0
0FF03FC0
07F87F80
03FCFF00
01FFFC00
007FF800
003FF000
001FE000
000FC000
00000000
00000000
00000000
FFFFFFFC
FFFFFFFC
FFFFFFFC
FFFFFFFC
FFFFFFFC
FFFFFFFC
FFFFFFFC
FF000000
FF000000
FF000000
FF000000
FF000000
FF000000
FF000000
FF000000
FF000000
FF000000
FF000000
FFFFFFE0
FFFFFFE0
FFFFFFE0
FFFFFFE0
FFFFFFE0
FFFFFFE0
FFFFFFE0
FF000000
FF000000
FF000000
FF000000
FF000000
FF000000
FF000000
FF000000
FF000000
FF000000
FF000000
FF000000
FFFFFFFC
FFFFFFFC
FFFFFFFC
FFFFFFFC
FFFFFFFC
FFFFFFFC
FFFFFFFC
ENDCHAR
STARTCHAR 011B
ENCODING 283
SWIDTH 596 0
DWIDTH 37 0
BBX 31 48 3 -1
BITMAP
0FE00FE0
0FF01FE0
07F87F80
03FCFF00
00FFFE00
007FFC00
003FF800
001FF000
000FE000
00000000
00000000
00000000
00000000
00000000
00008000
001FFC00
00FFFF00
01FFFFC0
03FFFFE0
07FFFFF0
0FFFFFF8
1FFC1FF8
3FF007FC
3FE003FC
3FC003FE
7FC001FE
7FC001FE
7F8001FE
7FFFFFFE
7FFFFFFE
FFFFFFFE
FFFFFFFE
FFFFFFFE
7FFFFFFE
7F800000
7F800000
7FC00000
7FE00020
3FE00070
3FF800F8
1FFE07FC
0FFFFFFE
07FFFFFC
03FFFFF8
01FFFFF0
007FFFC0
001FFF00
0000C000
ENDCHAR
STARTCHAR 011C
ENCODING 284
SWIDTH 596 0
DWIDTH 37 0
BBX 31 57 3 -1
BITMAP
0003F000
0007FC00
000FFE00
003FFF00
007FFF80
00FF1FE0
01FC0FF0
03F807F8
00000000
00000000
00000000
00000000
003FFE00
00FFFF80
01FFFFC0
03FFFFF0
07FFFFF0
0FFFFFF8
1FFC1FFC
1FF007FC
3FE003FC
3FE003FE
7FC001FE
7FC001FE
7F8001FE
FF800000
FF800000
FF800000
FF800000
FF000000
FF000000
FF000000
FF000000
FF00FFFE
FF00FFFE
FF00FFFE
FF00FFFE
FF00FFFE
FF00FFFE
FF80FFFE
FF8001FE
FF8001FE
FF8001FE
7F8001FE
7F8001FE
7FC001FE
3FC001FE
3FE001FE
3FF003FE
1FFC1FFE
0FFFFFFE
07FFFFFE
07FFFFFC
01FFFFF0
00FFFFC0
003FFF00
00018000
ENDCHAR
STARTCHAR 011D
ENCODING 285
SWIDTH 596 0
DWIDTH 37 0
BBX 30 59 3 -12
BITMAP
000FC000
003FE000
007FF000
00FFFC00
03FFFE00
07F8FF00
0FF03F80
1FE01FC0
00000000
00000000
00000000
00000000
00000000
00000000
00040000
00FFE3FC
03FFF3FC
07FFFBFC
0FFFFFFC
1FFFFFFC
1FFFFFFC
3FF83FFC
7FF00FFC
7FE007FC
7FC003FC
7F8003FC
FF8003FC
FF8003FC
FF8003FC
FF0003FC
FF0003FC
FF0003FC
FF0003FC
FF8003FC
FF8003FC
FF8003FC
7F8003FC
7FC003FC
7FC007FC
3FE00FFC
3FF83FFC
1FFFFFFC
1FFFFFFC
0FFFFFFC
07FFFBFC
03FFF3FC
00FFC3FC
000407FC
000007FC
040007F8
0E000FF8
0F803FF8
1FFFFFF0
3FFFFFF0
3FFFFFE0
1FFFFFC0
07FFFF00
01FFFC00
003FE000
ENDCHAR
STARTCHAR 011E
ENCODING 286
SWIDTH 596 0
DWIDTH 37 0
BBX 31 57 3 -1
BITMAP
01F807E0
01F807E0
01FC0FE0
00FE1FC0
00FFFFC0
007FFF80
003FFF00
001FFE00
0007F800
00000000
00000000
00000000
003FFE00
00FFFF80
01FFFFC0
03FFFFE0
07FFFFF0
0FFFFFF8
1FFC1FFC
1FF007FC
3FE003FC
3FE003FE
7FC001FE
7FC001FE
7F8001FE
FF800000
FF800000
FF800000
FF800000
FF000000
FF000000
FF000000
FF000000
FF00FFFE
FF00FFFE
FF00FFFE
FF00FFFE
FF00FFFE
FF00FFFE
FF80FFFE
FF8001FE
FF8001FE
FF8001FE
7F8001FE
7F8001FE
7FC001FE
3FC001FE
3FE001FE
3FF003FE
1FFC1FFE
0FFFFFFE
07FFFFFE
07FFFFFC
01FFFFF0
00FFFFC0
003FFF00
00018000
ENDCHAR
STARTCHAR 011F
ENCODING 287
SWIDTH 596 0
DWIDTH 37 0
BBX 30 58 3 -12
BITMAP
0FC01F80
0FC01F80
0FF07F80
07FFFF00
03FFFE00
01FFFE00
00FFF800
003FE000
00000000
00000000
00000000
00000000
00000000
00040000
00FFE3FC
03FFF3FC
07FFFBFC
0FFFFFFC
1FFFFFFC
1FFFFFFC
3FF83FFC
7FF00FFC
7FE007FC
7FC003FC
7F8003FC
FF8003FC
FF8003FC
FF8003FC
FF0003FC
FF0003FC
FF0003FC
FF0003FC
FF8003FC
FF8003FC
FF8003FC
7F8003FC
7FC003FC
7FC007FC
3FE00FFC
3FF83FFC
1FFFFFFC
1FFFFFFC
0FFFFFFC
07FFFBFC
03FFF3FC
00FFC3FC
000407FC
000007FC
040007F8
0E000FF8
0F803FF8
1FFFFFF0
3FFFFFF0
3FFFFFE0
0FFFFFC0
07FFFF00
01FFFC00
003FE000
ENDCHAR
STARTCHAR 0120
ENCODING 288
SWIDTH 596 0
DWIDTH 37 0
BBX 31 57 3 -1
BITMAP
0001F000
0003F800
0007FC00
0007FC00
0007FC00
0007FC00
0003F800
0001F000
00000000
00000000
00000000
00000000
003FFE00
00FFFF80
01FFFFC0
03FFFFF0
07FFFFF0
0FFFFFF8
1FFC1FFC
1FF007FC
3FE003FC
3FE003FE
7FC001FE
7FC001FE
7F8001FE
FF800000
FF800000
FF800000
FF800000
FF000000
FF000000
FF000000
FF000000
FF00FFFE
FF00FFFE
FF00FFFE
FF00FFFE
FF00FFFE
FF00FFFE
FF80FFFE
FF8001FE
FF8001FE
FF8001FE
7F8001FE
7F8001FE
7FC001FE
3FC001FE
3FE001FE
3FF003FE
1FFC1FFE
0FFFFFFE
07FFFFFE
07FFFFFC
01FFFFF0
00FFFFC0
003FFF00
00018000
ENDCHAR
STARTCHAR 0121
ENCODING 289
SWIDTH 596 0
DWIDTH 37 0
BBX 30 59 3 -12
BITMAP
000F8000
001FC000
003FE000
003FE000
003FE000
003FE000
001FC000
000F8000
00000000
00000000
00000000
00000000
00000000
00000000
00040000
00FFE3FC
03FFF3FC
07FFFBFC
0FFFFFFC
1FFFFFFC
1FFFFFFC
3FF83FFC
3FF00FFC
7FE007FC
7FC003FC
7F8003FC
FF8003FC
FF8003FC
FF8003FC
FF0003FC
FF0003FC
FF0003FC
FF0003FC
FF8003FC
FF8003FC
FF8003FC
7F8003FC
7FC003FC
7FC007FC
3FE00FFC
3FF83FFC
1FFFFFFC
1FFFFFFC
0FFFFFFC
07FFFBFC
03FFF3FC
00FFC3FC
000407FC
000007FC
040007F8
06000FF8
0F803FF8
1FFFFFF0
3FFFFFF0
1FFFFFE0
0FFFFFC0
07FFFF00
01FFFC00
003FE000
ENDCHAR
STARTCHAR 0122
ENCODING 290
SWIDTH 596 0
DWIDTH 37 0
BBX 31 58 3 -14
BITMAP
003FFE00
00FFFF80
01FFFFC0
03FFFFF0
07FFFFF0
0FFFFFF8
1FFC1FFC
1FF007FC
3FE003FC
3FE003FE
7FC001FE
7FC001FE
7F8001FE
FF800000
FF800000
FF800000
FF800000
FF000000
FF000000
FF000000
FF000000
FF00FFFE
FF00FFFE
FF00FFFE
FF00FFFE
FF00FFFE
FF00FFFE
FF80FFFE
FF8001FE
FF8001FE
FF8001FE
7F8001FE
7F8001FE
7FC001FE
3FC001FE
3FE001FE
3FF003FE
1FFC1FFE
0FFFFFFE
07FFFFFE
07FFFFFC
01FFFFF0
00FFFFC0
003FFF00
00018000
00000000
0001F800
0001F800
0001F800
0001F800
0001F800
0001F800
0003F000
0003F000
0003E000
0007E000
0007C000
00018000
ENDCHAR
STARTCHAR 0123
ENCODING 291
SWIDTH 596 0
DWIDTH 37 0
BBX 30 64 3 -12
BITMAP
00018000
0003E000
0007F000
000FE000
000FE000
000FE000
001FC000
001FC000
001FC000
001FC000
001FC000
001FC000
001FC000
001FC000
00000000
00000000
00000000
00000000
00000000
00040000
00FFE3FC
03FFF3FC
07FFFBFC
0FFFFFFC
1FFFFFFC
1FFFFFFC
3FF83FFC
3FF00FFC
7FE007FC
7FC003FC
7F8003FC
FF8003FC
FF8003FC
FF8003FC
FF0003FC
FF0003FC
FF0003FC
FF0003FC
FF8003FC
FF8003FC
FF8003FC
7F8003FC
7FC003FC
7FC007FC
3FE00FFC
3FF83FFC
1FFFFFFC
1FFFFFFC
0FFFFFFC
07FFFBFC
03FFF3FC
00FFC3FC
000407FC
000007FC
040007F8
06000FF8
0F803FF8
1FFFFFF0
3FFFFFF0
1FFFFFE0
0FFFFFC0
07FFFF00
01FFFC00
003FE000
ENDCHAR
STARTCHAR 0124
ENCODING 292
SWIDTH 612 0
DWIDTH 38 0
BBX 29 56 4 0
BITMAP
000F8000
001FC000
003FF000
00FFF800
01FFFC00
03FCFE00
0FF07F80
1FE03FC0
1FC01FC0
00000000
00000000
00000000
FF0007F8
FF0007F8
FF0007F8
FF0007F8
FF0007F8
FF0007F8
FF0007F8
FF0007F8
FF0007F8
FF0007F8
FF0007F8
FF0007F8
FF0007F8
FF0007F8
FF0007F8
FF0007F8
FF0007F8
FF0007F8
FFFFFFF8
FFFFFFF8
FFFFFFF8
FFFFFFF8
FFFFFFF8
FFFFFFF8
FFFFFFF8
FF0007F8
FF0007F8
FF0007F8
FF0007F8
FF0007F8
FF0007F8
FF0007F8
FF0007F8
FF0007F8
FF0007F8
FF0007F8
FF0007F8
FF0007F8
FF0007F8
FF0007F8
FF0007F8
FF0007F8
FF0007F8
FF0007F8
ENDCHAR
STARTCHAR 0125
ENCODING 293
SWIDTH 596 0
DWIDTH 37 0
BBX 36 59 -3 0
BITMAP
007C000000
01FE000000
03FF000000
07FFC00000
0FFFE00000
1FCFF00000
7F87F80000
FF01FE0000
FE00FE0000
0000000000
0000000000
0000000000
0000000000
01FE000000
01FE000000
01FE000000
01FE000000
01FE000000
01FE000000
01FE000000
01FE000000
01FE000000
01FE000000
01FE000000
01FE000000
01FE000000
01FE000000
01FE0FFC00
01FE3FFF00
01FE7FFF80
01FEFFFFC0
01FFFFFFE0
01FFFFFFE0
01FFE0FFE0
01FF803FF0
01FF001FF0
01FE001FF0
01FE000FF0
01FE000FF0
01FE000FF0
01FE000FF0
01FE000FF0
01FE000FF0
01FE000FF0
01FE000FF0
01FE000FF0
01FE000FF0
01FE000FF0
01FE000FF0
01FE000FF0
01FE000FF0
01FE000FF0
01FE000FF0
01FE000FF0
01FE000FF0
01FE000FF0
01FE000FF0
01FE000FF0
01FE000FF0
ENDCHAR
STARTCHAR 0126
ENCODING 294
SWIDTH 612 0
DWIDTH 38 0
BBX 37 44 1 0
BITMAP
3FC001FE00
3FC001FE00
3FC001FE00
3FC001FE00
3FC001FE00
3FC001FE00
3FC001FE00
3FC001FE00
FFFFFFFFF8
FFFFFFFFF8
FFFFFFFFF8
FFFFFFFFF8
FFFFFFFFF8
3FC001FE00
3FC001FE00
3FC001FE00
3FC001FE00
3FC001FE00
3FFFFFFE00
3FFFFFFE00
3FFFFFFE00
3FFFFFFE00
3FFFFFFE00
3FFFFFFE00
3FFFFFFE00
3FC001FE00
3FC001FE00
3FC001FE00
3FC001FE00
3FC001FE00
3FC001FE00
3FC001FE00
3FC001FE00
3FC001FE00
3FC001FE00
3FC001FE00
3FC001FE00
3FC001FE00
3FC001FE00
3FC001FE00
3FC001FE00
3FC001FE00
3FC001FE00
3FC001FE00
ENDCHAR
STARTCHAR 0127
ENCODING 295
SWIDTH 596 0
DWIDTH 37 0
BBX 34 46 0 0
BITMAP
07F8000000
07F8000000
07F8000000
07F8000000
FFFFF80000
FFFFF80000
FFFFF80000
FFFFF80000
FFFFF80000
07F8000000
07F8000000
07F8000000
07F8000000
07F8020000
07F83FF000
07F8FFF800
07F9FFFE00
07FBFFFF00
07FFFFFF00
07FFFFFF80
07FF83FF80
07FE00FF80
07FC007FC0
07F8007FC0
07F8007FC0
07F8003FC0
07F8003FC0
07F8003FC0
07F8003FC0
07F8003FC0
07F8003FC0
07F8003FC0
07F8003FC0
07F8003FC0
07F8003FC0
07F8003FC0
07F8003FC0
07F8003FC0
07F8003FC0
07F8003FC0
07F8003FC0
07F8003FC0
07F8003FC0
07F8003FC0
07F8003FC0
07F8003FC0
ENDCHAR
STARTCHAR 0128
ENCODING 296
SWIDTH 596 0
DWIDTH 37 0
BBX 25 56 6 1
BITMAP
07E01E00
0FF83E00
1FFFFE00
3FFFFC00
3FFFFC00
7E3FF800
7C07F000
1C01C000
00000000
00000000
00000000
00000000
FFFFFF80
FFFFFF80
FFFFFF80
FFFFFF80
FFFFFF80
FFFFFF80
FFFFFF80
007F8000
007F8000
007F8000
007F8000
007F8000
007F8000
007F8000
007F8000
007F8000
007F8000
007F8000
007F8000
007F8000
007F8000
007F8000
007F8000
007F8000
007F8000
007F8000
007F8000
007F8000
007F8000
007F8000
007F8000
007F8000
007F8000
007F8000
007F8000
007F8000
007F8000
FFFFFF80
FFFFFF80
FFFFFF80
FFFFFF80
FFFFFF80
FFFFFF80
FFFFFF80
ENDCHAR
STARTCHAR 0129
ENCODING 297
SWIDTH 596 0
DWIDTH 37 0
BBX 28 46 6 1
BITMAP
01F80780
03FE0F80
07FFFF80
0FFFFF80
0FFFFF00
1F8FFF00
1F01FC00
07007000
00000000
00000000
00000000
00000000
00000000
00000000
FFFFC000
FFFFC000
FFFFC000
FFFFC000
FFFFC000
FFFFC000
FFFFC000
003FC000
003FC000
003FC000
003FC000
003FC000
003FC000
003FC000
003FC000
003FC000
003FC000
003FC000
003FC000
003FC000
003FC000
003FC000
003FC000
003FC000
003FC000
FFFFFFF0
FFFFFFF0
FFFFFFF0
FFFFFFF0
FFFFFFF0
FFFFFFF0
FFFFFFF0
ENDCHAR
STARTCHAR 012A
ENCODING 298
SWIDTH 596 0
DWIDTH 37 0
BBX 25 53 6 0
BITMAP
7FFFFE00
7FFFFE00
7FFFFE00
7FFFFE00
7FFFFE00
00000000
00000000
00000000
00000000
FFFFFF80
FFFFFF80
FFFFFF80
FFFFFF80
FFFFFF80
FFFFFF80
FFFFFF80
007F8000
007F8000
007F8000
007F8000
007F8000
007F8000
007F8000
007F8000
007F8000
007F8000
007F8000
007F8000
007F8000
007F8000
007F8000
007F8000
007F8000
007F8000
007F8000
007F8000
007F8000
007F8000
007F8000
007F8000
007F8000
007F8000
007F8000
007F8000
007F8000
007F8000
FFFFFF80
FFFFFF80
FFFFFF80
FFFFFF80
FFFFFF80
FFFFFF80
FFFFFF80
ENDCHAR
STARTCHAR 012B
ENCODING 299
SWIDTH 596 0
DWIDTH 37 0
BBX 28 43 6 0
BITMAP
1FFFFF80
1FFFFF80
1FFFFF80
1FFFFF80
1FFFFF80
00000000
00000000
00000000
00000000
00000000
00000000
FFFFC000
FFFFC000
FFFFC000
FFFFC000
FFFFC000
FFFFC000
FFFFC000
003FC000
003FC000
003FC000
003FC000
003FC000
003FC000
003FC000
003FC000
003FC000
003FC000
003FC000
003FC000
003FC000
003FC000
003FC000
003FC000
003FC000
003FC000
FFFFFFF0
FFFFFFF0
FFFFFFF0
FFFFFFF0
FFFFFFF0
FFFFFFF0
FFFFFFF0
ENDCHAR
STARTCHAR 012C
ENCODING 300
SWIDTH 596 0
DWIDTH 37 0
BBX 25 56 6 0
BITMAP
3F007E00
3F007E00
3F80FE00
1FC1FC00
1FFFFC00
0FFFF800
07FFF000
03FFE000
00FF0000
00000000
00000000
00000000
FFFFFF80
FFFFFF80
FFFFFF80
FFFFFF80
FFFFFF80
FFFFFF80
FFFFFF80
007F8000
007F8000
007F8000
007F8000
007F8000
007F8000
007F8000
007F8000
007F8000
007F8000
007F8000
007F8000
007F8000
007F8000
007F8000
007F8000
007F8000
007F8000
007F8000
007F8000
007F8000
007F8000
007F8000
007F8000
007F8000
007F8000
007F8000
007F8000
007F8000
007F8000
FFFFFF80
FFFFFF80
FFFFFF80
FFFFFF80
FFFFFF80
FFFFFF80
FFFFFF80
ENDCHAR
STARTCHAR 012D
ENCODING 301
SWIDTH 596 0
DWIDTH 37 0
BBX 28 46 6 0
BITMAP
0FC03F00
0FC03F00
0FC03F00
0FE07F00
07F0FE00
07FFFE00
03FFFC00
01FFF800
00FFF000
001FC000
00000000
00000000
00000000
00000000
FFFFC000
FFFFC000
FFFFC000
FFFFC000
FFFFC000
FFFFC000
FFFFC000
003FC000
003FC000
003FC000
003FC000
003FC000
003FC000
003FC000
003FC000
003FC000
003FC000
003FC000
003FC000
003FC000
003FC000
003FC000
003FC000
003FC000
003FC000
FFFFFFF0
FFFFFFF0
FFFFFFF0
FFFFFFF0
FFFFFFF0
FFFFFFF0
FFFFFFF0
ENDCHAR
STARTCHAR 012E
ENCODING 302
SWIDTH 596 0
DWIDTH 37 0
BBX 25 57 6 -13
BITMAP
FFFFFF80
FFFFFF80
FFFFFF80
FFFFFF80
FFFFFF80
FFFFFF80
FFFFFF80
007F8000
007F8000
007F8000
007F8000
007F8000
007F8000
007F8000
007F8000
007F8000
007F8000
007F8000
007F8000
007F8000
007F8000
007F8000
007F8000
007F8000
007F8000
007F8000
007F8000
007F8000
007F8000
007F8000
007F8000
007F8000
007F8000
007F8000
007F8000
007F8000
007F8000
FFFFFF80
FFFFFF80
FFFFFF80
FFFFFF80
FFFFFF80
FFFFFF80
FFFFFF80
003F8000
007E0000
00FC0000
00F80000
01F80000
01F80000
01F80000
01FC4000
01FFC000
00FFC000
00FFE000
007FE000
001F8000
ENDCHAR
STARTCHAR 012F
ENCODING 303
SWIDTH 612 0
DWIDTH 38 0
BBX 27 59 7 -13
BITMAP
001F0000
003FC000
007FE000
007FE000
007FE000
007FE000
007FE000
003FC000
000F8000
00000000
00000000
00000000
00000000
00000000
FFFFC000
FFFFC000
FFFFC000
FFFFC000
FFFFC000
FFFFC000
FFFFC000
003FC000
003FC000
003FC000
003FC000
003FC000
003FC000
003FC000
003FC000
003FC000
003FC000
003FC000
003FC000
003FC000
003FC000
003FC000
003FC000
003FC000
003FC000
FFFFFFE0
FFFFFFE0
FFFFFFE0
FFFFFFE0
FFFFFFE0
FFFFFFE0
FFFFFFE0
007F0000
00FC0000
01F80000
01F00000
03F00000
03F00000
03F00000
03F88000
03FF8000
01FF8000
01FFC000
00FFC000
003F0000
ENDCHAR
STARTCHAR 0130
ENCODING 304
SWIDTH 596 0
DWIDTH 37 0
BBX 25 56 6 0
BITMAP
003E0000
007F0000
00FF8000
00FF8000
00FF8000
00FF8000
007F0000
003E0000
00000000
00000000
00000000
00000000
FFFFFF80
FFFFFF80
FFFFFF80
FFFFFF80
FFFFFF80
FFFFFF80
FFFFFF80
007F8000
007F8000
007F8000
007F8000
007F8000
007F8000
007F8000
007F8000
007F8000
007F8000
007F8000
007F8000
007F8000
007F8000
007F8000
007F8000
007F8000
007F8000
007F8000
007F8000
007F8000
007F8000
007F8000
007F8000
007F8000
007F8000
007F8000
007F8000
007F8000
007F8000
FFFFFF80
FFFFFF80
FFFFFF80
FFFFFF80
FFFFFF80
FFFFFF80
FFFFFF80
ENDCHAR
STARTCHAR 0131
ENCODING 305
SWIDTH 596 0
DWIDTH 37 0
BBX 28 32 6 0
BITMAP
FFFFC000
FFFFC000
FFFFC000
FFFFC000
FFFFC000
FFFFC000
FFFFC000
003FC000
003FC000
003FC000
003FC000
003FC000
003FC000
003FC000
003FC000
003FC000
003FC000
003FC000
003FC000
003FC000
003FC000
003FC000
003FC000
003FC000
003FC000
FFFFFFF0
FFFFFFF0
FFFFFFF0
FFFFFFF0
FFFFFFF0
FFFFFFF0
FFFFFFF0
ENDCHAR
STARTCHAR 0132
ENCODING 306
SWIDTH 612 0
DWIDTH 38 0
BBX 30 45 4 -1
BITMAP
FC0000FC
FC0000FC
FC0000FC
FC0000FC
FC0000FC
FC0000FC
FC0000FC
FC0000FC
FC0000FC
FC0000FC
FC0000FC
FC0000FC
FC0000FC
FC0000FC
FC0000FC
FC0000FC
FC0000FC
FC0000FC
FC0000FC
FC0000FC
FC0000FC
FC0000FC
FC0000FC
FC0000FC
FC0000FC
FC0000FC
FC0000FC
FC0000FC
FC0000FC
FC0000FC
FC0000FC
FC0000FC
FC0000FC
FC0000FC
FC7E00FC
FC7E00FC
FC7E00FC
FC7F01FC
FC3F01F8
FC3FFFF8
FC1FFFF0
FC1FFFF0
FC07FFE0
FC03FF80
00001000
ENDCHAR
STARTCHAR 0133
ENCODING 307
SWIDTH 596 0
DWIDTH 37 0
BBX 31 58 2 -13
BITMAP
00200010
00F8007C
01FC00FE
01FC00FE
01FC00FE
01FC00FE
00F8007C
00000000
00000000
00000000
00000000
00000000
00000000
FFF81FFE
FFF81FFE
FFF81FFE
FFF81FFE
FFF81FFE
01F8007E
01F8007E
01F8007E
01F8007E
01F8007E
01F8007E
01F8007E
01F8007E
01F8007E
01F8007E
01F8007E
01F8007E
01F8007E
01F8007E
01F8007E
01F8007E
01F8007E
01F8007E
01F8007E
01F8007E
01F8007E
01F8007E
FFFFF07E
FFFFF07E
FFFFF07E
FFFFF07E
FFFFF07E
0000007E
0000007E
0000007E
000000FE
000000FC
000001FC
000003FC
000FFFF8
000FFFF0
000FFFE0
000FFFC0
000FFF00
0001E000
ENDCHAR
STARTCHAR 0134
ENCODING 308
SWIDTH 612 0
DWIDTH 38 0
BBX 38 57 3 -1
BITMAP
000000F800
000003FC00
000007FE00
00000FFF80
00001FFFC0
00003F9FE0
0000FF0FF0
0001FE03FC
0001FC01FC
0000000000
0000000000
0000000000
000003FC00
000003FC00
000003FC00
000003FC00
000003FC00
000003FC00
000003FC00
000003FC00
000003FC00
000003FC00
000003FC00
000003FC00
000003FC00
000003FC00
000003FC00
000003FC00
000003FC00
000003FC00
000003FC00
000003FC00
000003FC00
000003FC00
000003FC00
000003FC00
000003FC00
000003FC00
000003FC00
000003FC00
000003FC00
000003FC00
000003FC00
FF0003FC00
FF0007FC00
FF8007FC00
FF8007F800
7F800FF800
7FC01FF800
7FF07FF000
3FFFFFE000
1FFFFFE000
1FFFFFC000
07FFFF8000
03FFFE0000
00FFF80000
0002000000
ENDCHAR
STARTCHAR 0135
ENCODING 309
SWIDTH 612 0
DWIDTH 38 0
BBX 27 59 7 -13
BITMAP
0007C000
001FE000
003FF000
007FFC00
00FFFE00
01FCFF00
07F87F80
0FF01FE0
0FE00FE0
00000000
00000000
00000000
00000000
00000000
3FFFE000
3FFFE000
3FFFE000
3FFFE000
3FFFE000
3FFFE000
3FFFE000
001FE000
001FE000
001FE000
001FE000
001FE000
001FE000
001FE000
001FE000
001FE000
001FE000
001FE000
001FE000
001FE000
001FE000
001FE000
001FE000
001FE000
001FE000
001FE000
001FE000
001FE000
001FE000
001FE000
001FE000
001FE000
001FE000
003FE000
003FE000
003FE000
007FE000
01FFC000
FFFFC000
FFFF8000
FFFF8000
FFFF0000
FFFC0000
FFF00000
1C000000
ENDCHAR
STARTCHAR 0136
ENCODING 310
SWIDTH 612 0
DWIDTH 38 0
BBX 34 59 4 -15
BITMAP
FF0001FFC0
FF0003FF80
FF0003FF00
FF0007FE00
FF000FFE00
FF001FFC00
FF001FF800
FF003FF000
FF007FF000
FF00FFE000
FF00FFC000
FF01FF8000
FF03FF0000
FF07FF0000
FF07FE0000
FF0FFC0000
FF1FF80000
FF3FF80000
FF3FF00000
FF7FE00000
FFFFF00000
FFFFF00000
FFFFF80000
FFFFFC0000
FFFFFC0000
FFFFFE0000
FFFBFF0000
FFF3FF0000
FFE1FF8000
FFC1FF8000
FF80FFC000
FF007FE000
FF007FE000
FF003FF000
FF001FF800
FF001FF800
FF000FFC00
FF000FFC00
FF0007FE00
FF0003FF00
FF0003FF00
FF0001FF80
FF0001FFC0
FF0000FFC0
0000000000
0000000000
000FC00000
000FC00000
000FC00000
000FC00000
000FC00000
000FC00000
001F800000
001F800000
001F800000
003F000000
003F000000
001E000000
000C000000
ENDCHAR
STARTCHAR 0137
ENCODING 311
SWIDTH 596 0
DWIDTH 37 0
BBX 32 61 4 -15
BITMAP
FF000000
FF000000
FF000000
FF000000
FF000000
FF000000
FF000000
FF000000
FF000000
FF000000
FF000000
FF000000
FF000000
FF000000
FF000FFC
FF001FF8
FF003FF0
FF007FE0
FF00FFC0
FF01FF80
FF03FF80
FF07FF00
FF0FFE00
FF1FFC00
FF3FF800
FF7FF000
FFFFE000
FFFFC000
FFFFE000
FFFFF000
FFFFF800
FFFFF800
FFFFFC00
FFF7FE00
FFC3FF00
FF83FF00
FF01FF80
FF00FFC0
FF007FE0
FF007FE0
FF003FF0
FF001FF8
FF001FFC
FF000FFC
FF0007FE
FF0003FF
00000000
00000000
001F8000
001F8000
001F8000
001F8000
001F8000
001F8000
003F0000
003F0000
003F0000
007E0000
007E0000
003C0000
00180000
ENDCHAR
STARTCHAR 0138
ENCODING 312
SWIDTH 596 0
DWIDTH 37 0
BBX 31 32 5 0
BITMAP
FF000FFE
FF001FFC
FF003FF8
FF003FF0
FF007FE0
FF00FFC0
FF01FF80
FF03FF80
FF07FF00
FF0FFE00
FF1FFC00
FF1FF800
FF3FF000
FF7FF000
FFFFF000
FFFFF800
FFFFFC00
FFFFFC00
FFFFFE00
FFFBFF00
FFF3FF00
FFE1FF80
FFC1FFC0
FF00FFC0
FF007FE0
FF007FE0
FF003FF0
FF003FF8
FF001FF8
FF001FFC
FF000FFE
FF0007FE
ENDCHAR
STARTCHAR 0139
ENCODING 313
SWIDTH 596 0
DWIDTH 37 0
BBX 29 54 5 0
BITMAP
03FE0000
07FC0000
07F80000
0FF00000
1FE00000
1FC00000
3F800000
7F000000
00000000
00000000
FF000000
FF000000
FF000000
FF000000
FF000000
FF000000
FF000000
FF000000
FF000000
FF000000
FF000000
FF000000
FF000000
FF000000
FF000000
FF000000
FF000000
FF000000
FF000000
FF000000
FF000000
FF000000
FF000000
FF000000
FF000000
FF000000
FF000000
FF000000
FF000000
FF000000
FF000000
FF000000
FF000000
FF000000
FF000000
FF000000
FF000000
FFFFFFF8
FFFFFFF8
FFFFFFF8
FFFFFFF8
FFFFFFF8
FFFFFFF8
FFFFFFF8
ENDCHAR
STARTCHAR 013A
ENCODING 314
SWIDTH 596 0
DWIDTH 37 0
BBX 28 57 6 0
BITMAP
0000FF80
0001FF00
0001FE00
0003FC00
0007F800
000FF000
000FE000
001FC000
00000000
00000000
00000000
FFFFC000
FFFFC000
FFFFC000
FFFFC000
FFFFC000
FFFFC000
FFFFC000
003FC000
003FC000
003FC000
003FC000
003FC000
003FC000
003FC000
003FC000
003FC000
003FC000
003FC000
003FC000
003FC000
003FC000
003FC000
003FC000
003FC000
003FC000
003FC000
003FC000
003FC000
003FC000
003FC000
003FC000
003FC000
003FC000
003FC000
003FC000
003FC000
003FC000
003FC000
003FC000
FFFFFFF0
FFFFFFF0
FFFFFFF0
FFFFFFF0
FFFFFFF0
FFFFFFF0
FFFFFFF0
ENDCHAR
STARTCHAR 013B
ENCODING 315
SWIDTH 596 0
DWIDTH 37 0
BBX 29 58 5 -15
BITMAP
FF000000
FF000000
FF000000
FF000000
FF000000
FF000000
FF000000
FF000000
FF000000
FF000000
FF000000
FF000000
FF000000
FF000000
FF000000
FF000000
FF000000
FF000000
FF000000
FF000000
FF000000
FF000000
FF000000
FF000000
FF000000
FF000000
FF000000
FF000000
FF000000
FF000000
FF000000
FF000000
FF000000
FF000000
FF000000
FF000000
FF000000
FFFFFFF8
FFFFFFF8
FFFFFFF8
FFFFFFF8
FFFFFFF8
FFFFFFF8
FFFFFFF8
00000000
00000000
001F8000
001F8000
001F8000
001F8000
001F8000
001F8000
003F0000
003F0000
003E0000
007E0000
007C0000
00180000
ENDCHAR
STARTCHAR 013C
ENCODING 316
SWIDTH 596 0
DWIDTH 37 0
BBX 28 60 6 -14
BITMAP
FFFFC000
FFFFC000
FFFFC000
FFFFC000
FFFFC000
FFFFC000
FFFFC000
003FC000
003FC000
003FC000
003FC000
003FC000
003FC000
003FC000
003FC000
003FC000
003FC000
003FC000
003FC000
003FC000
003FC000
003FC000
003FC000
003FC000
003FC000
003FC000
003FC000
003FC000
003FC000
003FC000
003FC000
003FC000
003FC000
003FC000
003FC000
003FC000
003FC000
003FC000
003FC000
FFFFFFF0
FFFFFFF0
FFFFFFF0
FFFFFFF0
FFFFFFF0
FFFFFFF0
FFFFFFF0
00000000
001F8000
001F8000
001F8000
001F8000
001F8000
001F8000
001F0000
003F0000
003F0000
003E0000
003E0000
003C0000
00080000
ENDCHAR
STARTCHAR 013D
ENCODING 317
SWIDTH 596 0
DWIDTH 37 0
BBX 29 44 5 0
BITMAP
FF000FE0
FF000FE0
FF000FE0
FF000FE0
FF000FE0
FF000FE0
FF000FE0
FF000FE0
FF000FE0
FF001FC0
FF001FC0
FF001F80
FF003F80
FF003F00
FF007F00
FF001E00
FF000C00
FF000000
FF000000
FF000000
FF000000
FF000000
FF000000
FF000000
FF000000
FF000000
FF000000
FF000000
FF000000
FF000000
FF000000
FF000000
FF000000
FF000000
FF000000
FF000000
FF000000
FFFFFFF8
FFFFFFF8
FFFFFFF8
FFFFFFF8
FFFFFFF8
FFFFFFF8
FFFFFFF8
ENDCHAR
STARTCHAR 013E
ENCODING 318
SWIDTH 612 0
DWIDTH 38 0
BBX 33 46 4 0
BITMAP
FFFFC03F80
FFFFC03F80
FFFFC03F80
FFFFC03F80
FFFFC03F80
FFFFC03F80
FFFFC03F80
003FC03F80
003FC03F00
003FC07F00
003FC07F00
003FC07E00
003FC0FE00
003FC0FC00
003FC0F800
003FC07800
003FC01000
003FC00000
003FC00000
003FC00000
003FC00000
003FC00000
003FC00000
003FC00000
003FC00000
003FC00000
003FC00000
003FC00000
003FC00000
003FC00000
003FC00000
003FC00000
003FC00000
003FC00000
003FC00000
003FC00000
003FC00000
003FC00000
003FC00000
FFFFFFF000
FFFFFFF000
FFFFFFF000
FFFFFFF000
FFFFFFF000
FFFFFFF000
FFFFFFF000
ENDCHAR
STARTCHAR 013F
ENCODING 319
SWIDTH 596 0
DWIDTH 37 0
BBX 29 44 5 0
BITMAP
FF000000
FF000000
FF000000
FF000000
FF000000
FF000000
FF000000
FF000000
FF000000
FF000000
FF000000
FF000000
FF000000
FF000000
FF000000
FF000000
FF00F800
FF01FC00
FF03FE00
FF03FE00
FF03FE00
FF03FE00
FF01FC00
FF00F800
FF000000
FF000000
FF000000
FF000000
FF000000
FF000000
FF000000
FF000000
FF000000
FF000000
FF000000
FF000000
FF000000
FFFFFFF8
FFFFFFF8
FFFFFFF8
FFFFFFF8
FFFFFFF8
FFFFFFF8
FFFFFFF8
ENDCHAR
STARTCHAR 0140
ENCODING 320
SWIDTH 596 0
DWIDTH 37 0
BBX 30 46 4 0
BITMAP
FFFFC000
FFFFC000
FFFFC000
FFFFC000
FFFFC000
FFFFC000
FFFFC000
003FC000
003FC000
003FC000
003FC000
003FC000
003FC000
003FC000
003FC000
003FC000
003FC000
003FC000
003FC1F0
003FC3F8
003FC7FC
003FC7FC
003FC7FC
003FC7FC
003FC3F8
003FC1F0
003FC000
003FC000
003FC000
003FC000
003FC000
003FC000
003FC000
003FC000
003FC000
003FC000
003FC000
003FC000
003FC000
FFFFFFF0
FFFFFFF0
FFFFFFF0
FFFFFFF0
FFFFFFF0
FFFFFFF0
FFFFFFF0
ENDCHAR
STARTCHAR 0141
ENCODING 321
SWIDTH 612 0
DWIDTH 38 0
BBX 33 44 2 0
BITMAP
0FF0000000
0FF0000000
0FF0000000
0FF0000000
0FF0000000
0FF0000000
0FF0000000
0FF0000000
0FF0000000
0FF0000000
0FF0000000
0FF0000000
0FF0000000
0FF0000000
0FF0000000
0FF0100000
0FF1F00000
0FFFF00000
0FFFF00000
0FFFF00000
7FFFF00000
FFFFC00000
FFFE000000
FFF0000000
FFF0000000
FFF0000000
8FF0000000
0FF0000000
0FF0000000
0FF0000000
0FF0000000
0FF0000000
0FF0000000
0FF0000000
0FF0000000
0FF0000000
0FF0000000
0FFFFFFF80
0FFFFFFF80
0FFFFFFF80
0FFFFFFF80
0FFFFFFF80
0FFFFFFF80
0FFFFFFF80
ENDCHAR
STARTCHAR 0142
ENCODING 322
SWIDTH 596 0
DWIDTH 37 0
BBX 28 46 6 0
BITMAP
FFFFC000
FFFFC000
FFFFC000
FFFFC000
FFFFC000
FFFFC000
FFFFC000
003FC000
003FC000
003FC000
003FC000
003FC000
003FC060
003FC1E0
003FC7E0
003FFFE0
003FFFE0
003FFFE0
003FFF80
007FFE00
01FFF000
07FFC000
3FFFC000
FFFFC000
FFFFC000
FFBFC000
FE3FC000
F03FC000
C03FC000
003FC000
003FC000
003FC000
003FC000
003FC000
003FC000
003FC000
003FC000
003FC000
003FC000
FFFFFFF0
FFFFFFF0
FFFFFFF0
FFFFFFF0
FFFFFFF0
FFFFFFF0
FFFFFFF0
ENDCHAR
STARTCHAR 0143
ENCODING 323
SWIDTH 612 0
DWIDTH 38 0
BBX 29 54 4 0
BITMAP
00007FC0
0000FF80
0001FF00
0001FE00
0003FC00
0007F800
000FF000
000FE000
00000000
00000000
FF8007F8
FF8007F8
FFC007F8
FFC007F8
FFC007F8
FFE007F8
FFE007F8
FFF007F8
FFF007F8
FFF807F8
FFF807F8
FFFC07F8
FFFC07F8
FFFC07F8
FFFE07F8
FFFE07F8
FF7F07F8
FF7F07F8
FF3F87F8
FF3F87F8
FF1FC7F8
FF1FC7F8
FF1FC7F8
FF0FE7F8
FF0FE7F8
FF07F7F8
FF07F7F8
FF03FFF8
FF03FFF8
FF01FFF8
FF01FFF8
FF01FFF8
FF00FFF8
FF00FFF8
FF007FF8
FF007FF8
FF003FF8
FF003FF8
FF001FF8
FF001FF8
FF000FF8
FF000FF8
FF000FF8
FF0007F8
ENDCHAR
STARTCHAR 0144
ENCODING 324
SWIDTH 596 0
DWIDTH 37 0
BBX 29 45 4 0
BITMAP
0000FF80
0001FF00
0001FE00
0003FC00
0007F800
000FF000
000FE000
001FC000
00000000
00000000
00000000
00000000
00000000
FF07FE00
FF1FFF80
FF3FFFC0
FF7FFFE0
FFFFFFF0
FFFFFFF0
FFF03FF8
FFC01FF8
FF800FF8
FF0007F8
FF0007F8
FF0007F8
FF0007F8
FF0007F8
FF0007F8
FF0007F8
FF0007F8
FF0007F8
FF0007F8
FF0007F8
FF0007F8
FF0007F8
FF0007F8
FF0007F8
FF0007F8
FF0007F8
FF0007F8
FF0007F8
FF0007F8
FF0007F8
FF0007F8
FF0007F8
ENDCHAR
STARTCHAR 0145
ENCODING 325
SWIDTH 612 0
DWIDTH 38 0
BBX 29 58 4 -15
BITMAP
FF8007F8
FF8007F8
FFC007F8
FFC007F8
FFC007F8
FFE007F8
FFE007F8
FFF007F8
FFF007F8
FFF807F8
FFF807F8
FFFC07F8
FFFC07F8
FFFC07F8
FFFE07F8
FFFE07F8
FF7F07F8
FF7F07F8
FF3F87F8
FF3F87F8
FF1FC7F8
FF1FC7F8
FF1FC7F8
FF0FE7F8
FF0FE7F8
FF07F7F8
FF07F7F8
FF03FFF8
FF03FFF8
FF01FFF8
FF01FFF8
FF01FFF8
FF00FFF8
FF00FFF8
FF007FF8
FF007FF8
FF003FF8
FF003FF8
FF001FF8
FF001FF8
FF000FF8
FF000FF8
FF000FF8
FF0007F8
00000000
00000000
000FC000
000FC000
000FC000
000FC000
000FC000
000FC000
001F8000
001F8000
001F0000
003F0000
003E0000
000C0000
ENDCHAR
STARTCHAR 0146
ENCODING 326
SWIDTH 596 0
DWIDTH 37 0
BBX 29 46 4 -14
BITMAP
FF07FE00
FF1FFF80
FF3FFFC0
FF7FFFE0
FFFFFFF0
FFFFFFF0
FFF03FF8
FFC01FF8
FF800FF8
FF0007F8
FF0007F8
FF0007F8
FF0007F8
FF0007F8
FF0007F8
FF0007F8
FF0007F8
FF0007F8
FF0007F8
FF0007F8
FF0007F8
FF0007F8
FF0007F8
FF0007F8
FF0007F8
FF0007F8
FF0007F8
FF0007F8
FF0007F8
FF0007F8
FF0007F8
FF0007F8
00000000
00000000
001F8000
001F8000
001F8000
001F8000
001F8000
001F8000
001F0000
003F0000
003E0000
007E0000
007C0000
00180000
ENDCHAR
STARTCHAR 0147
ENCODING 327
SWIDTH 612 0
DWIDTH 38 0
BBX 29 56 4 0
BITMAP
1FE01FE0
0FF03FC0
07F8FF00
03FDFE00
00FFFC00
007FF800
003FF000
001FE000
000FC000
00000000
00000000
00000000
FF8007F8
FF8007F8
FFC007F8
FFC007F8
FFC007F8
FFE007F8
FFE007F8
FFF007F8
FFF007F8
FFF807F8
FFF807F8
FFFC07F8
FFFC07F8
FFFC07F8
FFFE07F8
FFFE07F8
FF7F07F8
FF7F07F8
FF3F87F8
FF3F87F8
FF1FC7F8
FF1FC7F8
FF1FC7F8
FF0FE7F8
FF0FE7F8
FF07F7F8
FF07F7F8
FF03FFF8
FF03FFF8
FF01FFF8
FF01FFF8
FF01FFF8
FF00FFF8
FF00FFF8
FF007FF8
FF007FF8
FF003FF8
FF003FF8
FF001FF8
FF001FF8
FF000FF8
FF000FF8
FF000FF8
FF0007F8
ENDCHAR
STARTCHAR 0148
ENCODING 328
SWIDTH 596 0
DWIDTH 37 0
BBX 29 46 4 0
BITMAP
3FC03FC0
0FE07F80
07F8FF00
03FFFC00
01FFF800
00FFF000
003FE000
001FC000
00000000
00000000
00000000
00000000
00000000
00000000
FF07FE00
FF1FFF80
FF3FFFC0
FF7FFFE0
FFFFFFF0
FFFFFFF0
FFF03FF8
FFC01FF8
FF800FF8
FF0007F8
FF0007F8
FF0007F8
FF0007F8
FF0007F8
FF0007F8
FF0007F8
FF0007F8
FF0007F8
FF0007F8
FF0007F8
FF0007F8
FF0007F8
FF0007F8
FF0007F8
FF0007F8
FF0007F8
FF0007F8
FF0007F8
FF0007F8
FF0007F8
FF0007F8
FF0007F8
ENDCHAR
STARTCHAR 0149
ENCODING 329
SWIDTH 596 0
DWIDTH 37 0
BBX 37 47 -4 0
BITMAP
3F80000000
3F80000000
3F80000000
3F80000000
3F80000000
3F80000000
3F80000000
3F80000000
3F80000000
3F00000000
7F00000000
7F00000000
7E00000000
FE00000000
FC00002000
F87F07FF00
707F0FFF80
007F3FFFC0
007FFFFFE0
007FFFFFF0
007FFFFFF0
007FF03FF8
007FE01FF8
007FC00FF8
007F8007F8
007F8007F8
007F8007F8
007F8007F8
007F8007F8
007F8007F8
007F8007F8
007F8007F8
007F8007F8
007F8007F8
007F8007F8
007F8007F8
007F8007F8
007F8007F8
007F8007F8
007F8007F8
007F8007F8
007F8007F8
007F8007F8
007F8007F8
007F8007F8
007F8007F8
007F8007F8
ENDCHAR
STARTCHAR 014A
ENCODING 330
SWIDTH 580 0
DWIDTH 36 0
BBX 28 57 4 -13
BITMAP
FF800FF0
FF800FF0
FFC00FF0
FFC00FF0
FFC00FF0
FFE00FF0
FFE00FF0
FFF00FF0
FFF00FF0
FFF80FF0
FFF80FF0
FFF80FF0
FFFC0FF0
FFFC0FF0
FFFE0FF0
FFFE0FF0
FFFF0FF0
FFFF0FF0
FF7F0FF0
FF7F8FF0
FF3F8FF0
FF3FCFF0
FF1FCFF0
FF1FEFF0
FF0FEFF0
FF0FFFF0
FF0FFFF0
FF07FFF0
FF07FFF0
FF03FFF0
FF03FFF0
FF01FFF0
FF01FFF0
FF01FFF0
FF00FFF0
FF00FFF0
FF007FF0
FF007FF0
FF003FF0
FF003FF0
FF003FF0
FF001FF0
FF001FF0
FF000FF0
00000FF0
00000FF0
00000FF0
00000FF0
00001FF0
00003FF0
0007FFE0
0007FFE0
0007FFC0
0007FF80
0007FF00
0007FE00
0000C000
ENDCHAR
STARTCHAR 014B
ENCODING 331
SWIDTH 612 0
DWIDTH 38 0
BBX 28 46 5 -13
BITMAP
00004000
FF07FC00
FF1FFF00
FF3FFF80
FF7FFFC0
FFFFFFC0
FFFFFFE0
FFF07FE0
FFC03FF0
FF801FF0
FF001FF0
FF001FF0
FF000FF0
FF000FF0
FF000FF0
FF000FF0
FF000FF0
FF000FF0
FF000FF0
FF000FF0
FF000FF0
FF000FF0
FF000FF0
FF000FF0
FF000FF0
FF000FF0
FF000FF0
FF000FF0
FF000FF0
FF000FF0
FF000FF0
FF000FF0
FF000FF0
00000FF0
00000FF0
00001FF0
00001FF0
00001FF0
00007FE0
0007FFE0
0007FFE0
0007FFC0
0007FF80
0007FF00
0007FC00
0000C000
ENDCHAR
STARTCHAR 014C
ENCODING 332
SWIDTH 580 0
DWIDTH 36 0
BBX 32 55 2 -1
BITMAP
07FFFFE0
07FFFFE0
07FFFFE0
07FFFFE0
07FFFFE0
00000000
00000000
00000000
00000000
00000000
003FFC00
00FFFF00
01FFFF80
07FFFFC0
0FFFFFE0
0FFFFFF0
1FFC3FF8
3FF00FF8
3FE007FC
3FC003FC
7FC003FE
7F8001FE
7F8001FE
FF8001FE
FF8001FF
FF8001FF
FF0001FF
FF0000FF
FF0000FF
FF0000FF
FF0000FF
FF0000FF
FF0000FF
FF0000FF
FF0000FF
FF0000FF
FF0000FF
FF0001FF
FF8001FF
FF8001FF
FF8001FF
7F8001FE
7F8003FE
7FC003FE
3FC003FC
3FE007FC
3FF00FF8
1FFC3FF8
0FFFFFF0
0FFFFFE0
07FFFFC0
03FFFF80
00FFFF00
003FFC00
00010000
ENDCHAR
STARTCHAR 014D
ENCODING 333
SWIDTH 596 0
DWIDTH 37 0
BBX 31 45 3 -1
BITMAP
07FFFFE0
07FFFFE0
07FFFFE0
07FFFFE0
07FFFFE0
00000000
00000000
00000000
00000000
00000000
00000000
00010000
007FFC00
01FFFF00
03FFFF80
07FFFFC0
0FFFFFE0
1FFFFFF0
3FF83FF8
3FE00FF8
7FC007FC
7FC007FC
7F8003FC
FF8003FE
FF8003FE
FF8003FE
FF0001FE
FF0001FE
FF0001FE
FF0001FE
FF8003FE
FF8003FE
FF8003FE
7F8003FC
7FC007FC
7FC007FC
3FE00FF8
3FF83FF8
1FFFFFF0
0FFFFFE0
07FFFFC0
03FFFF80
01FFFF00
007FFC00
00010000
ENDCHAR
STARTCHAR 014E
ENCODING 334
SWIDTH 580 0
DWIDTH 36 0
BBX 32 58 2 -1
BITMAP
03F007E0
03F007E0
03F007E0
03F80FE0
01FC1FC0
01FFFFC0
00FFFF80
007FFF00
003FFE00
0007F000
00000000
00000000
00000000
003FFC00
00FFFF00
01FFFF80
07FFFFC0
0FFFFFE0
0FFFFFF0
1FFC3FF8
3FF00FF8
3FE007FC
3FC003FC
7FC003FE
7F8001FE
7F8001FE
FF8001FE
FF8001FF
FF8001FF
FF0001FF
FF0000FF
FF0000FF
FF0000FF
FF0000FF
FF0000FF
FF0000FF
FF0000FF
FF0000FF
FF0000FF
FF0000FF
FF0001FF
FF8001FF
FF8001FF
FF8001FF
7F8001FE
7F8003FE
7FC003FE
3FC003FC
3FE007FC
3FF00FF8
1FFC3FF8
0FFFFFF0
0FFFFFE0
07FFFFC0
03FFFF80
00FFFF00
003FFC00
00010000
ENDCHAR
STARTCHAR 014F
ENCODING 335
SWIDTH 596 0
DWIDTH 37 0
BBX 31 47 3 -1
BITMAP
07E00FC0
07E00FC0
07F01FC0
03F83F80
03FFFF80
01FFFF00
00FFFE00
007FFC00
000FE000
00000000
00000000
00000000
00000000
00010000
007FFC00
01FFFF00
03FFFF80
07FFFFC0
0FFFFFE0
1FFFFFF0
3FF83FF8
3FE00FF8
7FC007FC
7FC007FC
7F8003FC
FF8003FE
FF8003FE
FF8003FE
FF0001FE
FF0001FE
FF0001FE
FF0001FE
FF8003FE
FF8003FE
FF8003FE
7F8003FC
7FC007FC
7FC007FC
3FE00FF8
3FF83FF8
1FFFFFF0
0FFFFFE0
07FFFFC0
03FFFF80
01FFFF00
007FFC00
00010000
ENDCHAR
STARTCHAR 0150
ENCODING 336
SWIDTH 580 0
DWIDTH 36 0
BBX 32 58 2 -1
BITMAP
0007F8FF
0007F1FE
000FE3FC
001FC3F8
003F87F0
007F0FE0
007E1FC0
00FC3F00
00000000
00000000
00000000
00000000
00000000
003FFC00
00FFFF00
01FFFF80
07FFFFC0
0FFFFFE0
0FFFFFF0
1FFC3FF8
3FF00FF8
3FE007FC
3FC003FC
7FC003FE
7F8001FE
7F8001FE
FF8001FE
FF8001FF
FF8001FF
FF0001FF
FF0000FF
FF0000FF
FF0000FF
FF0000FF
FF0000FF
FF0000FF
FF0000FF
FF0000FF
FF0000FF
FF0000FF
FF0001FF
FF8001FF
FF8001FF
FF8001FF
7F8001FE
7F8003FE
7FC003FE
3FC003FC
3FE007FC
3FF00FF8
1FFC3FF8
0FFFFFF0
0FFFFFE0
07FFFFC0
03FFFF80
00FFFF00
003FFC00
00010000
ENDCHAR
STARTCHAR 0151
ENCODING 337
SWIDTH 596 0
DWIDTH 37 0
BBX 32 47 3 -1
BITMAP
0007F8FF
000FF1FE
001FE3FC
001FC7F8
003F8FF0
007F1FC0
00FE3F80
00FC3F00
00000000
00000000
00000000
00000000
00000000
00010000
007FFC00
01FFFF00
03FFFF80
07FFFFC0
0FFFFFE0
1FFFFFF0
3FF83FF8
3FE00FF8
7FC007FC
7FC007FC
7F8003FC
FF8003FE
FF8003FE
FF8003FE
FF0001FE
FF0001FE
FF0001FE
FF0001FE
FF8003FE
FF8003FE
FF8003FE
7F8003FC
7FC007FC
7FC007FC
3FE00FF8
3FF83FF8
1FFFFFF0
0FFFFFE0
07FFFFC0
03FFFF80
01FFFF00
007FFC00
00010000
ENDCHAR
STARTCHAR 0152
ENCODING 338
SWIDTH 596 0
DWIDTH 37 0
BBX 34 45 2 0
BITMAP
00FFFFFFC0
03FFFFFFC0
0FFFFFFFC0
1FFFFFFFC0
1FFFFFFFC0
3FFFFFFFC0
3FE0FFFFC0
7F80FE0000
7F00FE0000
7F00FE0000
FE00FE0000
FE00FE0000
FE00FE0000
FE00FE0000
FE00FE0000
FE00FE0000
FE00FE0000
FE00FE0000
FE00FFFF00
FE00FFFF00
FE00FFFF00
FE00FFFF00
FE00FFFF00
FE00FFFF00
FE00FFFF00
FE00FE0000
FE00FE0000
FE00FE0000
FE00FE0000
FE00FE0000
FE00FE0000
FE00FE0000
FE00FE0000
FE00FE0000
7F00FE0000
7F00FE0000
7F80FE0000
3FE0FFFFC0
3FFFFFFFC0
1FFFFFFFC0
1FFFFFFFC0
0FFFFFFFC0
03FFFFFFC0
00FFFFFFC0
000C000000
ENDCHAR
STARTCHAR 0153
ENCODING 339
SWIDTH 596 0
DWIDTH 37 0
BBX 35 33 1 0
BITMAP
03FF0FF800
07FF9FFE00
1FFFFFFF00
1FFFFFFF80
3FFFFFFF80
7FFFFFFFC0
7FCFFF3FC0
7F87FE1FE0
FF83FE1FE0
FF83FC1FE0
FF83FC1FE0
FF03FC1FE0
FF03FFFFE0
FF03FFFFE0
FF03FFFFE0
FF03FFFFE0
FF03FFFFE0
FF03FFFFE0
FF03FC0000
FF03FC0000
FF03FC0000
FF83FE0000
FF83FE0000
FF83FE0000
7F87FF0000
7FCFFFC300
7FFFFFFF00
3FFFFFFF80
1FFFFFFF80
1FFFFFFF80
0FFF9FFF80
03FF07FE00
0030002000
ENDCHAR
STARTCHAR 0154
ENCODING 340
SWIDTH 596 0
DWIDTH 37 0
BBX 32 54 4 0
BITMAP
0000FF80
0001FF00
0003FE00
0003FC00
0007F800
000FF000
000FE000
001FC000
00000000
00000000
FFFFF000
FFFFFE00
FFFFFF80
FFFFFFE0
FFFFFFF0
FFFFFFF8
FFFFFFF8
FF001FFC
FF000FFC
FF0007FE
FF0003FE
FF0003FE
FF0003FE
FF0001FE
FF0001FE
FF0003FE
FF0003FE
FF0003FC
FF0007FC
FF000FFC
FF003FF8
FFFFFFF8
FFFFFFF0
FFFFFFE0
FFFFFF80
FFFFFE00
FFFFFF00
FFFFFF00
FF01FF80
FF00FF80
FF00FFC0
FF007FC0
FF003FE0
FF003FE0
FF001FF0
FF001FF0
FF000FF8
FF000FF8
FF0007FC
FF0007FC
FF0003FE
FF0003FE
FF0001FF
FF0001FF
ENDCHAR
STARTCHAR 0155
ENCODING 341
SWIDTH 612 0
DWIDTH 38 0
BBX 25 45 9 0
BITMAP
001FF000
003FE000
007FC000
00FF8000
00FF0000
01FE0000
03F80000
03F00000
00000000
00000000
00000000
00000000
00001000
FF03FF80
FF0FFF80
FF1FFF80
FF3FFF80
FF7FFF80
FFFFFF00
FFFFFF00
FFFFFF00
FFF00000
FFE00000
FFC00000
FF800000
FF800000
FF000000
FF000000
FF000000
FF000000
FF000000
FF000000
FF000000
FF000000
FF000000
FF000000
FF000000
FF000000
FF000000
FF000000
FF000000
FF000000
FF000000
FF000000
FF000000
ENDCHAR
STARTCHAR 0156
ENCODING 342
SWIDTH 596 0
DWIDTH 37 0
BBX 32 58 4 -15
BITMAP
FFFFF000
FFFFFE00
FFFFFF80
FFFFFFE0
FFFFFFF0
FFFFFFF8
FFFFFFF8
FF001FFC
FF000FFC
FF0007FE
FF0003FE
FF0003FE
FF0003FE
FF0001FE
FF0001FE
FF0003FE
FF0003FE
FF0003FC
FF0007FC
FF000FFC
FF003FF8
FFFFFFF8
FFFFFFF0
FFFFFFE0
FFFFFF80
FFFFFE00
FFFFFF00
FFFFFF00
FF00FF80
FF00FF80
FF007FC0
FF007FC0
FF003FE0
FF003FE0
FF001FF0
FF001FF0
FF000FF8
FF000FF8
FF0007FC
FF0007FC
FF0003FE
FF0003FE
FF0001FF
FF0001FF
00000000
00000000
000FC000
000FC000
000FC000
000FC000
000FC000
000FC000
001F8000
001F8000
003F0000
003F0000
003E0000
001C0000
ENDCHAR
STARTCHAR 0157
ENCODING 343
SWIDTH 612 0
DWIDTH 38 0
BBX 25 47 9 -15
BITMAP
00001000
FF03FF80
FF0FFF80
FF1FFF80
FF3FFF80
FF7FFF80
FFFFFF00
FFFFFF00
FFFFFF00
FFF00000
FFE00000
FFC00000
FF800000
FF800000
FF000000
FF000000
FF000000
FF000000
FF000000
FF000000
FF000000
FF000000
FF000000
FF000000
FF000000
FF000000
FF000000
FF000000
FF000000
FF000000
FF000000
FF000000
FF000000
00000000
00000000
3F000000
3F000000
3F000000
3F000000
3F000000
3F000000
7E000000
7E000000
FC000000
FC000000
F8000000
70000000
ENDCHAR
STARTCHAR 0158
ENCODING 344
SWIDTH 596 0
DWIDTH 37 0
BBX 32 56 4 0
BITMAP
3FC01FC0
1FE07F80
0FF0FF00
07F9FE00
01FFFC00
00FFF000
007FE000
003FC000
001F8000
00000000
00000000
00000000
FFFFF000
FFFFFE00
FFFFFF80
FFFFFFE0
FFFFFFF0
FFFFFFF8
FFFFFFF8
FF001FFC
FF000FFC
FF0007FE
FF0003FE
FF0003FE
FF0003FE
FF0001FE
FF0001FE
FF0003FE
FF0003FE
FF0003FC
FF0007FC
FF000FFC
FF003FF8
FFFFFFF8
FFFFFFF0
FFFFFFE0
FFFFFF80
FFFFFE00
FFFFFF00
FFFFFF00
FF01FF80
FF00FF80
FF00FFC0
FF007FC0
FF003FE0
FF003FE0
FF001FF0
FF001FF0
FF000FF8
FF000FF8
FF0007FC
FF0007FC
FF0003FE
FF0003FE
FF0001FF
FF0001FF
ENDCHAR
STARTCHAR 0159
ENCODING 345
SWIDTH 596 0
DWIDTH 37 0
BBX 28 46 5 0
BITMAP
FF00FF00
3F81FC00
1FC7F800
0FFFF000
07FFE000
03FFC000
01FF0000
007E0000
00000000
00000000
00000000
00000000
00000000
00000200
1FE07FF0
1FE1FFF0
1FE3FFF0
1FE7FFF0
1FEFFFF0
1FFFFFE0
1FFFFFE0
1FFFFFE0
1FFE0000
1FFC0000
1FF80000
1FF00000
1FF00000
1FE00000
1FE00000
1FE00000
1FE00000
1FE00000
1FE00000
1FE00000
1FE00000
1FE00000
1FE00000
1FE00000
1FE00000
1FE00000
1FE00000
1FE00000
1FE00000
1FE00000
1FE00000
1FE00000
ENDCHAR
STARTCHAR 015A
ENCODING 346
SWIDTH 596 0
DWIDTH 37 0
BBX 32 56 3 -1
BITMAP
00001FF0
00003FE0
00007FC0
00007F80
0000FE00
0001FC00
0001F800
0003F000
00000000
00000000
00000000
003FFE00
00FFFFC0
03FFFFE0
07FFFFF0
0FFFFFF8
1FFFFFFC
1FFC1FFE
3FF007FE
3FE001FF
3FC001FF
3FC000FF
3FC000FF
3FC000FF
3FC00000
3FE00000
3FF00000
1FFC0000
1FFF0000
0FFFE000
07FFFC00
03FFFF00
01FFFFC0
007FFFE0
003FFFF8
0007FFF8
0000FFFC
00001FFE
000007FE
000003FF
000001FF
FF0000FF
FF0000FF
FF8000FF
FF8000FF
7F8000FF
7FC001FF
7FE003FF
3FFC0FFE
1FFFFFFE
0FFFFFFC
07FFFFF8
03FFFFF0
00FFFFC0
003FFF00
0000C000
ENDCHAR
STARTCHAR 015B
ENCODING 347
SWIDTH 612 0
DWIDTH 38 0
BBX 30 46 4 -1
BITMAP
0000FF80
0001FF00
0001FE00
0003FC00
0007F800
0007F000
000FE000
001FC000
00000000
00000000
00000000
00000000
00010000
007FFC00
03FFFF80
07FFFFC0
0FFFFFE0
1FFFFFF0
3FFFFFF8
7FE00FF8
7FC007FC
7F8007FC
7F8003FC
7FC00000
7FE00000
3FFC0000
3FFFE000
1FFFFE00
0FFFFF80
03FFFFE0
00FFFFF0
001FFFF8
0000FFF8
00000FFC
000007FC
FF0003FC
FF8003FC
FFC007FC
7FE00FFC
7FFFFFF8
3FFFFFF0
1FFFFFF0
0FFFFFC0
03FFFF80
00FFFC00
00030000
ENDCHAR
STARTCHAR 015C
ENCODING 348
SWIDTH 596 0
DWIDTH 37 0
BBX 32 58 3 -1
BITMAP
0001E000
0007F800
000FFC00
001FFE00
007FFF00
00FF3F80
03FE1FE0
07FC0FF0
07F807F0
00000000
00000000
00000000
00000000
003FFE00
00FFFFC0
03FFFFE0
07FFFFF0
0FFFFFF8
1FFFFFFC
1FFC1FFE
3FF007FE
3FE001FF
3FC001FF
3FC000FF
3FC000FF
3FC000FF
3FC00000
3FE00000
3FF00000
1FFC0000
1FFF0000
0FFFE000
07FFFC00
03FFFF00
01FFFFC0
007FFFE0
003FFFF8
0007FFF8
0000FFFC
00001FFE
000007FE
000003FF
000001FF
FF0000FF
FF0000FF
FF8000FF
FF8000FF
7F8000FF
7FC001FF
7FE003FF
3FFC0FFE
1FFFFFFE
0FFFFFFC
07FFFFF8
03FFFFF0
00FFFFC0
003FFF00
0000C000
ENDCHAR
STARTCHAR 015D
ENCODING 349
SWIDTH 612 0
DWIDTH 38 0
BBX 30 48 4 -1
BITMAP
000F8000
001FC000
003FE000
00FFF000
01FFFC00
03FDFE00
07F8FF00
0FF07F80
1FC03FC0
00000000
00000000
00000000
00000000
00000000
00010000
007FFC00
03FFFF80
07FFFFC0
0FFFFFE0
1FFFFFF0
3FFFFFF8
7FE00FF8
7FC007FC
7F8007FC
7F8003FC
7FC00000
7FE00000
3FFC0000
3FFFE000
1FFFFE00
0FFFFF80
03FFFFE0
00FFFFF0
001FFFF8
0000FFF8
00000FFC
000007FC
FF0003FC
FF8003FC
FFC007FC
7FE00FFC
7FFFFFF8
3FFFFFF0
1FFFFFF0
0FFFFFC0
03FFFF80
00FFFC00
00030000
ENDCHAR
STARTCHAR 015E
ENCODING 350
SWIDTH 596 0
DWIDTH 37 0
BBX 32 58 3 -13
BITMAP
003FFE00
00FFFFC0
03FFFFE0
07FFFFF0
0FFFFFF8
1FFFFFFC
1FFC1FFE
3FF007FE
3FE001FF
3FC001FF
3FC000FF
3FC000FF
3FC000FF
3FC00000
3FE00000
3FF00000
1FFC0000
1FFF0000
0FFFE000
07FFFC00
03FFFF00
01FFFFC0
007FFFE0
003FFFF8
0007FFF8
0000FFFC
00001FFE
000007FE
000003FF
000001FF
FF0000FF
FF0000FF
FF8000FF
FF8000FF
7F8000FF
7FC001FF
7FE003FF
3FFC0FFE
1FFFFFFE
0FFFFFFC
07FFFFF8
03FFFFF0
00FFFFC0
003FFF00
0003F000
0003F000
0003FE00
0003FF00
0000FF00
00003F80
00003F80
00003F80
00007F80
0003FF00
0003FF00
0003FE00
0003FC00
0003E000
ENDCHAR
STARTCHAR 015F
ENCODING 351
SWIDTH 612 0
DWIDTH 38 0
BBX 30 47 4 -14
BITMAP
00010000
007FFC00
03FFFF80
07FFFFC0
0FFFFFE0
1FFFFFF0
3FFFFFF8
3FE00FF8
7FC007FC
7F8007FC
7F8003FC
7FC00000
7FE00000
3FFC0000
3FFFE000
1FFFFE00
0FFFFF80
03FFFFE0
00FFFFF0
001FFFF8
0000FFF8
00000FFC
000007FC
FF0003FC
FF8003FC
FF8003FC
7FE007FC
7FFC3FF8
3FFFFFF0
1FFFFFF0
0FFFFFC0
03FFFF80
00FFFC00
001FC000
001F8000
001FF000
001FF800
0007FC00
0001FC00
0001FC00
0001FC00
0003FC00
001FF800
001FF800
001FF000
001FE000
001F0000
ENDCHAR
STARTCHAR 0160
ENCODING 352
SWIDTH 596 0
DWIDTH 37 0
BBX 32 58 3 -1
BITMAP
07F807F0
03FC0FF0
01FE1FE0
00FF3F80
003FFF00
001FFE00
000FFC00
0007F800
0003F000
00000000
00000000
00000000
00000000
003FFE00
00FFFFC0
03FFFFE0
07FFFFF0
0FFFFFF8
1FFFFFFC
1FFC1FFE
3FF007FE
3FE001FF
3FC001FF
3FC000FF
3FC000FF
3FC000FF
3FC00000
3FE00000
3FF00000
1FFC0000
1FFF0000
0FFFE000
07FFFC00
03FFFF00
01FFFFC0
007FFFE0
003FFFF8
0007FFF8
0000FFFC
00001FFE
000007FE
000003FF
000001FF
FF0000FF
FF0000FF
FF8000FF
FF8000FF
7F8000FF
7FC001FF
7FE003FF
3FFC0FFE
1FFFFFFE
0FFFFFFC
07FFFFF8
03FFFFF0
00FFFFC0
003FFF00
0000C000
ENDCHAR
STARTCHAR 0161
ENCODING 353
SWIDTH 612 0
DWIDTH 38 0
BBX 30 48 4 -1
BITMAP
1FC01FC0
1FE03F80
0FF0FF00
07F9FE00
01FFFC00
00FFF800
007FF000
003FE000
001FC000
00000000
00000000
00000000
00000000
00000000
00010000
007FFC00
03FFFF80
07FFFFC0
0FFFFFE0
1FFFFFF0
3FFFFFF8
7FE00FF8
7FC007FC
7F8007FC
7F8003FC
7FC00000
7FE00000
3FFC0000
3FFFE000
1FFFFE00
0FFFFF80
03FFFFE0
00FFFFF0
001FFFF8
0000FFF8
00000FFC
000007FC
FF0003FC
FF8003FC
FFC007FC
7FE00FFC
7FFFFFF8
3FFFFFF0
1FFFFFF0
0FFFFFC0
03FFFF80
00FFFC00
00030000
ENDCHAR
STARTCHAR 0162
ENCODING 354
SWIDTH 612 0
DWIDTH 38 0
BBX 36 57 1 -13
BITMAP
FFFFFFFFF0
FFFFFFFFF0
FFFFFFFFF0
FFFFFFFFF0
FFFFFFFFF0
FFFFFFFFF0
FFFFFFFFF0
0003FC0000
0003FC0000
0003FC0000
0003FC0000
0003FC0000
0003FC0000
0003FC0000
0003FC0000
0003FC0000
0003FC0000
0003FC0000
0003FC0000
0003FC0000
0003FC0000
0003FC0000
0003FC0000
0003FC0000
0003FC0000
0003FC0000
0003FC0000
0003FC0000
0003FC0000
0003FC0000
0003FC0000
0003FC0000
0003FC0000
0003FC0000
0003FC0000
0003FC0000
0003FC0000
0003FC0000
0003FC0000
0003FC0000
0003FC0000
0003FC0000
0003FC0000
0003FC0000
0003F80000
0003FC0000
0003FF0000
0001FF0000
00003F8000
00003F8000
00003F8000
00007F8000
0001FF8000
0001FF0000
0001FE0000
0001FC0000
0001E00000
ENDCHAR
STARTCHAR 0163
ENCODING 355
SWIDTH 596 0
DWIDTH 37 0
BBX 29 55 4 -14
BITMAP
00FF0000
00FF0000
00FF0000
00FF0000
00FF0000
00FF0000
00FF0000
00FF0000
00FF0000
FFFFFFF0
FFFFFFF0
FFFFFFF0
FFFFFFF0
FFFFFFF0
FFFFFFF0
FFFFFFF0
00FF0000
00FF0000
00FF0000
00FF0000
00FF0000
00FF0000
00FF0000
00FF0000
00FF0000
00FF0000
00FF0000
00FF0000
00FF0000
00FF0000
00FF0000
00FF0000
00FF8000
00FF8000
00FFE038
007FFFF8
007FFFF8
003FFFF8
001FFFF8
000FFFF8
0003FFE0
0003F000
0007F000
0007FC00
0007FE00
0000FF00
00007F00
00007F00
00007F00
0000FF00
0003FE00
0003FE00
0003FC00
0003F800
0003C000
ENDCHAR
STARTCHAR 0164
ENCODING 356
SWIDTH 612 0
DWIDTH 38 0
BBX 36 56 1 0
BITMAP
03FC03FC00
01FE07F800
00FF1FE000
003FFFC000
001FFF8000
000FFF0000
0007FE0000
0003FC0000
0001F80000
0000000000
0000000000
0000000000
FFFFFFFFF0
FFFFFFFFF0
FFFFFFFFF0
FFFFFFFFF0
FFFFFFFFF0
FFFFFFFFF0
FFFFFFFFF0
0003FC0000
0003FC0000
0003FC0000
0003FC0000
0003FC0000
0003FC0000
0003FC0000
0003FC0000
0003FC0000
0003FC0000
0003FC0000
0003FC0000
0003FC0000
0003FC0000
0003FC0000
0003FC0000
0003FC0000
0003FC0000
0003FC0000
0003FC0000
0003FC0000
0003FC0000
0003FC0000
0003FC0000
0003FC0000
0003FC0000
0003FC0000
0003FC0000
0003FC0000
0003FC0000
0003FC0000
0003FC0000
0003FC0000
0003FC0000
0003FC0000
0003FC0000
0003FC0000
ENDCHAR
STARTCHAR 0165
ENCODING 357
SWIDTH 612 0
DWIDTH 38 0
BBX 34 53 3 -1
BITMAP
0000001FC0
0000001FC0
0000001FC0
0000001FC0
0000001FC0
0000001FC0
0000001FC0
0000001FC0
0000001FC0
0000001F80
0000003F80
00FF003F80
00FF003F00
00FF007E00
00FF007E00
00FF007C00
00FF003800
00FF000000
00FF000000
00FF000000
FFFFFFF000
FFFFFFF000
FFFFFFF000
FFFFFFF000
FFFFFFF000
FFFFFFF000
FFFFFFF000
00FF000000
00FF000000
00FF000000
00FF000000
00FF000000
00FF000000
00FF000000
00FF000000
00FF000000
00FF000000
00FF000000
00FF000000
00FF000000
00FF000000
00FF000000
00FF000000
00FF800000
00FFC00000
00FFE03800
007FFFF800
007FFFF800
003FFFF800
001FFFF800
000FFFFC00
0003FFE000
0000300000
ENDCHAR
STARTCHAR 0166
ENCODING 358
SWIDTH 612 0
DWIDTH 38 0
BBX 36 44 1 0
BITMAP
FFFFFFFFF0
FFFFFFFFF0
FFFFFFFFF0
FFFFFFFFF0
FFFFFFFFF0
FFFFFFFFF0
FFFFFFFFF0
0003FC0000
0003FC0000
0003FC0000
0003FC0000
0003FC0000
0003FC0000
0003FC0000
0003FC0000
0003FC0000
01FFFFF800
01FFFFF800
01FFFFF800
01FFFFF800
01FFFFF800
0003FC0000
0003FC0000
0003FC0000
0003FC0000
0003FC0000
0003FC0000
0003FC0000
0003FC0000
0003FC0000
0003FC0000
0003FC0000
0003FC0000
0003FC0000
0003FC0000
0003FC0000
0003FC0000
0003FC0000
0003FC0000
0003FC0000
0003FC0000
0003FC0000
0003FC0000
0003FC0000
ENDCHAR
STARTCHAR 0167
ENCODING 359
SWIDTH 596 0
DWIDTH 37 0
BBX 29 42 4 -1
BITMAP
00FF0000
00FF0000
00FF0000
00FF0000
00FF0000
00FF0000
00FF0000
00FF0000
00FF0000
FFFFFFF0
FFFFFFF0
FFFFFFF0
FFFFFFF0
FFFFFFF0
FFFFFFF0
FFFFFFF0
00FF0000
00FF0000
00FF0000
00FF0000
3FFFFE00
3FFFFE00
3FFFFE00
3FFFFE00
3FFFFE00
00FF0000
00FF0000
00FF0000
00FF0000
00FF0000
00FF0000
00FF0000
00FF8000
00FFC000
00FFE078
007FFFF8
007FFFF8
003FFFF8
001FFFF8
000FFFF8
0003FFE0
00003000
ENDCHAR
STARTCHAR 0168
ENCODING 360
SWIDTH 596 0
DWIDTH 37 0
BBX 29 57 4 0
BITMAP
00FC03C0
03FF07C0
07FFFFC0
07FFFF80
0FFFFF80
0F87FF00
0F01FE00
03003800
00000000
00000000
00000000
00000000
FF0007F8
FF0007F8
FF0007F8
FF0007F8
FF0007F8
FF0007F8
FF0007F8
FF0007F8
FF0007F8
FF0007F8
FF0007F8
FF0007F8
FF0007F8
FF0007F8
FF0007F8
FF0007F8
FF0007F8
FF0007F8
FF0007F8
FF0007F8
FF0007F8
FF0007F8
FF0007F8
FF0007F8
FF0007F8
FF0007F8
FF0007F8
FF0007F8
FF0007F8
FF0007F8
FF0007F8
FF8007F8
FF8007F8
FF800FF8
7F800FF8
7FC01FF0
7FE03FF0
3FF87FF0
3FFFFFE0
1FFFFFC0
0FFFFF80
07FFFF00
01FFFE00
007FF800
00020000
ENDCHAR
STARTCHAR 0169
ENCODING 361
SWIDTH 612 0
DWIDTH 38 0
BBX 29 48 5 -1
BITMAP
00000400
01F807C0
03FE0780
07FFFF80
0FFFFF80
0FFFFF00
1F8FFF00
1F01FE00
07007000
00000000
00000000
00000000
00000000
00000000
00000000
FF0007F8
FF0007F8
FF0007F8
FF0007F8
FF0007F8
FF0007F8
FF0007F8
FF0007F8
FF0007F8
FF0007F8
FF0007F8
FF0007F8
FF0007F8
FF0007F8
FF0007F8
FF0007F8
FF0007F8
FF0007F8
FF0007F8
FF0007F8
FF0007F8
FF8007F8
FF800FF8
FF800FF8
7FC01FF8
7FF07FF8
7FFFFFF8
3FFFFFF8
1FFFF7F8
1FFFE7F8
07FFC7F8
03FF07F8
00100000
ENDCHAR
STARTCHAR 016A
ENCODING 362
SWIDTH 596 0
DWIDTH 37 0
BBX 29 54 4 -1
BITMAP
0FFFFFC0
0FFFFFC0
0FFFFFC0
0FFFFFC0
0FFFFFC0
00000000
00000000
00000000
00000000
FF0007F8
FF0007F8
FF0007F8
FF0007F8
FF0007F8
FF0007F8
FF0007F8
FF0007F8
FF0007F8
FF0007F8
FF0007F8
FF0007F8
FF0007F8
FF0007F8
FF0007F8
FF0007F8
FF0007F8
FF0007F8
FF0007F8
FF0007F8
FF0007F8
FF0007F8
FF0007F8
FF0007F8
FF0007F8
FF0007F8
FF0007F8
FF0007F8
FF0007F8
FF0007F8
FF0007F8
FF8007F8
FF8007F8
FF800FF8
7F800FF8
7FC01FF0
7FE03FF0
3FF87FF0
3FFFFFE0
1FFFFFC0
0FFFFF80
07FFFF00
01FFFE00
007FF800
00020000
ENDCHAR
STARTCHAR 016B
ENCODING 363
SWIDTH 612 0
DWIDTH 38 0
BBX 29 44 5 -1
BITMAP
1FFFFF80
1FFFFF80
1FFFFF80
1FFFFF80
1FFFFF80
00000000
00000000
00000000
00000000
00000000
00000000
FF0007F8
FF0007F8
FF0007F8
FF0007F8
FF0007F8
FF0007F8
FF0007F8
FF0007F8
FF0007F8
FF0007F8
FF0007F8
FF0007F8
FF0007F8
FF0007F8
FF0007F8
FF0007F8
FF0007F8
FF0007F8
FF0007F8
FF0007F8
FF0007F8
FF8007F8
FF800FF8
FF800FF8
7FC01FF8
7FF07FF8
7FFFFFF8
3FFFFFF8
1FFFF7F8
1FFFE7F8
0FFFC7F8
03FF07F8
00100000
ENDCHAR
STARTCHAR 016C
ENCODING 364
SWIDTH 596 0
DWIDTH 37 0
BBX 29 57 4 -1
BITMAP
07E01F80
07E01F80
07F03F80
07F87F80
03FFFF00
01FFFE00
00FFFC00
007FF800
001FE000
00000000
00000000
00000000
FF0007F8
FF0007F8
FF0007F8
FF0007F8
FF0007F8
FF0007F8
FF0007F8
FF0007F8
FF0007F8
FF0007F8
FF0007F8
FF0007F8
FF0007F8
FF0007F8
FF0007F8
FF0007F8
FF0007F8
FF0007F8
FF0007F8
FF0007F8
FF0007F8
FF0007F8
FF0007F8
FF0007F8
FF0007F8
FF0007F8
FF0007F8
FF0007F8
FF0007F8
FF0007F8
FF0007F8
FF8007F8
FF8007F8
FF800FF8
7F800FF8
7FC01FF0
7FE03FF0
3FF87FF0
3FFFFFE0
1FFFFFC0
0FFFFF80
07FFFF00
01FFFE00
007FF800
00020000
ENDCHAR
STARTCHAR 016D
ENCODING 365
SWIDTH 612 0
DWIDTH 38 0
BBX 29 47 5 -1
BITMAP
0FC01F80
0FC01F80
0FE03F80
07F07F00
07FFFF00
03FFFE00
01FFFC00
00FFF800
001FC000
00000000
00000000
00000000
00000000
00000000
FF0007F8
FF0007F8
FF0007F8
FF0007F8
FF0007F8
FF0007F8
FF0007F8
FF0007F8
FF0007F8
FF0007F8
FF0007F8
FF0007F8
FF0007F8
FF0007F8
FF0007F8
FF0007F8
FF0007F8
FF0007F8
FF0007F8
FF0007F8
FF0007F8
FF8007F8
FF800FF8
FF800FF8
7FC01FF8
7FF07FF8
7FFFFFF8
3FFFFFF8
1FFFF7F8
1FFFE7F8
07FFC7F8
03FF07F8
00100000
ENDCHAR
STARTCHAR 016E
ENCODING 366
SWIDTH 596 0
DWIDTH 37 0
BBX 29 59 4 -1
BITMAP
00078000
001FE000
003FF000
00387000
00703800
00703800
00703800
00703800
00387800
003FF000
001FE000
00078000
00000000
00000000
FF0007F8
FF0007F8
FF0007F8
FF0007F8
FF0007F8
FF0007F8
FF0007F8
FF0007F8
FF0007F8
FF0007F8
FF0007F8
FF0007F8
FF0007F8
FF0007F8
FF0007F8
FF0007F8
FF0007F8
FF0007F8
FF0007F8
FF0007F8
FF0007F8
FF0007F8
FF0007F8
FF0007F8
FF0007F8
FF0007F8
FF0007F8
FF0007F8
FF0007F8
FF0007F8
FF0007F8
FF8007F8
FF8007F8
FF800FF8
7F800FF8
7FC01FF0
7FE03FF0
3FF87FF0
3FFFFFE0
1FFFFFC0
0FFFFF80
07FFFF00
01FFFE00
007FF800
00020000
ENDCHAR
STARTCHAR 016F
ENCODING 367
SWIDTH 612 0
DWIDTH 38 0
BBX 29 49 5 -1
BITMAP
000F0000
003FC000
007FE000
0070E000
00E07000
00E07000
00E07000
00E07000
00F0F000
007FE000
003FC000
001F8000
00000000
00000000
00000000
00000000
FF0007F8
FF0007F8
FF0007F8
FF0007F8
FF0007F8
FF0007F8
FF0007F8
FF0007F8
FF0007F8
FF0007F8
FF0007F8
FF0007F8
FF0007F8
FF0007F8
FF0007F8
FF0007F8
FF0007F8
FF0007F8
FF0007F8
FF0007F8
FF0007F8
FF8007F8
FF800FF8
FF800FF8
7FC01FF8
7FF07FF8
7FFFFFF8
3FFFFFF8
3FFFEFF8
1FFFCFF8
0FFF8FF8
03FE0FF8
00200000
ENDCHAR
STARTCHAR 0170
ENCODING 368
SWIDTH 596 0
DWIDTH 37 0
BBX 31 57 4 -1
BITMAP
000FF1FE
001FE3FC
001FC7F8
003F8FF0
007F0FE0
00FE1FC0
00FC3F00
01F87E00
00000000
00000000
00000000
00000000
FF0007F8
FF0007F8
FF0007F8
FF0007F8
FF0007F8
FF0007F8
FF0007F8
FF0007F8
FF0007F8
FF0007F8
FF0007F8
FF0007F8
FF0007F8
FF0007F8
FF0007F8
FF0007F8
FF0007F8
FF0007F8
FF0007F8
FF0007F8
FF0007F8
FF0007F8
FF0007F8
FF0007F8
FF0007F8
FF0007F8
FF0007F8
FF0007F8
FF0007F8
FF0007F8
FF0007F8
FF8007F8
FF8007F8
FF800FF8
7F800FF8
7FC01FF0
7FE03FF0
3FF87FF0
3FFFFFE0
1FFFFFC0
0FFFFF80
07FFFF00
01FFFE00
007FF800
00020000
ENDCHAR
STARTCHAR 0171
ENCODING 369
SWIDTH 612 0
DWIDTH 38 0
BBX 31 47 5 -1
BITMAP
000FF1FE
001FE3FC
003FC7F8
007F8FF0
00FF1FC0
00FE3F80
01FC7F00
03F8FE00
00000000
00000000
00000000
00000000
00000000
00000000
FF0007F8
FF0007F8
FF0007F8
FF0007F8
FF0007F8
FF0007F8
FF0007F8
FF0007F8
FF0007F8
FF0007F8
FF0007F8
FF0007F8
FF0007F8
FF0007F8
FF0007F8
FF0007F8
FF0007F8
FF0007F8
FF0007F8
FF0007F8
FF0007F8
FF8007F8
FF800FF8
FF800FF8
7FC01FF8
7FF07FF8
7FFFFFF8
3FFFFFF8
1FFFF7F8
1FFFE7F8
07FFC7F8
03FF07F8
00100000
ENDCHAR
STARTCHAR 0172
ENCODING 370
SWIDTH 596 0
DWIDTH 37 0
BBX 29 55 4 -11
BITMAP
FF0007F8
FF0007F8
FF0007F8
FF0007F8
FF0007F8
FF0007F8
FF0007F8
FF0007F8
FF0007F8
FF0007F8
FF0007F8
FF0007F8
FF0007F8
FF0007F8
FF0007F8
FF0007F8
FF0007F8
FF0007F8
FF0007F8
FF0007F8
FF0007F8
FF0007F8
FF0007F8
FF0007F8
FF0007F8
FF0007F8
FF0007F8
FF0007F8
FF0007F8
FF0007F8
FF0007F8
FF8007F8
FF8007F8
FF800FF8
7F800FF8
7FC01FF8
7FE03FF0
3FF07FF0
3FFFFFE0
1FFFFFE0
0FFFFFC0
07FFFF80
03FFFF00
00FFFC00
0007F000
0003F000
0007E000
0007E000
0007E000
0007F100
0007FF00
0003FF00
0003FF80
0001FF80
00007E00
ENDCHAR
STARTCHAR 0173
ENCODING 371
SWIDTH 612 0
DWIDTH 38 0
BBX 29 44 5 -12
BITMAP
FF000FF0
FF000FF0
FF000FF0
FF000FF0
FF000FF0
FF000FF0
FF000FF0
FF000FF0
FF000FF0
FF000FF0
FF000FF0
FF000FF0
FF000FF0
FF000FF0
FF000FF0
FF000FF0
FF000FF0
FF000FF0
FF000FF0
FF000FF0
FF000FF0
FF800FF0
FF800FF0
FF801FF0
7FC03FF0
7FE0FFF0
7FFFFFF0
3FFFFFF0
3FFFEFF0
1FFFE7F0
0FFF87F0
03FF07F0
00301FE0
00001F80
00003F00
00007E00
00007E00
00007E00
00007F00
00007FF0
00007FF8
00003FF8
00001FF8
000007F0
ENDCHAR
STARTCHAR 0174
ENCODING 372
SWIDTH 596 0
DWIDTH 37 0
BBX 36 56 1 0
BITMAP
0003F80000
0007FC0000
000FFE0000
001FFF0000
003FFF8000
00FF1FC000
01FE0FF000
03FC07F800
03F803F800
0000000000
0000000000
0000000000
FE03F80FF0
FF03F80FF0
FF03F80FE0
FF03F80FE0
FF03F81FE0
FF03F81FE0
FF07FC1FE0
7F07FC1FE0
7F07FC1FE0
7F87FC1FC0
7F87FC1FC0
7F87FC1FC0
7F87FE3FC0
7F8FFE3FC0
3F8FFE3FC0
3F8FFE3FC0
3F8FFE3F80
3FCFFE3F80
3FCFFE3F80
3FCFBF3F80
3FDFBF7F80
1FDFBF7F80
1FDFBF7F80
1FDFBF7F80
1FDF9F7F00
1FFF1FFF00
1FFF1FFF00
1FFF1FFF00
1FFF1FFF00
0FFF1FFF00
0FFF0FFF00
0FFE0FFE00
0FFE0FFE00
0FFE0FFE00
0FFE0FFE00
0FFE0FFE00
07FE07FE00
07FE07FE00
07FC07FC00
07FC07FC00
07FC07FC00
07FC07FC00
07FC03FC00
03FC03FC00
ENDCHAR
STARTCHAR 0175
ENCODING 373
SWIDTH 612 0
DWIDTH 38 0
BBX 35 46 1 0
BITMAP
0003F80000
0007FC0000
000FFE0000
001FFF0000
003FFF8000
007F3FC000
01FE0FF000
03FC07F800
03F803F800
0000000000
0000000000
0000000000
0000000000
0000000000
FF03F01FE0
FF03F81FE0
FF03F81FE0
FF03F81FE0
7F03F81FC0
7F03F81FC0
7F07FC1FC0
7F07FC3FC0
7F87FC3FC0
7F87FC3F80
3F87FC3F80
3F8FFE3F80
3F8FBE3F80
3F8FBE3F80
3F8FBE3F80
1FCFBE7F00
1FDF3E7F00
1FDF1F7F00
1FDF1F7F00
1FDF1F7F00
0FDF1F7E00
0FFE0F7E00
0FFE0FFE00
0FFE0FFE00
0FFE0FFE00
0FFE0FFC00
07FC07FC00
07FC07FC00
07FC07FC00
07FC07FC00
07F807FC00
03F803F800
ENDCHAR
STARTCHAR 0176
ENCODING 374
SWIDTH 612 0
DWIDTH 38 0
BBX 36 56 1 0
BITMAP
0001F80000
0003FE0000
0007FF0000
001FFF8000
003FDFE000
007F8FF000
00FE07F800
01FC03FC00
0000000000
0000000000
0000000000
0000000000
FFC0001FF0
7FC0001FF0
7FE0003FE0
3FE0003FE0
3FF0007FE0
1FF0007FC0
1FF000FFC0
0FF800FF80
0FF801FF80
07FC01FF00
07FC01FF00
03FE03FE00
03FE03FE00
01FF07FC00
01FF07FC00
00FF0FF800
00FF8FF800
007F8FF000
007FDFF000
003FDFE000
003FFFE000
001FFFC000
001FFFC000
000FFF8000
000FFF8000
0007FF0000
0007FF0000
0003FE0000
0003FE0000
0003FC0000
0003FC0000
0003FC0000
0003FC0000
0003FC0000
0003FC0000
0003FC0000
0003FC0000
0003FC0000
0003FC0000
0003FC0000
0003FC0000
0003FC0000
0003FC0000
0003FC0000
ENDCHAR
STARTCHAR 0177
ENCODING 375
SWIDTH 596 0
DWIDTH 37 0
BBX 36 59 1 -13
BITMAP
0001FC0000
0003FE0000
0007FF0000
000FFF8000
001FFFC000
003F9FE000
00FF07F800
01FE03FC00
01FC01FC00
0000000000
0000000000
0000000000
0000000000
0000000000
FFC0001FF0
7FC0003FF0
7FE0003FE0
3FE0003FE0
3FE0007FC0
1FF0007FC0
1FF000FF80
0FF800FF80
0FF801FF00
07F801FF00
07FC01FE00
03FC03FE00
03FE03FE00
03FE07FC00
01FE07FC00
01FF07F800
00FF0FF800
00FF8FF000
007F9FF000
007F9FE000
003FDFE000
003FFFC000
001FFFC000
001FFF8000
001FFF8000
000FFF8000
000FFF0000
0007FF0000
0007FE0000
0003FE0000
0003FC0000
0003FC0000
0007F80000
000FF80000
000FF00000
001FF00000
003FE00000
007FE00000
07FFC00000
07FFC00000
07FF800000
0FFF000000
0FFE000000
0FF8000000
0180000000
ENDCHAR
STARTCHAR 0178
ENCODING 376
SWIDTH 596 0
DWIDTH 37 0
BBX 36 55 1 0
BITMAP
00F003E000
01FC07F000
03FC07F800
03FC07F800
03FC07F800
01FC07F000
00F003E000
0000000000
0000000000
0000000000
0000000000
FF80003FF0
FF80003FE0
7FC0007FE0
7FC0007FC0
3FE000FFC0
3FE000FF80
1FF001FF80
1FF001FF00
0FF801FF00
0FF803FE00
07F803FE00
07FC07FC00
07FC07FC00
03FE0FF800
03FE0FF800
01FF0FF000
01FF1FF000
00FF1FE000
00FFBFE000
007FBFC000
007FFFC000
003FFF8000
003FFF8000
001FFF0000
001FFF0000
000FFE0000
000FFE0000
0007FC0000
0007FC0000
0007F80000
0007F80000
0007F80000
0007F80000
0007F80000
0007F80000
0007F80000
0007F80000
0007F80000
0007F80000
0007F80000
0007F80000
0007F80000
0007F80000
0007F80000
ENDCHAR
STARTCHAR 0179
ENCODING 377
SWIDTH 596 0
DWIDTH 37 0
BBX 32 54 3 0
BITMAP
00003FF0
00003FC0
00007F80
0000FF00
0001FE00
0001FC00
0003F800
0007F000
00000000
00000000
FFFFFFFF
FFFFFFFF
FFFFFFFF
FFFFFFFF
FFFFFFFF
FFFFFFFF
FFFFFFFE
000007FC
00000FFC
00000FF8
00001FF0
00003FF0
00003FE0
00007FC0
0000FFC0
0000FF80
0001FF00
0003FF00
0003FE00
0007FC00
000FFC00
000FF800
001FF000
003FF000
003FE000
007FC000
00FFC000
00FF8000
01FF0000
03FF0000
03FE0000
07FC0000
0FFC0000
0FF80000
1FF00000
3FF00000
3FE00000
7FFFFFFF
FFFFFFFF
FFFFFFFF
FFFFFFFF
FFFFFFFF
FFFFFFFF
FFFFFFFF
ENDCHAR
STARTCHAR 017A
ENCODING 378
SWIDTH 612 0
DWIDTH 38 0
BBX 31 44 4 0
BITMAP
00003FE0
00007FC0
0000FF80
0000FF00
0001FE00
0003FC00
0003F800
0007F000
00000000
00000000
00000000
00000000
FFFFFFFC
FFFFFFFC
FFFFFFFC
FFFFFFFC
FFFFFFFC
FFFFFFFC
FFFFFFF8
00007FF0
00007FE0
0000FFC0
0001FF80
0003FF00
0007FE00
000FFC00
001FF800
003FF000
007FE000
00FFC000
01FFC000
01FF8000
03FF0000
07FE0000
0FFC0000
1FF80000
3FF00000
7FFFFFFE
FFFFFFFE
FFFFFFFE
FFFFFFFE
FFFFFFFE
FFFFFFFE
FFFFFFFE
ENDCHAR
STARTCHAR 017B
ENCODING 379
SWIDTH 596 0
DWIDTH 37 0
BBX 32 56 3 0
BITMAP
0003E000
0007F000
000FF800
000FF800
000FF800
000FF800
0007F000
0003E000
00000000
00000000
00000000
00000000
FFFFFFFF
FFFFFFFF
FFFFFFFF
FFFFFFFF
FFFFFFFF
FFFFFFFF
FFFFFFFE
000007FC
00000FFC
00000FF8
00001FF0
00003FF0
00003FE0
00007FC0
0000FFC0
0000FF80
0001FF00
0003FF00
0003FE00
0007FC00
000FFC00
000FF800
001FF000
003FF000
003FE000
007FC000
00FFC000
00FF8000
01FF0000
03FF0000
03FE0000
07FC0000
0FFC0000
0FF80000
1FF00000
3FF00000
3FE00000
7FFFFFFF
FFFFFFFF
FFFFFFFF
FFFFFFFF
FFFFFFFF
FFFFFFFF
FFFFFFFF
ENDCHAR
STARTCHAR 017C
ENCODING 380
SWIDTH 612 0
DWIDTH 38 0
BBX 31 46 4 0
BITMAP
0003E000
0007F000
000FF800
000FF800
000FF800
000FF800
0007F000
0003E000
00000000
00000000
00000000
00000000
00000000
00000000
FFFFFFFC
FFFFFFFC
FFFFFFFC
FFFFFFFC
FFFFFFFC
FFFFFFFC
FFFFFFF8
00003FF0
00007FE0
0000FFC0
0001FF80
0003FF00
0007FE00
000FFC00
001FF800
003FF800
003FF000
007FE000
00FFC000
01FF8000
03FF0000
07FE0000
0FFC0000
1FF80000
3FF80000
7FFFFFFE
FFFFFFFE
FFFFFFFE
FFFFFFFE
FFFFFFFE
FFFFFFFE
FFFFFFFE
ENDCHAR
STARTCHAR 017D
ENCODING 381
SWIDTH 596 0
DWIDTH 37 0
BBX 32 56 3 0
BITMAP
07F80FF0
03FC1FE0
01FE3FC0
00FF7F80
007FFF00
003FFE00
000FFC00
0007F000
0003E000
00000000
00000000
00000000
FFFFFFFF
FFFFFFFF
FFFFFFFF
FFFFFFFF
FFFFFFFF
FFFFFFFF
FFFFFFFE
000007FC
00000FFC
00000FF8
00001FF0
00003FF0
00003FE0
00007FC0
0000FFC0
0000FF80
0001FF00
0003FF00
0003FE00
0007FC00
000FFC00
000FF800
001FF000
003FF000
003FE000
007FC000
00FFC000
00FF8000
01FF0000
03FF0000
03FE0000
07FC0000
0FFC0000
0FF80000
1FF00000
3FF00000
3FE00000
7FFFFFFF
FFFFFFFF
FFFFFFFF
FFFFFFFF
FFFFFFFF
FFFFFFFF
FFFFFFFF
ENDCHAR
STARTCHAR 017E
ENCODING 382
SWIDTH 612 0
DWIDTH 38 0
BBX 31 46 4 0
BITMAP
0FF00FF0
07F81FE0
03FE3FC0
00FFFF80
007FFE00
003FFC00
001FF800
000FF000
0007E000
00000000
00000000
00000000
00000000
00000000
FFFFFFFC
FFFFFFFC
FFFFFFFC
FFFFFFFC
FFFFFFFC
FFFFFFFC
FFFFFFF8
00007FF0
00007FE0
0000FFC0
0001FF80
0003FF00
0007FE00
000FFC00
001FF800
003FF000
007FE000
00FFC000
01FFC000
01FF8000
03FF0000
07FE0000
0FFC0000
1FF80000
3FF00000
7FFFFFFE
FFFFFFFE
FFFFFFFE
FFFFFFFE
FFFFFFFE
FFFFFFFE
FFFFFFFE
ENDCHAR
STARTCHAR 017F
ENCODING 383
SWIDTH 596 0
DWIDTH 37 0
BBX 20 47 12 0
BITMAP
003FE0
01FFF0
07FFE0
0FFFE0
1FFFE0
3FFFE0
3FFFE0
7FF000
7FE000
7FC000
FF8000
FF8000
FF8000
FF0000
FF0000
FF0000
FF0000
FF0000
FF0000
FF0000
FF0000
FF0000
FF0000
FF0000
FF0000
FF0000
FF0000
FF0000
FF0000
FF0000
FF0000
FF0000
FF0000
FF0000
FF0000
FF0000
FF0000
FF0000
FF0000
FF0000
FF0000
FF0000
FF0000
FF0000
FF0000
FF0000
FF0000
ENDCHAR
STARTCHAR 0192
ENCODING 402
SWIDTH 612 0
DWIDTH 38 0
BBX 31 61 4 -13
BITMAP
00000FF0
00007FFE
0001FFFC
0003FFFC
0007FFFC
000FFFFC
000FFFFC
001FF804
001FF000
003FE000
003FE000
003FE000
003FC000
003FC000
003FC000
003FC000
07FFFF80
07FFFF80
07FFFF80
07FFFF80
07FFFF80
07FFFF80
07FFFF80
003FC000
003FC000
003FC000
003FC000
003FC000
003FC000
003FC000
003FC000
003FC000
003FC000
003FC000
003FC000
003FC000
003FC000
003FC000
003FC000
003FC000
003FC000
003FC000
003FC000
003FC000
003FC000
003FC000
003FC000
003FC000
003FC000
003FC000
003FC000
007FC000
007FC000
C1FFC000
FFFF8000
FFFF8000
FFFF0000
FFFE0000
FFFC0000
7FF00000
06000000
ENDCHAR
STARTCHAR 01A0
ENCODING 416
SWIDTH 612 0
DWIDTH 38 0
BBX 35 46 3 -1
BITMAP
00000007E0
003FFC07E0
00FFFF07E0
01FFFF87E0
07FFFFEFC0
0FFFFFFFC0
0FFFFFFF80
1FFC3FFF80
3FF00FFF00
3FE007FC00
3FC003FC00
7FC003FE00
7F8001FE00
7F8001FE00
FF8001FF00
FF8001FF00
FF8001FF00
FF0001FF00
FF0000FF00
FF0000FF00
FF0000FF00
FF0000FF00
FF0000FF00
FF0000FF00
FF0000FF00
FF0000FF00
FF0000FF00
FF0000FF00
FF0001FF00
FF8001FF00
FF8001FF00
FF8001FE00
7F8001FE00
7F8003FE00
7FC003FE00
3FC003FC00
3FE007FC00
3FF00FF800
1FFC3FF800
0FFFFFF000
0FFFFFE000
07FFFFC000
03FFFF8000
00FFFF0000
003FFC0000
0001000000
ENDCHAR
STARTCHAR 01A1
ENCODING 417
SWIDTH 596 0
DWIDTH 37 0
BBX 33 37 3 -1
BITMAP
0000001F80
0000001F80
0000001F80
0001001F80
007FF81F80
01FFFE3F00
03FFFFBF00
07FFFFFE00
0FFFFFFE00
1FFFFFFC00
3FF83FF800
3FE00FF800
7FC007F800
7FC007FC00
7F8003FC00
FF8003FE00
FF8003FE00
FF8003FE00
FF0001FE00
FF0001FE00
FF0001FE00
FF0001FE00
FF8003FE00
FF8003FE00
FF8003FE00
7F8003FC00
7FC007FC00
7FC007FC00
3FE00FF800
3FF83FF800
1FFFFFF000
0FFFFFE000
07FFFFC000
03FFFF8000
01FFFF0000
003FFC0000
0001000000
ENDCHAR
STARTCHAR 01AF
ENCODING 431
SWIDTH 596 0
DWIDTH 37 0
BBX 40 47 4 -1
BITMAP
000000003F
000000003F
FF0007F83F
FF0007F83F
FF0007F83F
FF0007F87E
FF0007F87E
FF0007F8FE
FF0007FFFC
FF0007FFFC
FF0007FFF8
FF0007FFF0
FF0007FF80
FF0007F800
FF0007F800
FF0007F800
FF0007F800
FF0007F800
FF0007F800
FF0007F800
FF0007F800
FF0007F800
FF0007F800
FF0007F800
FF0007F800
FF0007F800
FF0007F800
FF0007F800
FF0007F800
FF0007F800
FF0007F800
FF0007F800
FF0007F800
FF8007F800
FF8007F800
FF800FF800
7F800FF800
7FC01FF800
7FE03FF000
3FF07FF000
3FFFFFE000
1FFFFFC000
0FFFFFC000
07FFFF0000
01FFFE0000
007FF80000
0002000000
ENDCHAR
STARTCHAR 01B0
ENCODING 432
SWIDTH 612 0
DWIDTH 38 0
BBX 38 37 4 -1
BITMAP
00000000FC
00000000FC
00000000FC
00000000FC
FF0007F8FC
FF0007F9F8
FF0007F9F8
FF0007FBF8
FF0007FFF0
FF0007FFF0
FF0007FFE0
FF0007FFC0
FF0007FF00
FF0007F800
FF0007F800
FF0007F800
FF0007F800
FF0007F800
FF0007F800
FF0007F800
FF0007F800
FF0007F800
FF0007F800
FF0007F800
FF0007F800
FF8007F800
FF800FF800
FF800FF800
7FC01FF800
7FF07FF800
7FFFFFF800
3FFFFFF800
1FFFF7F800
1FFFE7F800
07FFC7F800
03FF07F800
0010000000
ENDCHAR
STARTCHAR 01F0
ENCODING 496
SWIDTH 596 0
DWIDTH 37 0
BBX 27 59 7 -13
BITMAP
0FE00FE0
0FF01FE0
07F83F80
01FEFF00
00FFFE00
007FFC00
003FF800
000FE000
0007C000
00000000
00000000
00000000
00000000
00000000
3FFFE000
3FFFE000
3FFFE000
3FFFE000
3FFFE000
3FFFE000
3FFFE000
001FE000
001FE000
001FE000
001FE000
001FE000
001FE000
001FE000
001FE000
001FE000
001FE000
001FE000
001FE000
001FE000
001FE000
001FE000
001FE000
001FE000
001FE000
001FE000
001FE000
001FE000
001FE000
001FE000
001FE000
001FE000
001FE000
001FE000
001FE000
003FE000
007FE000
01FFE000
FFFFC000
FFFFC000
FFFF8000
FFFF0000
FFFC0000
FFF00000
1C000000
ENDCHAR
STARTCHAR 01FA
ENCODING 506
SWIDTH 596 0
DWIDTH 37 0
BBX 36 64 1 0
BITMAP
000007F800
00000FE000
00001FC000
00003F8000
00007F0000
0000FC0000
0000000000
0000F00000
0003FC0000
0007FE0000
000F0F0000
000E070000
000E070000
000E070000
000F0F0000
0007FE0000
0003FC0000
0001F80000
0000000000
0000000000
0003FC0000
0007FE0000
0007FE0000
0007FE0000
000FFF0000
000FFF0000
000FFF0000
001FFF8000
001FFF8000
001FFF8000
001FFF8000
003FFFC000
003FFFC000
003F9FC000
007F9FE000
007F9FE000
007F9FE000
00FF0FF000
00FF0FF000
00FF0FF000
01FE07F800
01FE07F800
01FE07F800
03FE07FC00
03FC03FC00
03FC03FC00
07FC03FE00
07F801FE00
07FFFFFE00
0FFFFFFE00
0FFFFFFF00
0FFFFFFF00
1FFFFFFF00
1FFFFFFF80
1FFFFFFF80
3FE0007F80
3FE0007FC0
3FC0007FC0
7FC0003FC0
7FC0003FE0
7FC0003FE0
FF80003FE0
FF80001FF0
FF80001FF0
ENDCHAR
STARTCHAR 01FB
ENCODING 507
SWIDTH 596 0
DWIDTH 37 0
BBX 30 56 3 -1
BITMAP
00003FC0
00007F00
0000FE00
0001FC00
0003F000
0007E000
000FC000
00000000
000F8000
001FC000
003FE000
0078F000
00707000
00707000
00707000
0078F000
003FE000
001FC000
000F8000
00000000
00000000
00000000
00020000
00FFF800
03FFFE00
0FFFFF80
1FFFFFC0
3FFFFFE0
3FFFFFE0
7FF0FFF0
7FC01FF0
7F800FF0
7F800FF0
00000FF0
00000FF0
003FFFF0
03FFFFF0
0FFFFFF0
1FFFFFF0
3FFFFFF0
7FF00FF0
7FC00FF0
FF800FF0
FF800FF0
FF000FF0
FF000FF0
FF801FF0
FF803FF0
FFE0FFF0
7FFFFFF0
7FFFFFF8
3FFFFFF8
1FFFEFF8
0FFFCFF8
03FF07FC
00300000
ENDCHAR
STARTCHAR 01FC
ENCODING 508
SWIDTH 596 0
DWIDTH 37 0
BBX 34 54 1 0
BITMAP
000001FE00
000003FC00
000007F800
00000FF000
00000FE000
00001FC000
00003F8000
00007F0000
0000000000
0000000000
0003FFFFC0
0003FFFFC0
0003FFFFC0
0007FFFFC0
0007FFFFC0
0007FFFFC0
000FFFFFC0
000FFFC000
000FFFC000
001FFFC000
001FFFC000
001FFFC000
003FBFC000
003FBFC000
003FBFC000
007FBFC000
007F3FC000
007F3FC000
00FF3FFF80
00FF3FFF80
00FE3FFF80
01FE3FFF80
01FE3FFF80
01FC3FFF80
03FC3FFF80
03FC3FC000
03FC3FC000
07FFFFC000
07FFFFC000
07FFFFC000
0FFFFFC000
0FFFFFC000
0FFFFFC000
0FFFFFC000
1FE03FC000
1FE03FC000
1FE03FC000
3FC03FFFC0
3FC03FFFC0
3FC03FFFC0
7FC03FFFC0
7F803FFFC0
7F803FFFC0
FF803FFFC0
ENDCHAR
STARTCHAR 01FD
ENCODING 509
SWIDTH 596 0
DWIDTH 37 0
BBX 35 46 1 -1
BITMAP
00000FF800
00001FF000
00001FE000
00003FC000
00007F8000
00007F0000
0000FE0000
0001FC0000
0000000000
0000000000
0000000000
0000000000
0000000000
03FF0FFC00
0FFFFFFE00
1FFFFFFF00
3FFFFFFF80
7FFFFFFFC0
7FFFFFFFC0
7FC7FE3FC0
7F83F81FE0
7F83F81FE0
0003F81FE0
0003F81FE0
0003F81FE0
007FFFFFE0
03FFFFFFE0
0FFFFFFFE0
1FFFFFFFE0
3FFFFFFFE0
7FFFFFFFE0
7FF3F80000
FFC3F80000
FFC3F80000
FF83F80000
FF83F80000
FF83FC0000
FF83FC0000
FFC3FF0780
7FFFFFFF80
7FFFFFFF80
7FFFFFFFC0
3FFF7FFFC0
1FFE3FFFC0
07FC0FFE00
004000C000
ENDCHAR
STARTCHAR 01FE
ENCODING 510
SWIDTH 596 0
DWIDTH 37 0
BBX 33 59 2 -3
BITMAP
00001FF000
00003FE000
00007FC000
00007F8000
0000FF0000
0001FE0000
0003F80000
0003F00000
0000000000
0000000000
0000001F00
0000003F00
001FFE3E00
007FFFFE00
00FFFFFC00
03FFFFFC00
07FFFFF800
07FFFFF800
0FFE1FFC00
1FF807FE00
1FF007FE00
1FE007FE00
3FE00FFF00
3FC00FFF00
3FC01FFF00
7FC01FFF80
7FC03FFF80
7FC07EFF80
7F807CFF80
7F80FC7F80
7F80F87F80
7F81F87F80
7F81F07F80
7F83F07F80
7F87E07F80
7F87E07F80
7F8FC07F80
7F8F807F80
7F9F807F80
7F9F00FF80
7FFF00FF80
7FFE00FF80
7FFE00FF00
3FFC00FF00
3FF801FF00
3FF801FF00
3FF001FE00
1FF003FE00
1FF807FC00
0FFE1FFC00
0FFFFFF800
0FFFFFF000
1FFFFFE000
1FFFFFC000
3F7FFF8000
3E1FFE0000
7E00800000
FC00000000
F800000000
ENDCHAR
STARTCHAR 01FF
ENCODING 511
SWIDTH 596 0
DWIDTH 37 0
BBX 31 50 3 -4
BITMAP
0000FF80
0000FF00
0001FE00
0003FC00
0007F800
0007F000
000FE000
001FC000
00000000
000001F0
000001F0
000001E0
000003E0
000003C0
007FFFC0
01FFFFC0
03FFFF80
07FFFFC0
0FFFFFE0
1FFFFFF0
3FF83FF8
3FE03FF8
7FC07FFC
7FC07FFC
7F80FBFC
FF80FBFE
FF81F3FE
FF81E3FE
FF03E1FE
FF03C1FE
FF07C1FE
FF0781FE
FF8F83FE
FF8F03FE
FF9F03FE
7F9E03FC
7FFE07FC
7FFC07FC
3FFC0FF8
3FF83FF8
1FFFFFF0
0FFFFFE0
07FFFFC0
03FFFF80
03FFFF00
03FFFC00
07C30000
07800000
0F800000
0F000000
ENDCHAR
STARTCHAR 0218
ENCODING 536
SWIDTH 596 0
DWIDTH 37 0
BBX 32 59 3 -14
BITMAP
003FFE00
00FFFFC0
03FFFFE0
07FFFFF0
0FFFFFF8
1FFFFFFC
1FFC1FFE
3FF007FE
3FE001FF
3FC001FF
3FC000FF
3FC000FF
3FC000FF
3FC00000
3FE00000
3FF00000
1FFC0000
1FFF0000
0FFFE000
07FFFC00
03FFFF00
01FFFFC0
007FFFE0
003FFFF8
0007FFF8
0000FFFC
00001FFE
000007FE
000003FF
000001FF
FF0000FF
FF0000FF
FF8000FF
FF8000FF
7F8000FF
7FC001FF
7FE003FF
3FFC0FFE
1FFFFFFE
0FFFFFFC
07FFFFF8
03FFFFF0
00FFFFC0
003FFF00
0000C000
00000000
0003F000
0003F000
0003F000
0003F000
0003F000
0003F000
0003E000
0007E000
0007E000
0007C000
000FC000
00078000
00030000
ENDCHAR
STARTCHAR 0219
ENCODING 537
SWIDTH 612 0
DWIDTH 38 0
BBX 30 47 4 -15
BITMAP
00010000
007FFC00
03FFFF80
07FFFFC0
0FFFFFE0
1FFFFFF0
3FFFFFF8
7FE00FF8
7FC007FC
7F8007FC
7F8003FC
7FC00000
7FE00000
3FFC0000
3FFFE000
1FFFFE00
0FFFFF80
03FFFFE0
00FFFFF0
001FFFF8
0000FFF8
00000FFC
000007FC
FF0003FC
FF8003FC
FFC007FC
7FE00FFC
7FFFFFF8
3FFFFFF0
1FFFFFF0
0FFFFFC0
03FFFF80
00FFFC00
00030000
00000000
001F8000
001F8000
001F8000
001F8000
001F8000
001F8000
001F0000
003F0000
003E0000
003E0000
003C0000
00180000
ENDCHAR
STARTCHAR 021A
ENCODING 538
SWIDTH 612 0
DWIDTH 38 0
BBX 36 58 1 -14
BITMAP
FFFFFFFFF0
FFFFFFFFF0
FFFFFFFFF0
FFFFFFFFF0
FFFFFFFFF0
FFFFFFFFF0
FFFFFFFFF0
0003FC0000
0003FC0000
0003FC0000
0003FC0000
0003FC0000
0003FC0000
0003FC0000
0003FC0000
0003FC0000
0003FC0000
0003FC0000
0003FC0000
0003FC0000
0003FC0000
0003FC0000
0003FC0000
0003FC0000
0003FC0000
0003FC0000
0003FC0000
0003FC0000
0003FC0000
0003FC0000
0003FC0000
0003FC0000
0003FC0000
0003FC0000
0003FC0000
0003FC0000
0003FC0000
0003FC0000
0003FC0000
0003FC0000
0003FC0000
0003FC0000
0003FC0000
0003FC0000
0000000000
0001F80000
0001F80000
0001F80000
0001F80000
0001F80000
0001F80000
0001F00000
0003F00000
0003F00000
0007E00000
0007E00000
0003C00000
0001800000
ENDCHAR
STARTCHAR 021B
ENCODING 539
SWIDTH 596 0
DWIDTH 37 0
BBX 29 55 4 -15
BITMAP
00FF0000
00FF0000
00FF0000
00FF0000
00FF0000
00FF0000
00FF0000
00FF0000
00FF0000
FFFFFFF0
FFFFFFF0
FFFFFFF0
FFFFFFF0
FFFFFFF0
FFFFFFF0
FFFFFFF0
00FF0000
00FF0000
00FF0000
00FF0000
00FF0000
00FF0000
00FF0000
00FF0000
00FF0000
00FF0000
00FF0000
00FF0000
00FF0000
00FF0000
00FF0000
00FF0000
00FF8000
00FF8000
00FFE078
007FFFF8
007FFFF8
003FFFF8
001FFFF8
000FFFF8
0003FFE0
00003000
00000000
0003F000
0003F000
0003F000
0003F000
0003F000
0003F000
0007E000
0007E000
0007C000
000FC000
000F8000
00030000
ENDCHAR
STARTCHAR 0237
ENCODING 567
SWIDTH 596 0
DWIDTH 37 0
BBX 19 45 7 -13
BITMAP
3FFFE0
3FFFE0
3FFFE0
3FFFE0
3FFFE0
3FFFE0
3FFFE0
001FE0
001FE0
001FE0
001FE0
001FE0
001FE0
001FE0
001FE0
001FE0
001FE0
001FE0
001FE0
001FE0
001FE0
001FE0
001FE0
001FE0
001FE0
001FE0
001FE0
001FE0
001FE0
001FE0
001FE0
001FE0
001FE0
001FE0
001FE0
003FE0
007FE0
01FFE0
FFFFC0
FFFFC0
FFFF80
FFFF00
FFFC00
FFF000
1C0000
ENDCHAR
STARTCHAR 0259
ENCODING 601
SWIDTH 612 0
DWIDTH 38 0
BBX 30 33 5 0
BITMAP
03FFF000
0FFFFC00
3FFFFF00
7FFFFF80
7FFFFFC0
3FFFFFE0
3F81FFF0
18003FF0
00001FF8
00000FF8
000007F8
000007FC
000007FC
FFFFFFFC
FFFFFFFC
FFFFFFFC
FFFFFFFC
FFFFFFFC
FFFFFFFC
FF0007FC
FF0007FC
FF8007F8
7F800FF8
7F801FF8
7FC03FF0
3FF07FF0
3FFFFFE0
1FFFFFC0
0FFFFF80
07FFFF00
03FFFE00
00FFF000
00020000
ENDCHAR
STARTCHAR 02BC
ENCODING 700
SWIDTH 612 0
DWIDTH 38 0
BBX 10 17 14 30
BITMAP
1FC0
1FC0
1FC0
1FC0
1FC0
1FC0
1FC0
1FC0
1FC0
3F80
3F80
3F00
7F00
7E00
FC00
3C00
0800
ENDCHAR
STARTCHAR 02C6
ENCODING 710
SWIDTH 612 0
DWIDTH 38 0
BBX 23 8 4 37
BITMAP
00FE00
01FF00
03FF80
07FFC0
1FEFF0
3FC7F8
7F83FC
FE00FE
ENDCHAR
STARTCHAR 02C7
ENCODING 711
SWIDTH 596 0
DWIDTH 37 0
BBX 23 8 8 37
BITMAP
FF01FE
7F83FC
3FC7F8
0FEFF0
07FFE0
03FF80
01FF00
00FE00
ENDCHAR
STARTCHAR 02C9
ENCODING 713
SWIDTH 596 0
DWIDTH 37 0
BBX 22 5 8 39
BITMAP
FFFFFC
FFFFFC
FFFFFC
FFFFFC
FFFFFC
ENDCHAR
STARTCHAR 02D8
ENCODING 728
SWIDTH 612 0
DWIDTH 38 0
BBX 21 9 9 34
BITMAP
FC01F8
FC01F8
FE03F8
7F07F0
7FFFF0
3FFFE0
1FFFC0
0FFF80
01FC00
ENDCHAR
STARTCHAR 02D9
ENCODING 729
SWIDTH 596 0
DWIDTH 37 0
BBX 9 8 14 37
BITMAP
3E00
7F00
FF80
FF80
FF80
FF80
7F00
3E00
ENDCHAR
STARTCHAR 02DA
ENCODING 730
SWIDTH 596 0
DWIDTH 37 0
BBX 13 12 12 31
BITMAP
0F80
3FE0
7FF0
7870
E038
E038
E038
E038
F078
7FF0
3FE0
0F80
ENDCHAR
STARTCHAR 02DB
ENCODING 731
SWIDTH 596 0
DWIDTH 37 0
BBX 12 14 12 -13
BITMAP
0700
1FC0
3F80
3F00
7E00
FC00
FC00
FC00
FE20
FFE0
FFE0
7FF0
3FF0
0FC0
ENDCHAR
STARTCHAR 02DC
ENCODING 732
SWIDTH 596 0
DWIDTH 37 0
BBX 22 8 4 38
BITMAP
0F8038
1FE03C
3FF87C
7FFFF8
7FFFF8
F87FF0
F01FE0
7007C0
ENDCHAR
STARTCHAR 02DD
ENCODING 733
SWIDTH 596 0
DWIDTH 37 0
BBX 24 8 7 38
BITMAP
07F8FF
0FF1FE
0FE3FC
1FC7F8
3F8FF0
7F0FE0
FE1F80
FC3F00
ENDCHAR
STARTCHAR 02F3
ENCODING 755
SWIDTH 596 0
DWIDTH 37 0
BBX 10 9 13 -11
BITMAP
1E00
7F80
7F80
F3C0
E1C0
F3C0
FFC0
7F80
1E00
ENDCHAR
STARTCHAR 0300
ENCODING 768
SWIDTH 596 0
DWIDTH 37 0
BBX 11 11 -26 36
BITMAP
FC00
FE00
7E00
7F00
3F00
1F80
1F80
0FC0
07C0
07E0
03E0
ENDCHAR
STARTCHAR 0301
ENCODING 769
SWIDTH 596 0
DWIDTH 37 0
BBX 11 11 -20 36
BITMAP
0FE0
0FE0
0FC0
1F80
1F80
3F00
3F00
3E00
7E00
7C00
F800
ENDCHAR
STARTCHAR 0303
ENCODING 771
SWIDTH 596 0
DWIDTH 37 0
BBX 22 8 -28 38
BITMAP
0F8038
1FE03C
3FF87C
7FFFF8
7FFFF8
F87FF0
F01FE0
7007C0
ENDCHAR
STARTCHAR 0309
ENCODING 777
SWIDTH 612 0
DWIDTH 38 0
BBX 12 12 -22 38
BITMAP
FC00
FF80
FFC0
FFE0
0FF0
07F0
07F0
0FF0
7FE0
7FC0
7E00
7E00
ENDCHAR
STARTCHAR 030F
ENCODING 783
SWIDTH 596 0
DWIDTH 37 0
BBX 25 8 -31 38
BITMAP
FF8FF000
7FC7F800
3FE3FC00
0FE1FC00
07F0FE00
03F8FF00
01FC7F80
00FE3F80
ENDCHAR
STARTCHAR 0323
ENCODING 803
SWIDTH 596 0
DWIDTH 37 0
BBX 10 8 -23 -11
BITMAP
3F00
7F80
FFC0
FFC0
FFC0
FFC0
7F80
3F00
ENDCHAR
STARTCHAR 0384
ENCODING 900
SWIDTH 596 0
DWIDTH 37 0
BBX 10 12 18 38
BITMAP
3FC0
3FC0
3F80
7F00
7F00
7E00
7E00
FC00
FC00
F800
F800
F000
ENDCHAR
STARTCHAR 0385
ENCODING 901
SWIDTH 596 0
DWIDTH 37 0
BBX 25 17 8 37
BITMAP
000FF000
001FE000
001FE000
001FC000
001FC000
001F8000
001F8000
001F0000
003F0000
3C3E1E00
7F007F00
FF007F80
FF007F80
FF007F80
FF007F80
7F007F00
3C001E00
ENDCHAR
STARTCHAR 0386
ENCODING 902
SWIDTH 596 0
DWIDTH 37 0
BBX 36 50 1 0
BITMAP
3FE0000000
3FC0000000
3FC0000000
3F80000000
3F80000000
7F00000000
7E03FC0000
7E03FE0000
7C07FE0000
7C07FE0000
F807FE0000
F80FFF0000
000FFF0000
000FFF0000
001FFF8000
001FFF8000
001FFF8000
001FFFC000
003FFFC000
003FDFC000
003F9FE000
007F9FE000
007F9FE000
007F0FF000
00FF0FF000
00FF0FF000
00FF07F800
01FE07F800
01FE07F800
01FE07FC00
03FE03FC00
03FC03FC00
03FC03FE00
07FC03FE00
07FFFFFE00
07FFFFFF00
0FFFFFFF00
0FFFFFFF00
0FFFFFFF00
1FFFFFFF80
1FFFFFFF80
1FE0007F80
3FE0007FC0
3FE0007FC0
3FC0003FC0
7FC0003FE0
7FC0003FE0
7FC0001FE0
FF80001FF0
FF80001FF0
ENDCHAR
STARTCHAR 0387
ENCODING 903
SWIDTH 612 0
DWIDTH 38 0
BBX 10 9 17 17
BITMAP
3E00
7F80
FFC0
FFC0
FFC0
FFC0
FFC0
7F80
1F00
ENDCHAR
STARTCHAR 0388
ENCODING 904
SWIDTH 596 0
DWIDTH 37 0
BBX 40 50 -3 0
BITMAP
3FE0000000
3FC0000000
3F80000000
3F80000000
7F00000000
7F00000000
7E3FFFFFFF
7E3FFFFFFF
7C3FFFFFFF
FC3FFFFFFF
F83FFFFFFF
F83FFFFFFF
003FFFFFFF
003FC00000
003FC00000
003FC00000
003FC00000
003FC00000
003FC00000
003FC00000
003FC00000
003FC00000
003FC00000
003FC00000
003FFFFFF8
003FFFFFF8
003FFFFFF8
003FFFFFF8
003FFFFFF8
003FFFFFF8
003FFFFFF8
003FC00000
003FC00000
003FC00000
003FC00000
003FC00000
003FC00000
003FC00000
003FC00000
003FC00000
003FC00000
003FC00000
003FC00000
003FFFFFFF
003FFFFFFF
003FFFFFFF
003FFFFFFF
003FFFFFFF
003FFFFFFF
003FFFFFFF
ENDCHAR
STARTCHAR 0389
ENCODING 905
SWIDTH 612 0
DWIDTH 38 0
BBX 38 50 -2 0
BITMAP
3FC0000000
3FC0000000
3F80000000
3F80000000
7F00000000
7F00000000
7E7F8003FC
7E7F8003FC
7C7F8003FC
FC7F8003FC
F87F8003FC
F07F8003FC
007F8003FC
007F8003FC
007F8003FC
007F8003FC
007F8003FC
007F8003FC
007F8003FC
007F8003FC
007F8003FC
007F8003FC
007F8003FC
007F8003FC
007FFFFFFC
007FFFFFFC
007FFFFFFC
007FFFFFFC
007FFFFFFC
007FFFFFFC
007FFFFFFC
007F8003FC
007F8003FC
007F8003FC
007F8003FC
007F8003FC
007F8003FC
007F8003FC
007F8003FC
007F8003FC
007F8003FC
007F8003FC
007F8003FC
007F8003FC
007F8003FC
007F8003FC
007F8003FC
007F8003FC
007F8003FC
007F8003FC
ENDCHAR
STARTCHAR 038A
ENCODING 906
SWIDTH 612 0
DWIDTH 38 0
BBX 35 50 -2 0
BITMAP
3FC0000000
3FC0000000
3F80000000
3F80000000
7F00000000
7F00000000
7E7FFFFFE0
7E7FFFFFE0
7C7FFFFFE0
F87FFFFFE0
F87FFFFFE0
F07FFFFFE0
007FFFFFE0
00003FC000
00003FC000
00003FC000
00003FC000
00003FC000
00003FC000
00003FC000
00003FC000
00003FC000
00003FC000
00003FC000
00003FC000
00003FC000
00003FC000
00003FC000
00003FC000
00003FC000
00003FC000
00003FC000
00003FC000
00003FC000
00003FC000
00003FC000
00003FC000
00003FC000
00003FC000
00003FC000
00003FC000
00003FC000
00003FC000
007FFFFFE0
007FFFFFE0
007FFFFFE0
007FFFFFE0
007FFFFFE0
007FFFFFE0
007FFFFFE0
ENDCHAR
STARTCHAR 038C
ENCODING 908
SWIDTH 612 0
DWIDTH 38 0
BBX 38 51 -3 -1
BITMAP
3FC0000000
3FC0000000
3F80000000
3F80000000
7F00000000
7F00000000
7E00FFF000
7E03FFFC00
7C07FFFF00
F81FFFFF80
F81FFFFFC0
F03FFFFFC0
007FF0FFE0
00FFC03FF0
00FF801FF0
00FF000FF8
01FF000FF8
01FE0007F8
01FE0007FC
03FE0007FC
03FE0003FC
03FE0003FC
03FC0003FC
03FC0003FC
03FC0003FC
03FC0003FC
03FC0003FC
03FC0003FC
03FC0003FC
03FC0003FC
03FC0003FC
03FC0003FC
03FC0003FC
03FC0003FC
03FE0003FC
03FE0003FC
03FE0007FC
01FE0007FC
01FE0007F8
01FF000FF8
00FF000FF8
00FF801FF0
007FC03FF0
007FF0FFE0
003FFFFFC0
001FFFFFC0
001FFFFF80
0007FFFF00
0003FFFC00
0000FFF000
0000060000
ENDCHAR
STARTCHAR 038E
ENCODING 910
SWIDTH 596 0
DWIDTH 37 0
BBX 44 50 -4 0
BITMAP
3FE000000000
3FC000000000
3FC000000000
3F8000000000
3F8000000000
7F0000000000
7E7FC0001FF0
7E7FC0003FF0
7C3FE0003FE0
7C3FE0007FE0
F83FF0007FC0
F81FF0007FC0
001FF000FF80
000FF800FF80
000FF801FF00
0007FC01FF00
0007FC03FE00
0003FE03FE00
0003FE03FC00
0001FE07FC00
0001FF07F800
0000FF0FF800
0000FF8FF000
00007F9FF000
00007FDFE000
00003FDFE000
00003FFFC000
00001FFFC000
00001FFF8000
00000FFF8000
00000FFF8000
000007FF0000
000007FF0000
000007FE0000
000003FE0000
000003FC0000
000003FC0000
000003FC0000
000003FC0000
000003FC0000
000003FC0000
000003FC0000
000003FC0000
000003FC0000
000003FC0000
000003FC0000
000003FC0000
000003FC0000
000003FC0000
000003FC0000
ENDCHAR
STARTCHAR 038F
ENCODING 911
SWIDTH 596 0
DWIDTH 37 0
BBX 37 50 -2 0
BITMAP
3FC0000000
3FC0000000
7F80000000
7F00000000
7F00000000
7E00000000
7E01FFE000
FC07FFF800
FC0FFFFC00
F81FFFFE00
F83FFFFF00
F07FFFFF80
00FFE1FFC0
00FF807FC0
01FF003FE0
01FF003FE0
03FE001FF0
03FE001FF0
03FE001FF0
07FC000FF8
07FC000FF8
07FC000FF8
07FC000FF8
07FC000FF8
07FC000FF8
07FC000FF8
07FC000FF8
07FC000FF8
07FC000FF8
07FC000FF8
07FC000FF8
03FC000FF0
03FC000FF0
03FE001FF0
01FE001FE0
01FE001FE0
00FE001FC0
00FF003FC0
007F003F80
003F807F80
003FC07F00
001FE0FE00
000FF1FC00
03FFF1FFF8
03FFF1FFF8
03FFF1FFF8
03FFF1FFF8
03FFF1FFF8
03FFF1FFF8
03FFF1FFF8
ENDCHAR
STARTCHAR 0390
ENCODING 912
SWIDTH 596 0
DWIDTH 37 0
BBX 27 53 5 -1
BITMAP
0007F800
000FF000
000FF000
000FE000
000FE000
000FC000
000FC000
000F8000
000F8000
001F0000
1E000F00
3F803F80
7F803FC0
7F803FC0
7F803FC0
7F803FC0
3F803F80
1E000F00
00000000
00000000
FFFF8000
FFFF8000
FFFF8000
FFFF8000
FFFF8000
FFFF8000
FFFF8000
007F8000
007F8000
007F8000
007F8000
007F8000
007F8000
007F8000
007F8000
007F8000
007F8000
007F8000
007F8000
007F8000
007F8000
007F8000
007F8000
007F8000
007F8000
007FC040
007FFFC0
003FFFC0
003FFFE0
001FFFE0
000FFFE0
0007FFC0
0001FF00
ENDCHAR
STARTCHAR 0391
ENCODING 913
SWIDTH 596 0
DWIDTH 37 0
BBX 36 44 1 0
BITMAP
0003FC0000
0003FE0000
0007FE0000
0007FE0000
0007FE0000
000FFF0000
000FFF0000
000FFF0000
001FFF8000
001FFF8000
001FFF8000
001FFFC000
003FFFC000
003FDFC000
003F9FE000
007F9FE000
007F9FE000
007F0FF000
00FF0FF000
00FF0FF000
00FF07F800
01FE07F800
01FE07F800
01FE07FC00
03FC03FC00
03FC03FC00
03FC03FE00
07FC03FE00
07FFFFFE00
07FFFFFF00
0FFFFFFF00
0FFFFFFF00
0FFFFFFF00
1FFFFFFF80
1FFFFFFF80
1FE0007F80
3FE0007FC0
3FE0007FC0
3FC0003FC0
7FC0003FE0
7FC0003FE0
7FC0001FE0
FF80001FF0
FF80001FF0
ENDCHAR
STARTCHAR 0392
ENCODING 914
SWIDTH 612 0
DWIDTH 38 0
BBX 32 44 4 0
BITMAP
FFFFF000
FFFFFE00
FFFFFF80
FFFFFFE0
FFFFFFF0
FFFFFFF8
FFFFFFF8
FF001FFC
FF0007FC
FF0007FC
FF0003FC
FF0003FC
FF0003FC
FF0003FC
FF0003FC
FF0007FC
FF000FFC
FF001FF8
FFFFFFF0
FFFFFFE0
FFFFFFC0
FFFFFF80
FFFFFFE0
FFFFFFF8
FFFFFFFC
FF000FFC
FF0003FE
FF0001FE
FF0001FF
FF0001FF
FF0000FF
FF0000FF
FF0001FF
FF0001FF
FF0001FF
FF0003FE
FF000FFE
FFFFFFFE
FFFFFFFC
FFFFFFF8
FFFFFFF0
FFFFFFE0
FFFFFF80
FFFFFC00
ENDCHAR
STARTCHAR 0393
ENCODING 915
SWIDTH 596 0
DWIDTH 37 0
BBX 29 44 4 0
BITMAP
FFFFFFF8
FFFFFFF8
FFFFFFF8
FFFFFFF8
FFFFFFF8
FFFFFFF8
FFFFFFF8
FF000000
FF000000
FF000000
FF000000
FF000000
FF000000
FF000000
FF000000
FF000000
FF000000
FF000000
FF000000
FF000000
FF000000
FF000000
FF000000
FF000000
FF000000
FF000000
FF000000
FF000000
FF000000
FF000000
FF000000
FF000000
FF000000
FF000000
FF000000
FF000000
FF000000
FF000000
FF000000
FF000000
FF000000
FF000000
FF000000
FF000000
ENDCHAR
STARTCHAR 0394
ENCODING 916
SWIDTH 596 0
DWIDTH 37 0
BBX 38 44 1 0
BITMAP
0001FF0000
0003FF0000
0003FF0000
0003FF8000
0007FF8000
0007FF8000
0007FFC000
000FFFC000
000FFFC000
000FFFE000
001FFFE000
001FFFE000
001FFFF000
003FCFF000
003FCFF000
003FCFF000
007F87F800
007F87F800
007F87F800
00FF87FC00
00FF03FC00
00FF03FC00
01FF03FE00
01FE01FE00
01FE01FE00
03FE01FF00
03FC00FF00
03FC00FF00
07FC00FF80
07F800FF80
07F8007F80
0FF8007FC0
0FF8007FC0
0FF0003FC0
1FF0003FE0
1FF0003FE0
1FE0001FE0
3FFFFFFFF0
3FFFFFFFF0
3FFFFFFFF0
7FFFFFFFF8
7FFFFFFFF8
7FFFFFFFF8
FFFFFFFFFC
ENDCHAR
STARTCHAR 0395
ENCODING 917
SWIDTH 596 0
DWIDTH 37 0
BBX 30 44 4 0
BITMAP
FFFFFFFC
FFFFFFFC
FFFFFFFC
FFFFFFFC
FFFFFFFC
FFFFFFFC
FFFFFFFC
FF000000
FF000000
FF000000
FF000000
FF000000
FF000000
FF000000
FF000000
FF000000
FF000000
FF000000
FFFFFFE0
FFFFFFE0
FFFFFFE0
FFFFFFE0
FFFFFFE0
FFFFFFE0
FFFFFFE0
FF000000
FF000000
FF000000
FF000000
FF000000
FF000000
FF000000
FF000000
FF000000
FF000000
FF000000
FF000000
FFFFFFFC
FFFFFFFC
FFFFFFFC
FFFFFFFC
FFFFFFFC
FFFFFFFC
FFFFFFFC
ENDCHAR
STARTCHAR 0396
ENCODING 918
SWIDTH 596 0
DWIDTH 37 0
BBX 32 44 3 0
BITMAP
FFFFFFFF
FFFFFFFF
FFFFFFFF
FFFFFFFF
FFFFFFFF
FFFFFFFF
FFFFFFFE
000007FC
00000FFC
00000FF8
00001FF0
00003FF0
00003FE0
00007FC0
0000FFC0
0000FF80
0001FF00
0003FF00
0003FE00
0007FC00
000FFC00
000FF800
001FF000
003FF000
003FE000
007FC000
00FFC000
00FF8000
01FF0000
03FF0000
03FE0000
07FC0000
0FFC0000
0FF80000
1FF00000
3FF00000
3FE00000
7FFFFFFF
FFFFFFFF
FFFFFFFF
FFFFFFFF
FFFFFFFF
FFFFFFFF
FFFFFFFF
ENDCHAR
STARTCHAR 0397
ENCODING 919
SWIDTH 612 0
DWIDTH 38 0
BBX 29 44 4 0
BITMAP
FF0007F8
FF0007F8
FF0007F8
FF0007F8
FF0007F8
FF0007F8
FF0007F8
FF0007F8
FF0007F8
FF0007F8
FF0007F8
FF0007F8
FF0007F8
FF0007F8
FF0007F8
FF0007F8
FF0007F8
FF0007F8
FFFFFFF8
FFFFFFF8
FFFFFFF8
FFFFFFF8
FFFFFFF8
FFFFFFF8
FFFFFFF8
FF0007F8
FF0007F8
FF0007F8
FF0007F8
FF0007F8
FF0007F8
FF0007F8
FF0007F8
FF0007F8
FF0007F8
FF0007F8
FF0007F8
FF0007F8
FF0007F8
FF0007F8
FF0007F8
FF0007F8
FF0007F8
FF0007F8
ENDCHAR
STARTCHAR 0398
ENCODING 920
SWIDTH 596 0
DWIDTH 37 0
BBX 32 45 3 0
BITMAP
003FFC00
00FFFF00
01FFFF80
07FFFFC0
0FFFFFE0
0FFFFFF0
1FFC3FF8
3FF00FF8
3FE007FC
3FC003FC
7FC003FE
7F8001FE
7F8001FE
FF8001FE
FF8001FF
FF8001FF
FF0001FF
FF0000FF
FF0000FF
FF3FFCFF
FF3FFCFF
FF3FFCFF
FF3FFCFF
FF3FFCFF
FF3FFCFF
FF3FFCFF
FF0000FF
FF0001FF
FF8001FF
FF8001FF
FF8001FF
7F8001FE
7F8003FE
7FC003FE
3FC003FC
3FE007FC
3FF00FF8
1FFC3FF8
0FFFFFF0
0FFFFFE0
07FFFFC0
01FFFF80
00FFFF00
003FFC00
00010000
ENDCHAR
STARTCHAR 0399
ENCODING 921
SWIDTH 596 0
DWIDTH 37 0
BBX 25 44 6 0
BITMAP
FFFFFF80
FFFFFF80
FFFFFF80
FFFFFF80
FFFFFF80
FFFFFF80
FFFFFF80
007F8000
007F8000
007F8000
007F8000
007F8000
007F8000
007F8000
007F8000
007F8000
007F8000
007F8000
007F8000
007F8000
007F8000
007F8000
007F8000
007F8000
007F8000
007F8000
007F8000
007F8000
007F8000
007F8000
007F8000
007F8000
007F8000
007F8000
007F8000
007F8000
007F8000
FFFFFF80
FFFFFF80
FFFFFF80
FFFFFF80
FFFFFF80
FFFFFF80
FFFFFF80
ENDCHAR
STARTCHAR 039A
ENCODING 922
SWIDTH 596 0
DWIDTH 37 0
BBX 34 44 4 0
BITMAP
FF0001FF80
FF0003FF00
FF0007FF00
FF0007FE00
FF000FFC00
FF001FF800
FF003FF800
FF003FF000
FF007FE000
FF00FFC000
FF00FFC000
FF01FF8000
FF03FF0000
FF07FE0000
FF07FE0000
FF0FFC0000
FF1FF80000
FF3FF00000
FF3FE00000
FF7FE00000
FFFFE00000
FFFFF00000
FFFFF80000
FFFFF80000
FFFFFC0000
FFFFFE0000
FFFFFE0000
FFF3FF0000
FFE1FF0000
FFC1FF8000
FF80FFC000
FF00FFC000
FF007FE000
FF003FF000
FF003FF000
FF001FF800
FF001FF800
FF000FFC00
FF0007FE00
FF0007FE00
FF0003FF00
FF0003FF80
FF0001FF80
FF0000FFC0
ENDCHAR
STARTCHAR 039B
ENCODING 923
SWIDTH 596 0
DWIDTH 37 0
BBX 35 44 1 0
BITMAP
0007FC0000
0007FC0000
000FFE0000
000FFE0000
000FFE0000
000FFF0000
001FFF0000
001FFF0000
001FFF8000
003FFF8000
003FFF8000
003FFF8000
007FBFC000
007FBFC000
007FBFC000
00FF1FE000
00FF1FE000
00FF1FE000
00FF1FF000
01FE0FF000
01FE0FF000
01FE0FF800
03FE07F800
03FC07F800
03FC07F800
07FC07FC00
07F803FC00
07F803FC00
0FF803FE00
0FF803FE00
0FF001FE00
0FF001FF00
1FF001FF00
1FE000FF00
1FE000FF80
3FE000FF80
3FE000FF80
3FC0007F80
7FC0007FC0
7FC0007FC0
7FC0003FC0
FF80003FE0
FF80003FE0
FF80003FE0
ENDCHAR
STARTCHAR 039C
ENCODING 924
SWIDTH 596 0
DWIDTH 37 0
BBX 30 44 4 0
BITMAP
FFE01FFC
FFE01FFC
FFE01FFC
FFF03FFC
FFF03FFC
FFF03FFC
FFF07FFC
FFF87FFC
FFF87FFC
FFF87FFC
FFF8FFFC
FFFCFFFC
FFFCFBFC
FF7CFBFC
FF7DFBFC
FF7FFBFC
FF7FF3FC
FF3FF3FC
FF3FF3FC
FF3FE3FC
FF3FE3FC
FF1FE3FC
FF1FE3FC
FF1FC3FC
FF1FC3FC
FF0FC3FC
FF0FC3FC
FF0F83FC
FF0F83FC
FF0783FC
FF0003FC
FF0003FC
FF0003FC
FF0003FC
FF0003FC
FF0003FC
FF0003FC
FF0003FC
FF0003FC
FF0003FC
FF0003FC
FF0003FC
FF0003FC
FF0003FC
ENDCHAR
STARTCHAR 039D
ENCODING 925
SWIDTH 612 0
DWIDTH 38 0
BBX 29 44 4 0
BITMAP
FF8007F8
FF8007F8
FFC007F8
FFC007F8
FFC007F8
FFE007F8
FFE007F8
FFF007F8
FFF007F8
FFF807F8
FFF807F8
FFFC07F8
FFFC07F8
FFFC07F8
FFFE07F8
FFFE07F8
FF7F07F8
FF7F07F8
FF3F87F8
FF3F87F8
FF1FC7F8
FF1FC7F8
FF1FC7F8
FF0FE7F8
FF0FE7F8
FF07F7F8
FF07F7F8
FF03FFF8
FF03FFF8
FF01FFF8
FF01FFF8
FF01FFF8
FF00FFF8
FF00FFF8
FF007FF8
FF007FF8
FF003FF8
FF003FF8
FF001FF8
FF001FF8
FF000FF8
FF000FF8
FF000FF8
FF0007F8
ENDCHAR
STARTCHAR 039E
ENCODING 926
SWIDTH 612 0
DWIDTH 38 0
BBX 30 44 4 0
BITMAP
FFFFFFF0
FFFFFFF0
FFFFFFF0
FFFFFFF0
FFFFFFF0
FFFFFFF0
FFFFFFF0
00000000
00000000
00000000
00000000
00000000
00000000
00000000
00000000
00000000
00000000
00000000
1FFFFFC0
1FFFFFC0
1FFFFFC0
1FFFFFC0
1FFFFFC0
1FFFFFC0
1FFFFFC0
00000000
00000000
00000000
00000000
00000000
00000000
00000000
00000000
00000000
00000000
00000000
00000000
FFFFFFFC
FFFFFFFC
FFFFFFFC
FFFFFFFC
FFFFFFFC
FFFFFFFC
FFFFFFFC
ENDCHAR
STARTCHAR 039F
ENCODING 927
SWIDTH 580 0
DWIDTH 36 0
BBX 32 45 2 0
BITMAP
003FFC00
00FFFF00
01FFFF80
07FFFFC0
0FFFFFE0
0FFFFFF0
1FFC3FF8
3FF00FF8
3FE007FC
3FC003FC
7FC003FE
7F8001FE
7F8001FE
FF8001FE
FF8001FF
FF8001FF
FF0001FF
FF0000FF
FF0000FF
FF0000FF
FF0000FF
FF0000FF
FF0000FF
FF0000FF
FF0000FF
FF0000FF
FF0000FF
FF0001FF
FF8001FF
FF8001FF
FF8001FF
7F8001FE
7F8003FE
7FC003FE
3FC003FC
3FE007FC
3FF00FF8
1FFC3FF8
0FFFFFF0
0FFFFFE0
07FFFFC0
03FFFF80
00FFFF00
003FFC00
00010000
ENDCHAR
STARTCHAR 03A0
ENCODING 928
SWIDTH 596 0
DWIDTH 37 0
BBX 29 44 4 0
BITMAP
FFFFFFF8
FFFFFFF8
FFFFFFF8
FFFFFFF8
FFFFFFF8
FFFFFFF8
FFFFFFF8
FF0007F8
FF0007F8
FF0007F8
FF0007F8
FF0007F8
FF0007F8
FF0007F8
FF0007F8
FF0007F8
FF0007F8
FF0007F8
FF0007F8
FF0007F8
FF0007F8
FF0007F8
FF0007F8
FF0007F8
FF0007F8
FF0007F8
FF0007F8
FF0007F8
FF0007F8
FF0007F8
FF0007F8
FF0007F8
FF0007F8
FF0007F8
FF0007F8
FF0007F8
FF0007F8
FF0007F8
FF0007F8
FF0007F8
FF0007F8
FF0007F8
FF0007F8
FF0007F8
ENDCHAR
STARTCHAR 03A1
ENCODING 929
SWIDTH 612 0
DWIDTH 38 0
BBX 31 44 5 0
BITMAP
FFFFF000
FFFFFE00
FFFFFF80
FFFFFFC0
FFFFFFE0
FFFFFFF0
FFFFFFF8
FF001FF8
FF000FFC
FF0007FC
FF0003FE
FF0003FE
FF0003FE
FF0001FE
FF0001FE
FF0003FE
FF0003FE
FF0003FE
FF0007FC
FF000FFC
FF001FFC
FFFFFFF8
FFFFFFF0
FFFFFFE0
FFFFFFC0
FFFFFF80
FFFFFE00
FFFFF000
FF000000
FF000000
FF000000
FF000000
FF000000
FF000000
FF000000
FF000000
FF000000
FF000000
FF000000
FF000000
FF000000
FF000000
FF000000
FF000000
ENDCHAR
STARTCHAR 03A3
ENCODING 931
SWIDTH 596 0
DWIDTH 37 0
BBX 31 44 3 0
BITMAP
FFFFFFFC
FFFFFFFC
FFFFFFFC
FFFFFFFC
FFFFFFFC
7FFFFFFC
3FFFFFFC
3FF00000
1FF80000
0FFC0000
07FC0000
07FE0000
03FF0000
01FF0000
00FF8000
007FC000
007FE000
003FE000
001FF000
000FF800
000FFC00
0007FC00
0007FC00
000FF800
001FF800
001FF000
003FE000
007FC000
00FFC000
00FF8000
01FF0000
03FF0000
07FE0000
07FC0000
0FF80000
1FF80000
3FF00000
7FFFFFFE
7FFFFFFE
FFFFFFFE
FFFFFFFE
FFFFFFFE
FFFFFFFE
FFFFFFFE
ENDCHAR
STARTCHAR 03A4
ENCODING 932
SWIDTH 612 0
DWIDTH 38 0
BBX 36 44 1 0
BITMAP
FFFFFFFFF0
FFFFFFFFF0
FFFFFFFFF0
FFFFFFFFF0
FFFFFFFFF0
FFFFFFFFF0
FFFFFFFFF0
0003FC0000
0003FC0000
0003FC0000
0003FC0000
0003FC0000
0003FC0000
0003FC0000
0003FC0000
0003FC0000
0003FC0000
0003FC0000
0003FC0000
0003FC0000
0003FC0000
0003FC0000
0003FC0000
0003FC0000
0003FC0000
0003FC0000
0003FC0000
0003FC0000
0003FC0000
0003FC0000
0003FC0000
0003FC0000
0003FC0000
0003FC0000
0003FC0000
0003FC0000
0003FC0000
0003FC0000
0003FC0000
0003FC0000
0003FC0000
0003FC0000
0003FC0000
0003FC0000
ENDCHAR
STARTCHAR 03A5
ENCODING 933
SWIDTH 596 0
DWIDTH 37 0
BBX 35 44 2 0
BITMAP
FF80003FE0
FF80007FE0
7FC0007FC0
7FC000FFC0
7FE000FF80
3FE000FF80
3FE001FF00
1FF001FF00
1FF003FE00
0FF803FE00
0FF807FC00
07FC07FC00
07FC07F800
03FC0FF800
03FE0FF000
01FE1FF000
01FF1FE000
00FF3FE000
00FFBFC000
007FBFC000
007FFF8000
003FFF8000
003FFF0000
001FFF0000
001FFE0000
000FFE0000
000FFE0000
0007FC0000
0007FC0000
0007F80000
0007F80000
0007F80000
0007F80000
0007F80000
0007F80000
0007F80000
0007F80000
0007F80000
0007F80000
0007F80000
0007F80000
0007F80000
0007F80000
0007F80000
ENDCHAR
STARTCHAR 03A6
ENCODING 934
SWIDTH 612 0
DWIDTH 38 0
BBX 36 44 2 0
BITMAP
0003FC0000
0003FC0000
0003FC0000
0003FC0000
0003FC0000
0003FC0000
001FFF8000
00FFFFF000
01FFFFFC00
07FFFFFE00
0FFFFFFF00
1FFFFFFF80
1FFFFFFFC0
3FFBFDFFC0
3FE3FC7FE0
7FC3FC3FE0
7FC3FC1FF0
7F83FC1FF0
FF83FC1FF0
FF83FC0FF0
FF83FC0FF0
FF03FC0FF0
FF03FC0FF0
FF03FC0FF0
FF83FC0FF0
FF83FC0FF0
FF83FC1FF0
7F83FC1FF0
7FC3FC3FE0
7FE3FC7FE0
3FFBFCFFC0
1FFFFFFFC0
1FFFFFFF80
0FFFFFFF00
07FFFFFE00
03FFFFFC00
00FFFFF000
003FFFC000
0003FC0000
0003FC0000
0003FC0000
0003FC0000
0003FC0000
0003FC0000
ENDCHAR
STARTCHAR 03A7
ENCODING 935
SWIDTH 596 0
DWIDTH 37 0
BBX 36 44 1 0
BITMAP
7FC0007FE0
7FE0007FE0
3FE000FFC0
3FF000FFC0
1FF001FF80
1FF801FF80
0FF803FF00
0FFC03FE00
07FC07FE00
03FE07FC00
03FE0FFC00
01FF0FF800
01FF1FF800
00FF9FF000
00FFBFE000
007FFFE000
003FFFC000
003FFFC000
001FFF8000
001FFF8000
000FFF0000
000FFE0000
000FFF0000
000FFF0000
001FFF8000
001FFF8000
003FFFC000
007FFFE000
007FFFE000
00FF9FF000
00FF9FF000
01FF0FF800
03FF0FF800
03FE07FC00
07FE07FE00
07FC03FE00
0FFC03FF00
0FF801FF00
1FF801FF80
3FF000FF80
3FF000FFC0
7FE0007FE0
7FE0007FE0
FFC0003FF0
ENDCHAR
STARTCHAR 03A8
ENCODING 936
SWIDTH 596 0
DWIDTH 37 0
BBX 35 44 2 0
BITMAP
FF03FC1FE0
FF03FC1FE0
FF03FC1FE0
FF03FC1FE0
FF03FC1FE0
FF03FC1FE0
FF03FC1FE0
FF03FC1FE0
FF03FC1FE0
FF03FC1FE0
FF03FC1FE0
FF03FC1FE0
FF03FC1FE0
FF03FC1FE0
FF03FC1FE0
FF03FC1FE0
FF03FC1FE0
FF03FC1FE0
FF03FC1FE0
FF83FC1FE0
FF83FC1FE0
FF83FC1FE0
7F83FC3FE0
7FC3FC3FE0
7FC3FC7FC0
3FF3FCFFC0
3FFFFDFF80
1FFFFFFF80
1FFFFFFF00
0FFFFFFE00
03FFFFFC00
01FFFFF800
007FFFE000
0007FE0000
0003FC0000
0003FC0000
0003FC0000
0003FC0000
0003FC0000
0003FC0000
0003FC0000
0003FC0000
0003FC0000
0003FC0000
ENDCHAR
STARTCHAR 03A9
ENCODING 937
SWIDTH 596 0
DWIDTH 37 0
BBX 32 44 3 1
BITMAP
003FFC00
00FFFF00
01FFFF80
03FFFFC0
07FFFFE0
0FFFFFF0
1FFC3FF8
1FF00FF8
3FE007FC
3FE007FC
7FC003FE
7FC003FE
7FC003FE
FF8001FF
FF8001FF
FF8001FF
FF8001FF
FF8001FF
FF8001FF
FF8001FF
FF8001FF
FF8001FF
FF8001FF
FF8001FF
FF8001FF
7F8001FE
7F8001FE
7FC003FE
3FC003FC
3FC003FC
1FC003F8
1FE007F8
0FE007F0
0FF00FF0
07F80FE0
03FC1FC0
01FE3F80
7FFE3FFF
7FFE3FFF
7FFE3FFF
7FFE3FFF
7FFE3FFF
7FFE3FFF
7FFE3FFF
ENDCHAR
STARTCHAR 03AA
ENCODING 938
SWIDTH 596 0
DWIDTH 37 0
BBX 25 55 6 0
BITMAP
1E007800
7F00FE00
7F81FE00
7F81FE00
7F81FE00
7F00FE00
3E007800
00000000
00000000
00000000
00000000
FFFFFF80
FFFFFF80
FFFFFF80
FFFFFF80
FFFFFF80
FFFFFF80
FFFFFF80
007F8000
007F8000
007F8000
007F8000
007F8000
007F8000
007F8000
007F8000
007F8000
007F8000
007F8000
007F8000
007F8000
007F8000
007F8000
007F8000
007F8000
007F8000
007F8000
007F8000
007F8000
007F8000
007F8000
007F8000
007F8000
007F8000
007F8000
007F8000
007F8000
007F8000
FFFFFF80
FFFFFF80
FFFFFF80
FFFFFF80
FFFFFF80
FFFFFF80
FFFFFF80
ENDCHAR
STARTCHAR 03AB
ENCODING 939
SWIDTH 596 0
DWIDTH 37 0
BBX 36 55 1 0
BITMAP
00F003E000
01FC07F000
03FC07F800
03FC07F800
03FC07F800
01FC07F000
00F003E000
0000000000
0000000000
0000000000
0000000000
FF80003FF0
FF80003FE0
7FC0007FE0
7FC0007FC0
3FE000FFC0
3FE000FF80
1FF001FF80
1FF001FF00
0FF801FF00
0FF803FE00
07F803FE00
07FC07FC00
07FC07FC00
03FE0FF800
03FE0FF800
01FF0FF000
01FF1FF000
00FF1FE000
00FFBFE000
007FBFC000
007FFFC000
003FFF8000
003FFF8000
001FFF0000
001FFF0000
000FFE0000
000FFE0000
0007FC0000
0007FC0000
0007F80000
0007F80000
0007F80000
0007F80000
0007F80000
0007F80000
0007F80000
0007F80000
0007F80000
0007F80000
0007F80000
0007F80000
0007F80000
0007F80000
0007F80000
ENDCHAR
STARTCHAR 03AC
ENCODING 940
SWIDTH 596 0
DWIDTH 37 0
BBX 32 51 3 -1
BITMAP
0001FF00
0001FE00
0001FE00
0001FC00
0001F800
0003F800
0003F000
0003F000
0003E000
0003E000
0007C000
0007C000
00000000
00000000
00000000
00000000
00000000
00080000
01FF83F0
03FFC7F0
07FFF7F0
0FFFFFF0
1FFFFFF0
3FFFFFF0
3FF87FF0
7FE01FF0
7FC00FF0
7FC00FF0
7F800FF0
FF800FF0
FF800FF0
FF800FF0
FF000FF0
FF000FF0
FF000FF0
FF000FF0
FF000FF0
FF800FF0
FF800FF0
FF800FF0
7F800FF0
7FC00FF0
7FE01FF0
3FF07FF8
3FFFFFFF
1FFFFFFF
1FFFFFFF
0FFFF7FF
03FFE3FF
01FF80FF
00180008
ENDCHAR
STARTCHAR 03AD
ENCODING 941
SWIDTH 596 0
DWIDTH 37 0
BBX 32 51 4 -1
BITMAP
0000FF00
0001FE00
0001FE00
0001FC00
0001FC00
0001F800
0003F800
0003F000
0003F000
0003E000
0003C000
0007C000
00000000
00000000
00000000
00000000
00000000
00008000
00FFFE00
07FFFFC0
0FFFFFF0
3FFFFFF8
3FFFFFFC
7FFFFFFC
7FF01FFE
7FC003FE
7F8001FE
7F800000
7F800000
3FE00000
3FFFFE00
0FFFFE00
03FFFE00
07FFFE00
1FFFFE00
3FFFFE00
7FE00000
7F800000
FF800000
FF000000
FF8001FF
FF8001FF
FFC003FF
7FF81FFE
7FFFFFFE
3FFFFFFC
1FFFFFF8
0FFFFFF0
03FFFFC0
00FFFF00
00018000
ENDCHAR
STARTCHAR 03AE
ENCODING 942
SWIDTH 596 0
DWIDTH 37 0
BBX 29 63 4 -12
BITMAP
0001FE00
0001FE00
0001FC00
0001FC00
0003F800
0003F800
0003F000
0003F000
0003E000
0007C000
0007C000
00078000
00000000
00000000
00000000
00000000
00000000
00000000
00000000
FF07FF00
FF1FFF80
FF3FFFE0
FF7FFFE0
FFFFFFF0
FFFFFFF0
FFF83FF8
FFC01FF8
FF800FF8
FF0007F8
FF0007F8
FF0007F8
FF0007F8
FF0007F8
FF0007F8
FF0007F8
FF0007F8
FF0007F8
FF0007F8
FF0007F8
FF0007F8
FF0007F8
FF0007F8
FF0007F8
FF0007F8
FF0007F8
FF0007F8
FF0007F8
FF0007F8
FF0007F8
FF0007F8
FF0007F8
000007F8
000007F8
000007F8
000007F8
000007F8
000007F8
000007F8
000007F8
000007F8
000007F8
000007F8
000007F8
ENDCHAR
STARTCHAR 03AF
ENCODING 943
SWIDTH 596 0
DWIDTH 37 0
BBX 28 50 5 -1
BITMAP
0003FC00
0007F800
0007F800
0007F000
0007F000
0007E000
000FE000
000FC000
000F8000
000F8000
000F0000
001F0000
00000000
00000000
00000000
00000000
00000000
FFFF8000
FFFF8000
FFFF8000
FFFF8000
FFFF8000
FFFF8000
FFFF8000
007F8000
007F8000
007F8000
007F8000
007F8000
007F8000
007F8000
007F8000
007F8000
007F8000
007F8000
007F8000
007F8000
007F8000
007F8000
007F8000
007FC000
007FC000
007FE060
003FFFE0
003FFFE0
003FFFE0
001FFFF0
000FFFF0
0007FFE0
0000FF00
ENDCHAR
STARTCHAR 03B0
ENCODING 944
SWIDTH 612 0
DWIDTH 38 0
BBX 30 53 4 -1
BITMAP
0003FC00
0007F800
0007F800
0007F000
0007F000
0007E000
0007E000
0007C000
000FC000
000F8000
0F000780
1FC01FC0
3FC01FE0
3FC01FE0
3FC01FE0
3FC01FE0
1FC01FC0
0F000780
00000000
00000000
FF003FC0
FF001FE0
FF001FE0
FF001FF0
FF000FF0
FF000FF0
FF000FF8
FF0007F8
FF0007F8
FF0007F8
FF0007FC
FF0007FC
FF0007FC
FF0003FC
FF0003FC
FF0003FC
FF0003FC
FF0007FC
FF0007FC
FF0007FC
FF8007FC
FF8007F8
FF800FF8
7F800FF8
7FC01FF8
7FE03FF0
3FFFFFF0
3FFFFFE0
1FFFFFC0
0FFFFF80
07FFFF00
01FFFC00
003FF000
ENDCHAR
STARTCHAR 03B1
ENCODING 945
SWIDTH 596 0
DWIDTH 37 0
BBX 32 34 3 -1
BITMAP
00080000
01FF83F0
03FFC7F0
07FFF7F0
0FFFFFF0
1FFFFFF0
3FFFFFF0
3FF87FF0
7FE01FF0
7FC00FF0
7FC00FF0
7F800FF0
FF800FF0
FF800FF0
FF800FF0
FF000FF0
FF000FF0
FF000FF0
FF000FF0
FF000FF0
FF800FF0
FF800FF0
FF800FF0
7F800FF0
7FC00FF0
7FE01FF0
3FF07FF8
3FFFFFFF
1FFFFFFF
1FFFFFFF
0FFFF7FF
03FFE3FF
01FF80FF
00180008
ENDCHAR
STARTCHAR 03B2
ENCODING 946
SWIDTH 596 0
DWIDTH 37 0
BBX 30 57 5 -12
BITMAP
00020000
007FF800
01FFFE00
07FFFF00
0FFFFF80
1FFFFFC0
3FFFFFE0
3FF8FFE0
7FE03FF0
7FC01FF0
FF800FF0
FF800FF0
FF800FF0
FF000FF0
FF000FF0
FF000FF0
FF001FF0
FF001FE0
FF007FE0
FF0FFFC0
FF0FFF80
FF0FFE00
FF0FFF00
FF0FFFC0
FF0FFFE0
FF0FFFF0
FF001FF8
FF000FF8
FF0007FC
FF0007FC
FF0003FC
FF0003FC
FF0003FC
FF0003FC
FF0003FC
FF0007FC
FF0007FC
FF800FFC
FFC01FF8
FFFFFFF8
FFFFFFF0
FFFFFFF0
FFFFFFE0
FFFFFFC0
FF3FFF00
FF07F800
FF000000
FF000000
FF000000
FF000000
FF000000
FF000000
FF000000
FF000000
FF000000
FF000000
FF000000
ENDCHAR
STARTCHAR 03B3
ENCODING 947
SWIDTH 612 0
DWIDTH 38 0
BBX 35 44 2 -12
BITMAP
FF80003FE0
FF80003FC0
7F80007FC0
7FC0007F80
3FC000FF80
3FC000FF80
3FE000FF00
1FE001FF00
1FF001FE00
0FF001FE00
0FF003FC00
07F803FC00
07F803FC00
07F807F800
03FC07F800
03FC0FF000
01FE0FF000
01FE0FE000
00FE1FE000
00FF1FC000
00FF1FC000
007F3FC000
007FBF8000
003FBF8000
003FFF0000
001FFF0000
001FFE0000
001FFE0000
000FFE0000
000FFC0000
0007FC0000
0007F80000
0007F80000
0007F80000
0007F80000
0007F80000
0007F80000
0007F80000
0007F80000
0007F80000
0007F80000
0007F80000
0007F80000
0007F80000
ENDCHAR
STARTCHAR 03B4
ENCODING 948
SWIDTH 596 0
DWIDTH 37 0
BBX 32 48 3 -1
BITMAP
000FF000
007FFE00
01FFFFC0
03FFFFC0
07FFFF80
07FFFF80
0FFFFF80
0FFC0380
0FF80000
0FF00000
0FF80000
0FF80000
07FC0000
07FF0000
03FFE000
01FFF800
00FFFE00
007FFF80
007FFFC0
01FFFFE0
07FFFFF0
0FF83FF8
1FF00FFC
3FE007FC
3FC003FE
7F8003FE
7F8001FE
FF8001FF
FF8001FF
FF0000FF
FF0000FF
FF0000FF
FF0001FF
FF8001FF
FF8001FF
FF8001FF
7F8001FE
7FC003FE
7FE007FE
3FF00FFC
3FFC3FFC
1FFFFFF8
0FFFFFF0
07FFFFE0
03FFFFC0
00FFFF00
003FFC00
00018000
ENDCHAR
STARTCHAR 03B5
ENCODING 949
SWIDTH 596 0
DWIDTH 37 0
BBX 32 34 4 -1
BITMAP
00008000
00FFFE00
07FFFFC0
0FFFFFF0
3FFFFFF8
3FFFFFFC
7FFFFFFC
7FF01FFE
7FC003FE
7F8001FE
7F800000
7F800000
3FE00000
3FFFFE00
0FFFFE00
03FFFE00
07FFFE00
1FFFFE00
3FFFFE00
7FE00000
7F800000
FF800000
FF000000
FF8001FF
FF8001FF
FFC003FF
7FF81FFE
7FFFFFFE
3FFFFFFC
1FFFFFF8
0FFFFFF0
03FFFFC0
00FFFF00
00018000
ENDCHAR
STARTCHAR 03B6
ENCODING 950
SWIDTH 596 0
DWIDTH 37 0
BBX 30 55 2 -11
BITMAP
FFFFFFFC
FFFFFFFC
FFFFFFFC
FFFFFFFC
FFFFFFFC
FFFFFFF8
FFFFFFF0
00003FE0
00007FC0
0000FF80
0001FF00
0003FE00
0007FC00
000FF800
001FF800
003FF000
007FE000
00FFC000
01FF8000
03FE0000
07FC0000
07F80000
0FF80000
1FF00000
1FE00000
3FE00000
3FC00000
3FC00000
7FC00000
7F800000
7F800000
7F800000
7FC00000
7FC00000
7FE00000
7FF00000
3FFE0000
3FFFF000
1FFFFF00
0FFFFFC0
07FFFFE0
01FFFFF0
003FFFF8
0001FFF8
00001FF8
00000FF8
000007F8
000007F8
00000FF0
00000FF0
00001FE0
00003FC0
00001F80
00000F00
00000600
ENDCHAR
STARTCHAR 03B7
ENCODING 951
SWIDTH 596 0
DWIDTH 37 0
BBX 29 44 4 -11
BITMAP
FF07FF00
FF1FFF80
FF3FFFE0
FF7FFFE0
FFFFFFF0
FFFFFFF0
FFF83FF8
FFC01FF8
FF800FF8
FF0007F8
FF0007F8
FF0007F8
FF0007F8
FF0007F8
FF0007F8
FF0007F8
FF0007F8
FF0007F8
FF0007F8
FF0007F8
FF0007F8
FF0007F8
FF0007F8
FF0007F8
FF0007F8
FF0007F8
FF0007F8
FF0007F8
FF0007F8
FF0007F8
FF0007F8
FF0007F8
000007F8
000007F8
000007F8
000007F8
000007F8
000007F8
000007F8
000007F8
000007F8
000007F8
000007F8
000007F8
ENDCHAR
STARTCHAR 03B8
ENCODING 952
SWIDTH 596 0
DWIDTH 37 0
BBX 28 45 5 0
BITMAP
00FFF000
03FFFC00
07FFFE00
0FFFFF00
1FFFFF80
1FFFFF80
3FF0FFC0
3FC03FC0
7FC03FE0
7F801FE0
7F801FE0
FF801FF0
FF801FF0
FF000FF0
FF000FF0
FF000FF0
FF000FF0
FF000FF0
FF000FF0
FFFFFFF0
FFFFFFF0
FFFFFFF0
FFFFFFF0
FFFFFFF0
FFFFFFF0
FFFFFFF0
FF000FF0
FF000FF0
FF000FF0
FF000FF0
FF000FF0
FF000FF0
FF801FF0
FF801FF0
7F801FE0
7F801FE0
7FC03FE0
3FE07FC0
3FFFFFC0
1FFFFF80
0FFFFF00
0FFFFF00
03FFFC00
01FFF800
003FC000
ENDCHAR
STARTCHAR 03B9
ENCODING 953
SWIDTH 596 0
DWIDTH 37 0
BBX 28 33 5 -1
BITMAP
FFFF8000
FFFF8000
FFFF8000
FFFF8000
FFFF8000
FFFF8000
FFFF8000
007F8000
007F8000
007F8000
007F8000
007F8000
007F8000
007F8000
007F8000
007F8000
007F8000
007F8000
007F8000
007F8000
007F8000
007F8000
007F8000
007FC000
007FC000
007FE060
003FFFE0
003FFFE0
003FFFE0
001FFFF0
000FFFF0
0007FFE0
0000FF00
ENDCHAR
STARTCHAR 03BA
ENCODING 954
SWIDTH 596 0
DWIDTH 37 0
BBX 31 32 5 0
BITMAP
FF000FFE
FF001FFC
FF003FF8
FF003FF0
FF007FE0
FF00FFC0
FF01FF80
FF03FF80
FF07FF00
FF0FFE00
FF1FFC00
FF1FF800
FF3FF000
FF7FF000
FFFFF000
FFFFF800
FFFFFC00
FFFFFC00
FFFFFE00
FFFBFF00
FFF3FF00
FFE1FF80
FFC1FFC0
FF00FFC0
FF007FE0
FF007FE0
FF003FF0
FF003FF8
FF001FF8
FF001FFC
FF000FFE
FF0007FE
ENDCHAR
ENDFONT
